<svg width="97" height="80" viewBox="0 0 97 80" fill="none" xmlns="http://www.w3.org/2000/svg">
<path d="M0.0263953 38.2638C0.0263953 35.2628 0.100782 32.2569 0.00959829 29.2607C-0.136776 24.4239 4.25924 19.664 9.68708 19.6785C12.2042 19.6785 14.7262 19.6592 17.2409 19.6785C19.8085 19.6959 22.2665 20.7222 24.0859 22.5364C25.9053 24.3506 26.9406 26.8075 26.9688 29.3784C27.0072 35.6616 26.9688 41.9425 27 48.2257C27 49.1123 26.7001 49.2949 25.9034 49.2565C24.6652 49.194 23.4222 49.2853 22.1865 49.2228C21.385 49.182 21.0587 49.4175 21.0011 50.256C20.7035 54.605 20.3532 58.9492 20.022 63.2958C19.6165 68.5963 19.199 73.8992 18.8223 79.2045C18.7767 79.8557 18.5247 79.9878 17.9416 79.9854C14.9853 79.9638 12.0267 79.947 9.06319 79.9854C8.30252 79.9974 8.10336 79.6899 8.06017 79.0243C7.81221 75.5547 7.55386 72.0859 7.28511 68.6179C6.80519 62.3972 6.32528 56.1788 5.85976 49.9581C5.81657 49.3838 5.6198 49.2084 5.0607 49.218C3.74094 49.2469 2.42117 49.1628 1.1038 49.2493C0.165571 49.3286 0 48.973 0 48.108C0.0479915 44.8282 0.0191966 41.546 0.0191966 38.2566L0.0263953 38.2638Z" fill="#D89926"/>
<path d="M22.1908 8.76296C22.1918 10.4981 21.6785 12.1944 20.7161 13.6373C19.7537 15.0802 18.3854 16.2047 16.7844 16.8685C15.1834 17.5323 13.4218 17.7055 11.7224 17.3661C10.0231 17.0268 8.46247 16.1902 7.23821 14.9623C6.01394 13.7344 5.18105 12.1704 4.84497 10.4682C4.5089 8.76605 4.68476 7.00232 5.35029 5.40029C6.01582 3.79827 7.14109 2.42999 8.58364 1.46869C10.0262 0.507384 11.7212 -0.00371819 13.454 8.55622e-05C14.6039 -0.00501828 15.7435 0.218262 16.8068 0.657009C17.87 1.09576 18.8358 1.74126 19.6483 2.55618C20.4608 3.37109 21.1039 4.33925 21.5403 5.40463C21.9767 6.47001 22.1978 7.61147 22.1908 8.76296Z" fill="#D89926"/>
<path d="M35.0264 38.2638C35.0264 35.2628 35.1008 32.2569 35.0096 29.2607C34.8632 24.4239 39.2592 19.664 44.6871 19.6785C47.2042 19.6785 49.7262 19.6592 52.2409 19.6785C54.8085 19.6959 57.2665 20.7222 59.0859 22.5364C60.9053 24.3506 61.9406 26.8075 61.9688 29.3784C62.0072 35.6616 61.9688 41.9425 62 48.2257C62 49.1123 61.7001 49.2949 60.9034 49.2565C59.6652 49.194 58.4222 49.2853 57.1865 49.2228C56.385 49.182 56.0587 49.4175 56.0011 50.256C55.7035 54.605 55.3532 58.9492 55.022 63.2958C54.6165 68.5963 54.199 73.8992 53.8223 79.2045C53.7767 79.8557 53.5247 79.9878 52.9416 79.9854C49.9853 79.9638 47.0267 79.947 44.0632 79.9854C43.3025 79.9974 43.1034 79.6899 43.0602 79.0243C42.8122 75.5547 42.5539 72.0859 42.2851 68.6179C41.8052 62.3972 41.3253 56.1788 40.8598 49.9581C40.8166 49.3838 40.6198 49.2084 40.0607 49.218C38.7409 49.2469 37.4212 49.1628 36.1038 49.2493C35.1656 49.3286 35 48.973 35 48.108C35.048 44.8282 35.0192 41.546 35.0192 38.2566L35.0264 38.2638Z" fill="#E0E0E1"/>
<path d="M57.1908 8.76296C57.1918 10.4981 56.6785 12.1944 55.7161 13.6373C54.7537 15.0802 53.3854 16.2047 51.7844 16.8685C50.1834 17.5323 48.4218 17.7055 46.7224 17.3661C45.0231 17.0268 43.4625 16.1902 42.2382 14.9623C41.0139 13.7344 40.181 12.1704 39.845 10.4682C39.5089 8.76605 39.6848 7.00232 40.3503 5.40029C41.0158 3.79827 42.1411 2.42999 43.5836 1.46869C45.0262 0.507384 46.7212 -0.00371819 48.454 8.55622e-05C49.6039 -0.00501828 50.7435 0.218262 51.8068 0.657009C52.87 1.09576 53.8358 1.74126 54.6483 2.55618C55.4608 3.37109 56.1039 4.33925 56.5403 5.40463C56.9767 6.47001 57.1978 7.61147 57.1908 8.76296Z" fill="#E0E0E1"/>
<path d="M70.0264 38.2638C70.0264 35.2628 70.1008 32.2569 70.0096 29.2607C69.8632 24.4239 74.2592 19.664 79.6871 19.6785C82.2042 19.6785 84.7262 19.6592 87.2409 19.6785C89.8085 19.6959 92.2665 20.7222 94.0859 22.5364C95.9053 24.3506 96.9406 26.8075 96.9688 29.3784C97.0072 35.6616 96.9688 41.9425 97 48.2257C97 49.1123 96.7001 49.2949 95.9034 49.2565C94.6652 49.194 93.4222 49.2853 92.1865 49.2228C91.385 49.182 91.0587 49.4175 91.0011 50.256C90.7035 54.605 90.3532 58.9492 90.022 63.2958C89.6165 68.5963 89.199 73.8992 88.8223 79.2045C88.7767 79.8557 88.5247 79.9878 87.9416 79.9854C84.9853 79.9638 82.0267 79.947 79.0632 79.9854C78.3025 79.9974 78.1034 79.6899 78.0602 79.0243C77.8122 75.5547 77.5539 72.0859 77.2851 68.6179C76.8052 62.3972 76.3253 56.1788 75.8598 49.9581C75.8166 49.3838 75.6198 49.2084 75.0607 49.218C73.7409 49.2469 72.4212 49.1628 71.1038 49.2493C70.1656 49.3286 70 48.973 70 48.108C70.048 44.8282 70.0192 41.546 70.0192 38.2566L70.0264 38.2638Z" fill="#E0E0E1"/>
<path d="M92.1908 8.76296C92.1918 10.4981 91.6785 12.1944 90.7161 13.6373C89.7537 15.0802 88.3854 16.2047 86.7844 16.8685C85.1834 17.5323 83.4218 17.7055 81.7224 17.3661C80.0231 17.0268 78.4625 16.1902 77.2382 14.9623C76.0139 13.7344 75.181 12.1704 74.845 10.4682C74.5089 8.76605 74.6848 7.00232 75.3503 5.40029C76.0158 3.79827 77.1411 2.42999 78.5836 1.46869C80.0262 0.507384 81.7212 -0.00371819 83.454 8.55622e-05C84.6039 -0.00501828 85.7435 0.218262 86.8068 0.657009C87.87 1.09576 88.8358 1.74126 89.6483 2.55618C90.4608 3.37109 91.1039 4.33925 91.5403 5.40463C91.9767 6.47001 92.1978 7.61147 92.1908 8.76296Z" fill="#E0E0E1"/>
</svg>
