<svg width="168" height="80" viewBox="0 0 168 80" fill="none" xmlns="http://www.w3.org/2000/svg">
<g clip-path="url(#clip0_329_610)">
<path d="M0.526395 38.2638C0.526395 35.2628 0.600782 32.2569 0.509598 29.2607C0.363224 24.4239 4.75924 19.664 10.1871 19.6785C12.7042 19.6785 15.2262 19.6592 17.7409 19.6785C20.3085 19.6959 22.7665 20.7222 24.5859 22.5364C26.4053 24.3506 27.4406 26.8075 27.4688 29.3784C27.5072 35.6616 27.4688 41.9425 27.5 48.2257C27.5 49.1123 27.2001 49.2949 26.4034 49.2565C25.1652 49.194 23.9222 49.2853 22.6865 49.2228C21.885 49.182 21.5587 49.4175 21.5011 50.256C21.2035 54.605 20.8532 58.9492 20.522 63.2958C20.1165 68.5963 19.699 73.8992 19.3223 79.2045C19.2767 79.8557 19.0247 79.9878 18.4416 79.9854C15.4853 79.9638 12.5267 79.947 9.56319 79.9854C8.80252 79.9974 8.60336 79.6899 8.56017 79.0243C8.31221 75.5547 8.05386 72.0859 7.78511 68.6179C7.30519 62.3972 6.82528 56.1788 6.35976 49.9581C6.31657 49.3838 6.1198 49.2084 5.5607 49.218C4.24094 49.2469 2.92117 49.1628 1.6038 49.2493C0.665571 49.3286 0.5 48.973 0.5 48.108C0.547991 44.8282 0.519197 41.546 0.519197 38.2566L0.526395 38.2638Z" fill="#D89926"/>
<path d="M22.6908 8.76296C22.6918 10.4981 22.1785 12.1944 21.2161 13.6373C20.2537 15.0802 18.8854 16.2047 17.2844 16.8685C15.6834 17.5323 13.9218 17.7055 12.2224 17.3661C10.5231 17.0268 8.96247 16.1902 7.73821 14.9623C6.51394 13.7344 5.68105 12.1704 5.34497 10.4682C5.0089 8.76605 5.18476 7.00232 5.85029 5.40029C6.51582 3.79827 7.64109 2.42999 9.08364 1.46869C10.5262 0.507384 12.2212 -0.00371819 13.954 8.55622e-05C15.1039 -0.00501828 16.2435 0.218262 17.3068 0.657009C18.37 1.09576 19.3358 1.74126 20.1483 2.55618C20.9608 3.37109 21.6039 4.33925 22.0403 5.40463C22.4767 6.47001 22.6978 7.61147 22.6908 8.76296Z" fill="#D89926"/>
</g>
<g clip-path="url(#clip1_329_610)">
<path d="M70.5264 38.2638C70.5264 35.2628 70.6008 32.2569 70.5096 29.2607C70.3632 24.4239 74.7592 19.664 80.1871 19.6785C82.7042 19.6785 85.2262 19.6592 87.7409 19.6785C90.3085 19.6959 92.7665 20.7222 94.5859 22.5364C96.4053 24.3506 97.4406 26.8075 97.4688 29.3784C97.5072 35.6616 97.4688 41.9425 97.5 48.2257C97.5 49.1123 97.2001 49.2949 96.4034 49.2565C95.1652 49.194 93.9222 49.2853 92.6865 49.2228C91.885 49.182 91.5587 49.4175 91.5011 50.256C91.2035 54.605 90.8532 58.9492 90.522 63.2958C90.1165 68.5963 89.699 73.8992 89.3223 79.2045C89.2767 79.8557 89.0247 79.9878 88.4416 79.9854C85.4853 79.9638 82.5267 79.947 79.5632 79.9854C78.8025 79.9974 78.6034 79.6899 78.5602 79.0243C78.3122 75.5547 78.0539 72.0859 77.7851 68.6179C77.3052 62.3972 76.8253 56.1788 76.3598 49.9581C76.3166 49.3838 76.1198 49.2084 75.5607 49.218C74.2409 49.2469 72.9212 49.1628 71.6038 49.2493C70.6656 49.3286 70.5 48.973 70.5 48.108C70.548 44.8282 70.5192 41.546 70.5192 38.2566L70.5264 38.2638Z" fill="#D89926"/>
<path d="M92.6908 8.76296C92.6918 10.4981 92.1785 12.1944 91.2161 13.6373C90.2537 15.0802 88.8854 16.2047 87.2844 16.8685C85.6834 17.5323 83.9218 17.7055 82.2224 17.3661C80.5231 17.0268 78.9625 16.1902 77.7382 14.9623C76.5139 13.7344 75.681 12.1704 75.345 10.4682C75.0089 8.76605 75.1848 7.00232 75.8503 5.40029C76.5158 3.79827 77.6411 2.42999 79.0836 1.46869C80.5262 0.507384 82.2212 -0.00371819 83.954 8.55622e-05C85.1039 -0.00501828 86.2435 0.218262 87.3068 0.657009C88.37 1.09576 89.3358 1.74126 90.1483 2.55618C90.9608 3.37109 91.6039 4.33925 92.0403 5.40463C92.4767 6.47001 92.6978 7.61147 92.6908 8.76296Z" fill="#D89926"/>
</g>
<g clip-path="url(#clip2_329_610)">
<path d="M35.5264 38.2638C35.5264 35.2628 35.6008 32.2569 35.5096 29.2607C35.3632 24.4239 39.7592 19.664 45.1871 19.6785C47.7042 19.6785 50.2262 19.6592 52.7409 19.6785C55.3085 19.6959 57.7665 20.7222 59.5859 22.5364C61.4053 24.3506 62.4406 26.8075 62.4688 29.3784C62.5072 35.6616 62.4688 41.9425 62.5 48.2257C62.5 49.1123 62.2001 49.2949 61.4034 49.2565C60.1652 49.194 58.9222 49.2853 57.6865 49.2228C56.885 49.182 56.5587 49.4175 56.5011 50.256C56.2035 54.605 55.8532 58.9492 55.522 63.2958C55.1165 68.5963 54.699 73.8992 54.3223 79.2045C54.2767 79.8557 54.0247 79.9878 53.4416 79.9854C50.4853 79.9638 47.5267 79.947 44.5632 79.9854C43.8025 79.9974 43.6034 79.6899 43.5602 79.0243C43.3122 75.5547 43.0539 72.0859 42.7851 68.6179C42.3052 62.3972 41.8253 56.1788 41.3598 49.9581C41.3166 49.3838 41.1198 49.2084 40.5607 49.218C39.2409 49.2469 37.9212 49.1628 36.6038 49.2493C35.6656 49.3286 35.5 48.973 35.5 48.108C35.548 44.8282 35.5192 41.546 35.5192 38.2566L35.5264 38.2638Z" fill="#D89926"/>
<path d="M57.6908 8.76296C57.6918 10.4981 57.1785 12.1944 56.2161 13.6373C55.2537 15.0802 53.8854 16.2047 52.2844 16.8685C50.6834 17.5323 48.9218 17.7055 47.2224 17.3661C45.5231 17.0268 43.9625 16.1902 42.7382 14.9623C41.5139 13.7344 40.681 12.1704 40.345 10.4682C40.0089 8.76605 40.1848 7.00232 40.8503 5.40029C41.5158 3.79827 42.6411 2.42999 44.0836 1.46869C45.5262 0.507384 47.2212 -0.00371819 48.954 8.55622e-05C50.1039 -0.00501828 51.2435 0.218262 52.3068 0.657009C53.37 1.09576 54.3358 1.74126 55.1483 2.55618C55.9608 3.37109 56.6039 4.33925 57.0403 5.40463C57.4767 6.47001 57.6978 7.61147 57.6908 8.76296Z" fill="#D89926"/>
</g>
<g clip-path="url(#clip3_329_610)">
<path d="M105.526 38.2638C105.526 35.2628 105.601 32.2569 105.51 29.2607C105.363 24.4239 109.759 19.664 115.187 19.6785C117.704 19.6785 120.226 19.6592 122.741 19.6785C125.308 19.6959 127.767 20.7222 129.586 22.5364C131.405 24.3506 132.441 26.8075 132.469 29.3784C132.507 35.6616 132.469 41.9425 132.5 48.2257C132.5 49.1123 132.2 49.2949 131.403 49.2565C130.165 49.194 128.922 49.2853 127.686 49.2228C126.885 49.182 126.559 49.4175 126.501 50.256C126.204 54.605 125.853 58.9492 125.522 63.2958C125.117 68.5963 124.699 73.8992 124.322 79.2045C124.277 79.8557 124.025 79.9878 123.442 79.9854C120.485 79.9638 117.527 79.947 114.563 79.9854C113.803 79.9974 113.603 79.6899 113.56 79.0243C113.312 75.5547 113.054 72.0859 112.785 68.6179C112.305 62.3972 111.825 56.1788 111.36 49.9581C111.317 49.3838 111.12 49.2084 110.561 49.218C109.241 49.2469 107.921 49.1628 106.604 49.2493C105.666 49.3286 105.5 48.973 105.5 48.108C105.548 44.8282 105.519 41.546 105.519 38.2566L105.526 38.2638Z" fill="#E0E0E1"/>
<path d="M127.691 8.76296C127.692 10.4981 127.179 12.1944 126.216 13.6373C125.254 15.0802 123.885 16.2047 122.284 16.8685C120.683 17.5323 118.922 17.7055 117.222 17.3661C115.523 17.0268 113.962 16.1902 112.738 14.9623C111.514 13.7344 110.681 12.1704 110.345 10.4682C110.009 8.76605 110.185 7.00232 110.85 5.40029C111.516 3.79827 112.641 2.42999 114.084 1.46869C115.526 0.507384 117.221 -0.00371819 118.954 8.55622e-05C120.104 -0.00501828 121.244 0.218262 122.307 0.657009C123.37 1.09576 124.336 1.74126 125.148 2.55618C125.961 3.37109 126.604 4.33925 127.04 5.40463C127.477 6.47001 127.698 7.61147 127.691 8.76296Z" fill="#E0E0E1"/>
</g>
<g clip-path="url(#clip4_329_610)">
<path d="M140.526 38.2638C140.526 35.2628 140.601 32.2569 140.51 29.2607C140.363 24.4239 144.759 19.664 150.187 19.6785C152.704 19.6785 155.226 19.6592 157.741 19.6785C160.308 19.6959 162.767 20.7222 164.586 22.5364C166.405 24.3506 167.441 26.8075 167.469 29.3784C167.507 35.6616 167.469 41.9425 167.5 48.2257C167.5 49.1123 167.2 49.2949 166.403 49.2565C165.165 49.194 163.922 49.2853 162.686 49.2228C161.885 49.182 161.559 49.4175 161.501 50.256C161.204 54.605 160.853 58.9492 160.522 63.2958C160.117 68.5963 159.699 73.8992 159.322 79.2045C159.277 79.8557 159.025 79.9878 158.442 79.9854C155.485 79.9638 152.527 79.947 149.563 79.9854C148.803 79.9974 148.603 79.6899 148.56 79.0243C148.312 75.5547 148.054 72.0859 147.785 68.6179C147.305 62.3972 146.825 56.1788 146.36 49.9581C146.317 49.3838 146.12 49.2084 145.561 49.218C144.241 49.2469 142.921 49.1628 141.604 49.2493C140.666 49.3286 140.5 48.973 140.5 48.108C140.548 44.8282 140.519 41.546 140.519 38.2566L140.526 38.2638Z" fill="#E0E0E1"/>
<path d="M162.691 8.76296C162.692 10.4981 162.179 12.1944 161.216 13.6373C160.254 15.0802 158.885 16.2047 157.284 16.8685C155.683 17.5323 153.922 17.7055 152.222 17.3661C150.523 17.0268 148.962 16.1902 147.738 14.9623C146.514 13.7344 145.681 12.1704 145.345 10.4682C145.009 8.76605 145.185 7.00232 145.85 5.40029C146.516 3.79827 147.641 2.42999 149.084 1.46869C150.526 0.507384 152.221 -0.00371819 153.954 8.55622e-05C155.104 -0.00501828 156.244 0.218262 157.307 0.657009C158.37 1.09576 159.336 1.74126 160.148 2.55618C160.961 3.37109 161.604 4.33925 162.04 5.40463C162.477 6.47001 162.698 7.61147 162.691 8.76296Z" fill="#E0E0E1"/>
</g>
<defs>
<clipPath id="clip0_329_610">
<rect width="27" height="80" fill="white" transform="translate(0.5)"/>
</clipPath>
<clipPath id="clip1_329_610">
<rect width="27" height="80" fill="white" transform="translate(70.5)"/>
</clipPath>
<clipPath id="clip2_329_610">
<rect width="27" height="80" fill="white" transform="translate(35.5)"/>
</clipPath>
<clipPath id="clip3_329_610">
<rect width="27" height="80" fill="white" transform="translate(105.5)"/>
</clipPath>
<clipPath id="clip4_329_610">
<rect width="27" height="80" fill="white" transform="translate(140.5)"/>
</clipPath>
</defs>
</svg>
