<svg width="130" height="27" viewBox="0 0 130 27" fill="none" xmlns="http://www.w3.org/2000/svg">
<g clip-path="url(#clip0_329_471)">
<path d="M10.6505 2.22134C10.5324 1.88171 10.3132 1.58713 10.023 1.37782C9.73272 1.16851 9.38553 1.05467 9.02877 1.05183C8.66656 1.01225 8.30237 1.10611 8.00335 1.3161C7.6784 1.53465 7.43058 1.85161 7.29559 2.22134L0.0897767 19.6516C0.0304754 19.833 0.00036939 20.0228 0.000607572 20.2138C-0.0102533 20.6087 0.124823 20.9935 0.379568 21.2934C0.527829 21.4479 0.708167 21.5674 0.907626 21.6432C1.10709 21.719 1.32071 21.7493 1.53317 21.732C1.86223 21.7324 2.18268 21.6259 2.44713 21.4283C2.73084 21.2132 2.94746 20.9205 3.0713 20.5849L4.57042 17.0202H13.1973L14.702 20.5512C14.8387 20.8966 15.0637 21.1993 15.3541 21.4283C15.6217 21.6381 15.9514 21.751 16.2903 21.7488C16.7318 21.7356 17.1502 21.5466 17.454 21.2232C17.7579 20.8998 17.9225 20.4682 17.912 20.0227C17.9086 19.7812 17.8594 19.5427 17.7671 19.3198L10.6505 2.22134ZM5.98594 13.6635L8.86716 6.83192L11.7707 13.6635H5.98594Z" fill="#D99A27"/>
<path d="M32.613 0.000836082C32.3821 -0.00513545 32.1524 0.0372472 31.9385 0.125312C31.7246 0.213376 31.5311 0.345213 31.3703 0.5125C31.2076 0.680092 31.0799 0.878899 30.9947 1.09716C30.9095 1.31543 30.8686 1.54871 30.8743 1.78322V7.51833C30.698 7.34635 30.5119 7.18489 30.317 7.03478C29.7655 6.626 29.157 6.30198 28.5114 6.07331C27.7753 5.81458 27.0003 5.6871 26.2209 5.69659C24.9697 5.68342 23.7425 6.04333 22.6932 6.73116C21.6135 7.44218 20.7403 8.42984 20.1631 9.59309C19.5389 10.9097 19.2148 12.3506 19.2148 13.8101C19.2148 15.2695 19.5389 16.7105 20.1631 18.0271C20.7453 19.1957 21.6289 20.1843 22.7211 20.889C23.802 21.5798 25.0585 21.9392 26.3379 21.9236C27.0346 21.9325 27.7266 21.8085 28.3776 21.5581C28.9614 21.3389 29.5127 21.04 30.0161 20.6697C30.3303 20.432 30.6197 20.1626 30.8799 19.8657C30.8754 20.0975 30.917 20.3279 31.0022 20.5432C31.0874 20.7585 31.2144 20.9545 31.3758 21.1195C31.708 21.4472 32.1541 21.6306 32.6186 21.6306C33.0831 21.6306 33.5292 21.4472 33.8614 21.1195C34.0234 20.9529 34.1504 20.7549 34.2347 20.5375C34.3189 20.3201 34.3588 20.0878 34.3518 19.8544V1.78322C34.3615 1.54619 34.323 1.30966 34.2387 1.08822C34.1543 0.866773 34.0259 0.665097 33.8614 0.495628C33.6974 0.332041 33.5022 0.203819 33.2876 0.118757C33.073 0.0336948 32.8435 -0.00642712 32.613 0.000836082ZM30.4842 16.3065C30.155 17.0166 29.6406 17.6229 28.9962 18.0608C28.3338 18.4955 27.557 18.7188 26.767 18.7018C25.9768 18.7209 25.1994 18.4974 24.5379 18.0608C23.8934 17.6229 23.3791 17.0166 23.0499 16.3065C22.6772 15.5344 22.4865 14.6858 22.4926 13.8269C22.4855 12.9572 22.6762 12.0974 23.0499 11.3136C23.3809 10.6063 23.8949 10.0021 24.5379 9.56497C25.1994 9.12838 25.9768 8.90485 26.767 8.92399C27.557 8.90696 28.3338 9.13032 28.9962 9.56497C29.6391 10.0021 30.1532 10.6063 30.4842 11.3136C30.8579 12.0974 31.0485 12.9572 31.0415 13.8269C31.045 14.6801 30.8544 15.5226 30.4842 16.2897V16.3065Z" fill="#D99A27"/>
<path d="M56.4987 5.96536C56.1332 5.92294 55.7646 6.01265 55.4585 6.21855C55.1524 6.42445 54.9286 6.73319 54.8268 7.08989L51.7227 15.4845L49.4935 9.39518C49.3761 9.08501 49.1847 8.80883 48.9362 8.59114C48.6545 8.38834 48.3117 8.29092 47.9665 8.31563C47.6214 8.30005 47.2803 8.39649 46.9935 8.59078C46.7066 8.78507 46.489 9.06699 46.3726 9.39518L44.0877 15.6476L40.9892 7.08989C40.9016 6.73901 40.6842 6.43524 40.3817 6.24087C40.0832 6.06315 39.7419 5.97172 39.3953 5.9766C39.1549 5.96553 38.9153 6.0105 38.6949 6.10801C38.4746 6.20553 38.2794 6.35296 38.1247 6.53887C37.8254 6.8867 37.6611 7.33211 37.6621 7.79272C37.661 8.02286 37.7007 8.25135 37.7792 8.46744L42.2041 20.4943C42.3296 20.8734 42.5923 21.1907 42.9397 21.3827C43.272 21.5914 43.6687 21.6694 44.0543 21.602C44.3828 21.582 44.6982 21.4647 44.961 21.2646C45.2237 21.0646 45.422 20.7907 45.5311 20.4774L47.8606 13.2973L50.335 20.4774C50.4441 20.7907 50.6425 21.0646 50.9052 21.2646C51.1679 21.4647 51.4833 21.582 51.8118 21.602C52.1979 21.6585 52.5914 21.577 52.9242 21.3716C53.257 21.1663 53.5082 20.8499 53.6342 20.4774L58.0591 8.45057C58.098 8.3504 58.1278 8.2469 58.1483 8.14133C58.1672 8.02044 58.1765 7.89823 58.1761 7.77586C58.1845 7.53729 58.1454 7.29946 58.0611 7.07639C57.9769 6.85332 57.8493 6.64953 57.6857 6.47702C57.5348 6.31209 57.351 6.18124 57.1465 6.09305C56.9419 6.00487 56.7211 5.96135 56.4987 5.96536Z" fill="white"/>
<path d="M72.6217 6.5953C71.6997 5.93426 70.579 5.61631 69.4507 5.69567C68.8504 5.68973 68.2539 5.79257 67.6896 5.99929C67.1618 6.19468 66.6644 6.46545 66.2128 6.80333C65.8007 7.1116 65.4266 7.46835 65.0982 7.86602C64.9923 8.00096 64.9032 8.13028 64.8084 8.25398V1.7823C64.8149 1.54819 64.7748 1.31514 64.6906 1.0969C64.6064 0.878654 64.4797 0.679638 64.318 0.511582C63.9849 0.183598 63.5379 0 63.0724 0C62.607 0 62.16 0.183598 61.8269 0.511582C61.6662 0.68037 61.5402 0.879515 61.456 1.09758C61.3719 1.31565 61.3312 1.54834 61.3365 1.7823V19.8254C61.3307 20.0586 61.3712 20.2906 61.4554 20.5078C61.5396 20.725 61.6659 20.9231 61.8269 21.0905C62.16 21.4185 62.607 21.6021 63.0724 21.6021C63.5379 21.6021 63.9849 21.4185 64.318 21.0905C64.48 20.9239 64.607 20.7259 64.6913 20.5085C64.7756 20.2911 64.8154 20.0587 64.8084 19.8254V12.3473C64.8015 11.7453 64.9351 11.1501 65.1985 10.6099C65.4638 10.0916 65.8722 9.66196 66.3744 9.37289C66.9462 9.04658 67.5959 8.88514 68.2525 8.9062C68.8673 8.8635 69.4788 9.02762 69.9912 9.37289C70.3949 9.68339 70.6882 10.1173 70.8272 10.6099C70.9898 11.1742 71.0686 11.7597 71.0613 12.3473V19.8254C71.0543 20.0587 71.0941 20.2911 71.1784 20.5085C71.2627 20.7259 71.3896 20.9239 71.5517 21.0905C71.8848 21.4185 72.3318 21.6021 72.7972 21.6021C73.2627 21.6021 73.7097 21.4185 74.0428 21.0905C74.2038 20.9231 74.3301 20.725 74.4143 20.5078C74.4985 20.2906 74.5389 20.0586 74.5332 19.8254V12.3473C74.5465 11.2206 74.4096 10.0973 74.1264 9.00742C73.8906 8.06291 73.3637 7.21831 72.6217 6.5953Z" fill="white"/>
<path d="M89.6856 7.98331C89.022 7.27725 88.2315 6.70483 87.3561 6.29651C86.4829 5.88903 85.5317 5.67983 84.5697 5.68365C83.298 5.68075 82.0488 6.02252 80.9528 6.67323C79.7869 7.35099 78.8242 8.33398 78.1663 9.5183C77.4261 10.8971 77.0608 12.449 77.1075 14.0164C77.084 15.4218 77.4179 16.8097 78.0772 18.0479C78.724 19.2318 79.6901 20.2066 80.8637 20.8592C82.1719 21.5763 83.6442 21.9331 85.1325 21.8938C86.0815 21.8945 87.0236 21.7329 87.919 21.4158C88.6832 21.1694 89.3982 20.7887 90.0311 20.2913C90.2688 20.1336 90.4664 19.9216 90.6077 19.6725C90.7491 19.4234 90.8303 19.1442 90.8448 18.8575C90.8466 18.6677 90.8099 18.4796 90.7371 18.3046C90.6642 18.1296 90.5568 17.9714 90.4212 17.8398C90.286 17.6962 90.1223 17.583 89.9409 17.5074C89.7594 17.4319 89.5642 17.3957 89.368 17.4013C89.0238 17.4095 88.6861 17.498 88.3816 17.6599C88.1698 17.778 87.9357 17.9185 87.6738 18.0872C87.3531 18.2753 87.008 18.4172 86.6484 18.5089C86.0879 18.6411 85.5128 18.6996 84.9375 18.6832C84.1547 18.6834 83.3857 18.4756 82.7077 18.0808C82.0298 17.686 81.4668 17.1181 81.0754 16.4342C80.8095 15.988 80.621 15.4993 80.5181 14.9891H90.0646C90.5087 14.9953 90.94 14.8396 91.2795 14.5506C91.448 14.4154 91.5852 14.2448 91.6814 14.0505C91.7777 13.8563 91.8307 13.6431 91.8368 13.426C91.8435 12.4024 91.6424 11.3883 91.246 10.446C90.8755 9.53789 90.347 8.70387 89.6856 7.98331ZM81.6383 9.90064C82.0036 9.53584 82.451 9.26575 82.9424 9.11347C83.4689 8.95711 84.0152 8.87944 84.5641 8.88294C85.1439 8.88357 85.7158 9.01821 86.236 9.27652C86.7499 9.52847 87.2027 9.89125 87.5623 10.3392C87.9127 10.7704 88.1211 11.301 88.1586 11.8573V12.0654H80.5794C80.6191 11.8362 80.6769 11.6105 80.7522 11.3906C80.9319 10.8327 81.2349 10.3232 81.6383 9.90064Z" fill="white"/>
<path d="M106.326 7.98331C105.663 7.27725 104.872 6.70483 103.997 6.29651C103.124 5.88903 102.172 5.67983 101.21 5.68365C99.9386 5.68075 98.6895 6.02252 97.5934 6.67323C96.4287 7.35254 95.4663 8.33516 94.807 9.5183C94.0667 10.8971 93.7014 12.449 93.7481 14.0164C93.7247 15.4218 94.0585 16.8097 94.7178 18.0479C95.3646 19.2318 96.3308 20.2066 97.5043 20.8592C98.8125 21.5763 100.285 21.9331 101.773 21.8938C102.722 21.8945 103.664 21.7329 104.56 21.4158C105.324 21.1694 106.039 20.7887 106.672 20.2913C106.909 20.1336 107.107 19.9216 107.248 19.6725C107.39 19.4234 107.471 19.1442 107.485 18.8575C107.487 18.6677 107.451 18.4796 107.378 18.3046C107.305 18.1296 107.197 17.9714 107.062 17.8398C106.927 17.6962 106.763 17.583 106.581 17.5074C106.4 17.4319 106.205 17.3957 106.009 17.4013C105.664 17.4095 105.327 17.498 105.022 17.6599C104.81 17.778 104.576 17.9185 104.314 18.0872C103.994 18.2753 103.649 18.4172 103.289 18.5089C102.73 18.641 102.157 18.6995 101.584 18.6832C100.8 18.6844 100.03 18.4771 99.3508 18.0823C98.6718 17.6874 98.1079 17.1189 97.716 16.4342C97.4592 15.987 97.2819 15.498 97.1922 14.9891H106.733C107.177 14.9963 107.609 14.8405 107.948 14.5506C108.116 14.4154 108.254 14.2448 108.35 14.0505C108.446 13.8563 108.499 13.6431 108.505 13.426C108.512 12.4024 108.311 11.3883 107.915 10.446C107.536 9.53578 106.998 8.70162 106.326 7.98331ZM98.2789 9.90064C98.6442 9.53584 99.0917 9.26575 99.583 9.11347C100.109 8.95711 100.656 8.87944 101.205 8.88294C101.784 8.88357 102.356 9.01821 102.877 9.27652C103.391 9.52847 103.843 9.89125 104.203 10.3392C104.553 10.7704 104.762 11.301 104.799 11.8573V12.0654H97.2201C97.2624 11.8368 97.3201 11.6113 97.3928 11.3906C97.5726 10.8327 97.8755 10.3232 98.2789 9.90064Z" fill="white"/>
<path d="M113.477 0.151425C113.244 0.146043 113.013 0.188318 112.797 0.275704C112.58 0.363089 112.384 0.49377 112.22 0.659842C112.055 0.825914 111.925 1.02393 111.839 1.24193C111.752 1.45993 111.71 1.69338 111.716 1.92818V19.9713C111.709 20.2055 111.748 20.4387 111.833 20.657C111.917 20.8754 112.044 21.0743 112.206 21.242C112.362 21.4085 112.55 21.5402 112.76 21.6283C112.969 21.7165 113.194 21.7592 113.421 21.7537C113.654 21.7583 113.886 21.7153 114.102 21.6273C114.319 21.5394 114.515 21.4083 114.68 21.2418C114.845 21.0754 114.975 20.8771 115.062 20.6588C115.15 20.4404 115.192 20.2066 115.188 19.9713V1.92818C115.194 1.69586 115.155 1.46452 115.073 1.24742C114.991 1.03032 114.867 0.83175 114.708 0.663085C114.551 0.494111 114.36 0.361032 114.147 0.272782C113.935 0.184532 113.706 0.143156 113.477 0.151425Z" fill="white"/>
<path d="M129.537 15.1067C129.243 14.5651 128.827 14.1009 128.322 13.7516C127.806 13.393 127.243 13.1074 126.65 12.9026C126.054 12.6889 125.463 12.5034 124.884 12.3403C124.304 12.1773 123.803 12.0255 123.307 11.8624C122.877 11.7284 122.479 11.5085 122.136 11.2158C121.867 10.9305 121.713 10.5547 121.702 10.1611C121.692 9.76752 121.827 9.38404 122.081 9.08483C122.331 8.86402 122.635 8.71456 122.961 8.65188C123.271 8.58578 123.586 8.55 123.903 8.54505C124.554 8.53337 125.201 8.66379 125.798 8.92739C126.313 9.15415 126.765 9.50564 127.113 9.95071C127.376 10.1885 127.713 10.3275 128.066 10.3443C128.431 10.3806 128.796 10.2694 129.08 10.0351C129.263 9.91413 129.412 9.74631 129.509 9.54875C129.607 9.35119 129.652 9.13095 129.638 8.91053C129.609 8.53171 129.478 8.16808 129.259 7.85908C128.854 7.33108 128.34 6.89761 127.754 6.58837C127.163 6.26853 126.531 6.03205 125.876 5.88553C125.257 5.74815 124.626 5.67654 123.992 5.67188C123.063 5.67342 122.143 5.86468 121.289 6.23414C120.469 6.57443 119.746 7.11779 119.188 7.8141C118.642 8.52122 118.357 9.39767 118.38 10.2937C118.352 11.0355 118.521 11.7714 118.871 12.4247C119.183 12.9724 119.621 13.437 120.147 13.7797C120.683 14.1305 121.262 14.4102 121.869 14.6119C122.493 14.8256 123.106 15.0224 123.702 15.1742C124.299 15.326 124.817 15.4947 125.279 15.669C125.697 15.8151 126.085 16.034 126.427 16.3156C126.569 16.4424 126.682 16.5995 126.756 16.7756C126.83 16.9516 126.865 17.1421 126.857 17.3333C126.875 17.5379 126.849 17.7441 126.782 17.938C126.715 18.1319 126.607 18.3091 126.467 18.4578C126.216 18.6998 125.9 18.862 125.558 18.9245C125.242 18.9901 124.922 19.0351 124.6 19.0594C123.803 19.0855 123.012 18.9258 122.287 18.5927C121.632 18.2525 121.035 17.8082 120.52 17.277C120.263 16.9718 119.904 16.7718 119.511 16.7148C119.165 16.6864 118.818 16.7733 118.525 16.9622C118.315 17.0699 118.136 17.2296 118.005 17.4263C117.873 17.6231 117.793 17.8503 117.773 18.0867C117.738 18.4571 117.831 18.8282 118.035 19.1381C118.744 20.1201 119.734 20.8598 120.871 21.2579C121.967 21.6489 123.12 21.8505 124.282 21.8539C125.198 21.8453 126.103 21.6542 126.946 21.2916C127.789 20.9526 128.534 20.4055 129.114 19.7004C129.698 18.9871 130.007 18.0843 129.983 17.159C130.004 16.4483 129.851 15.7432 129.537 15.1067Z" fill="white"/>
<path d="M113.448 27.0042C114.412 27.0042 115.193 26.2162 115.193 25.2443C115.193 24.2723 114.412 23.4844 113.448 23.4844C112.485 23.4844 111.704 24.2723 111.704 25.2443C111.704 26.2162 112.485 27.0042 113.448 27.0042Z" fill="white"/>
</g>
<defs>
<clipPath id="clip0_329_471">
<rect width="130" height="27" fill="white"/>
</clipPath>
</defs>
</svg>
