<svg width="2232" height="1674" viewBox="0 0 2232 1674" fill="none" xmlns="http://www.w3.org/2000/svg">
<path d="M1026.37 620.484L1026.3 620.974L1025.98 622.047L1025.67 622.622L1025.24 623.123L1024.68 623.479L1021.17 623.784L1020.69 624.15L1020.33 624.777L1020.1 625.726L1019.89 628.572L1019.51 629.952L1018.92 631.138L1018.17 632.066L1017.3 632.668L1016.35 632.885L1015.35 632.648L1009.28 626.347L1008.47 625.973L1007.83 626.165L1007.38 627.063L1006.08 634.65L1004.6 636.027L1004.1 636.736L1003.68 637.556L1003.45 638.475L1003.51 640.416L1003.35 641.197L1003.03 641.847L1000.41 644.296L999.919 644.958L997.792 650.492L996.157 651.524L995.621 652.105L995.217 652.815L995.039 653.653L995.177 654.62L1001.72 675.229L1010 682.088L1010.9 686.281L1010.11 686.839L1009.67 687.489L1009.33 688.197L1009.17 688.825L1009.04 689.66V690.777L1008.9 692.264L1008.5 693.68L1008.32 694.138L1008.14 694.501L1007.4 695.048L1006.46 695.552L1003.07 698.387L1002.06 698.98L1001.38 699.273L1000.76 699.217L1000.15 699.052L998.613 698.348L997.675 698.178L997.244 698.537L997.134 699.263L997.298 699.999L997.837 701.612L998.018 702.31L998.072 703.025L997.947 704.193L997.929 704.817L998.072 705.406L998.504 706.702L998.667 707.313V707.992L998.56 708.434L998 709.274L997.8 709.696L997.55 710.459L997.151 711.373L996.232 712.756L995.315 713.261L994.413 713.453L992.37 713.313L989.09 713.585L988.188 713.849L987.215 714.483L984.704 716.587L983.859 717.001L983.264 717.143L979.473 715.723L970.311 717.294L967.969 717.002L965.241 716.01L962.396 715.45L957.539 715.61L956.134 715.941L955.232 716.365L954.747 717.145L954.476 717.935L954.349 718.941L954.325 719.713L954.476 720.871L954.44 721.481L954.205 722.159L953.513 723.23L952.614 723.598L951.641 723.691L950.073 723.587L948.972 724.029L942.083 728.362L941.381 729.16L940.653 730.158L939.986 730.849L938.688 731.877L937.879 732.009L936.995 731.68L936.239 731.117L935.301 730.711L934.31 730.797L923.232 736.582L921.188 737.126H920.611L920.125 736.967L919.405 736.61L918.683 736.422L917.403 736.404L916.412 736.731L915.566 737.249L915.17 737.587L914.082 738.731L909.109 741.984L902.307 744.812L900.951 745.592L900.302 746.324L898.751 748.793L897.635 751.479L896.517 752.885L895.166 753.803L892.185 756.801L891.033 757.392L889.229 757.888L887.763 758.647L886.558 760.379L884.087 762.149L882.478 762.135L877.252 760.819L876.187 760.281L875.449 759.489L874.182 757.729L873.101 756.52L871.747 755.284L869.311 753.534L868.445 752.643L868.085 752.072L868.281 751.34L868.498 750.942L870.182 748.743L870.649 747.984L871.045 747.168L870.792 745.686L870.018 743.698L867.561 739.898L866.677 738.058L866.317 736.593L866.588 735.742L866.805 734.846L866.912 733.888L866.769 732.011L866.352 729.69L866.156 727.547L866.12 726.334L866.334 722.39L866.298 720.845L866.102 719.273L865.525 716.865L864.93 715.689L864.192 714.829L862.401 713.844L859.121 712.997L855.583 712.817L852.681 712.215L851.203 711.11L850.355 709.979L849.594 708.421L848.999 707.652L848.297 707.111L840.703 706.226L838.721 705.094L834.82 701.832L837.356 699.327L839.002 697.374L839.759 694.044L840.517 686.598L841.478 685.927L842.451 685.692L843.412 685.9L844.313 686.58L845.334 686.882L846.415 686.977L847.508 686.892L848.565 686.599H848.576L848.601 686.58L851.881 685.446L858.008 685.805L860.868 683.661L862.537 680.628L866.406 670.256L868.665 670.465L870.551 671.789L872.485 672.649L874.924 671.4L876.161 667.691L876.81 666.527L881.172 663.423L881.868 662.665L881.941 662.002L882.265 661.775L883.683 662.296L884.307 663.006L885.941 665.761L886.71 666.727L889.305 668.005L891.467 667.465L893.437 665.667L895.456 663.139L896.609 662.486L897.306 661.624L897.414 660.516L896.742 659.049L898.676 657.58L900.226 655.571L900.682 653.097L899.337 650.282L904.094 647.398L909.369 646.402L919.81 646.459L922.051 646.013L926.473 644.371L928.983 644.115L934.318 644.713L936.408 644.286L939.772 642.178L940.48 642.159L941.153 641.922L941.946 640.784L942.007 639.815L941.73 638.524L941.586 636.966L942.079 635.181L943.148 633.861L944.134 633.822L945.263 634.164L946.729 633.946L947.918 633.052L949.697 630.772L950.946 629.879L953.217 629.385L957.469 629.936L959.704 629.784L977.822 621.444L979.24 620.112L981.367 616.895L982.629 615.648L986.809 614.772L995.928 615.495L999.339 612.591L1000.04 607.999L996.937 606.198L992.648 604.93L989.68 601.983L989.789 600.047L990.774 599.36L990.955 598.988L988.636 598.044L984.707 597.529L983.35 596.632L984.648 594.752L986.281 589.434L989.068 586.587L992.769 586L997.094 587.419L997.971 588.221L998.584 589.248L999.342 590.256L1000.6 590.943L1001.89 590.972L1005.14 589.525L1009.36 589.764L1010.68 589.077L1011.69 586.522L1012.36 588.088L1012.62 589.201L1013.01 590.309L1014.11 591.823L1015.55 592.835L1018.68 593.627L1020.11 594.753L1021.52 596.461L1022.41 597.921L1022.77 599.724L1022.55 602.499L1021.65 604.72L1020.26 607.371L1019.62 609.619L1020.95 610.677L1027.38 607.999L1028.79 608.028L1029.41 610.115L1028.74 612.563L1026.77 617.201L1026.37 620.484Z" stroke="#767676" stroke-width="0.5" stroke-linecap="round" stroke-linejoin="round"/>
<path d="M1026.37 620.484L1026.93 621.864L1030.97 623.006L1032.63 623.929L1037.07 627.315L1041.38 628.285L1043.91 628.38L1045.78 627.867L1046.91 626.565L1048.02 624.434L1049.86 619.496L1052.33 619.582L1056.53 618.402L1069.81 619.383L1070.05 617.793L1069.91 611.394L1069.77 610.871L1069.7 610.165L1069.81 609.136L1070.13 608.507L1071.28 607.211L1071.64 606.278L1071.5 600.919L1069.74 598.334L1067.85 596.836L1067.36 594.746H1067.37L1067.9 594.116L1068.49 593.63L1069.15 593.314L1069.81 593.171L1071.49 591.94L1072.03 591.09L1072.36 589.567L1074.57 591.605L1080.45 592.904L1081.44 594.727L1082.81 596.082L1084.44 596.894L1085.75 596.626L1086.14 594.746V594.727L1087.18 592.311L1088.68 591.251L1090.04 591.939L1090.58 594.745L1091.68 597.454L1098.3 597.56L1101.39 599.105L1103.26 602.129L1103.14 603.912L1102.13 605.848L1101.31 609.24L1101.66 611.859L1102.74 615.107L1104.11 618.154L1105.35 620.153L1107.67 622.018L1109.77 622.95L1111.54 624.415L1112.93 627.867L1112.97 629.655L1112.64 631.499L1112.54 633.247L1113.29 634.767L1114.74 635.228L1114.94 635.289L1116.22 633.931L1117.33 631.973L1118.41 630.623L1123.25 630.214L1132.59 633.497L1134.24 638.786L1138.1 646.631L1138.37 648.079L1138.16 649.115L1137.73 650.126L1137.44 651.524L1137.29 653.179L1137.45 656.748L1137.79 658.402L1138.32 659.798L1139.75 661.641L1140.28 662.579L1140.63 663.598L1140.83 664.673L1140.88 665.78L1140.81 666.895L1139.99 670.801L1140.03 671.526L1140.18 672.228L1144.16 681.407L1144.4 682.473L1144.45 683.605L1144.26 684.829L1143.82 685.842L1143.16 686.381L1142.32 686.552L1133.41 684.974L1132.09 684.076L1129.66 681.47L1129 681.125L1128.33 681.005L1127.64 681.061L1124.65 682.089L1124 682.614L1123.63 683.59L1123.24 689.414L1122.97 690.708L1122.47 691.683L1121.77 692.265L1121.02 692.496L1120.21 692.406L1119.36 692.024L1117.62 690.528L1114.07 685.946L1111.84 684.146L1106.77 682.09L1105.52 682.102L1104.39 682.572L1099.36 688.258L1098.68 688.557L1097.96 688.474L1097.17 688.066L1090.74 682.638L1088.88 681.982L1088.22 681.998L1087.73 682.142L1087.38 682.341L1087.11 682.589L1082.98 678.866L1081.75 676.605L1080.72 671.235L1077.71 672.039L1076.93 671.868L1076.07 671.546L1075.36 670.875L1073.15 668.235L1072.54 667.819L1071.94 667.648L1069.16 667.848L1068.2 667.393L1067.09 666.455L1066.28 666.332L1065.43 666.55L1064.11 667.155L1063.15 667.126L1062.02 666.654L1061.35 666.616L1060.79 666.881L1060.36 667.41L1059.01 669.611L1058.33 670.448L1055.94 672.483L1055.2 673.319L1054.73 674.033L1053.5 676.481L1052.67 677.512L1051.7 678.382L1049.77 679.431L1048.88 680.046L1047.52 681.407L1046.49 682.191L1042.23 684.218L1037.52 687.372L1027.1 690.096L1025.07 690.27L1024.06 690.134L1023.74 689.899L1023.47 689.473L1023.32 688.954L1023.27 688.363L1023.2 687.839L1023.11 687.396L1022.89 686.861L1022.66 686.414L1022.14 686.149L1021.32 686.026L1019.54 686.149L1017.34 685.79L1012.16 685.914L1010.89 686.281L1010 682.088L1001.71 675.23L995.173 654.621L995.035 653.653L995.214 652.815L995.617 652.105L996.154 651.524L997.788 650.492L999.916 644.958L1000.4 644.296L1003.03 641.847L1003.35 641.197L1003.5 640.416L1003.44 638.475L1003.68 637.556L1004.09 636.736L1004.6 636.028L1006.07 634.65L1007.38 627.063L1007.82 626.166L1008.47 625.973L1009.28 626.347L1015.35 632.648L1016.34 632.885L1017.3 632.668L1018.17 632.066L1018.92 631.139L1019.5 629.952L1019.88 628.572L1020.1 625.726L1020.33 624.777L1020.69 624.151L1021.16 623.784L1024.67 623.479L1025.24 623.124L1025.67 622.622L1025.97 622.048L1026.29 620.974L1026.37 620.484Z" stroke="#767676" stroke-width="0.5" stroke-linecap="round" stroke-linejoin="round"/>
<path d="M734.929 719.185L740.506 719.598L742.741 721.188L743.426 722.871L743.389 725.993L743.846 727.412L745.144 728.558L746.838 729.084L750.179 729.169L751.008 729.629L751.393 730.286L751.333 731.122L750.817 732.146L750.637 732.175L750.48 732.231L750.324 732.334L750.18 732.466L749.868 732.813L749.759 733.18L749.879 733.583L750.18 734.006L752.211 736.062L752.715 736.747L753.195 737.931L753.399 738.992L753.519 739.931L754.913 744.931L756.091 746.77L758.073 747.023L759.695 745.842V744.228L759.022 742.287L758.674 740.035L759.034 736.806L759.658 735.097L761.953 732.148L762.265 729.265L763.215 727.846L764.513 726.934L765.834 725.543L769.439 718.969L770.688 717.727L774.101 715.808L775.482 714.565L775.903 714.321L776.948 714.359L777.417 714.106L777.669 713.437L777.597 712.722L777.441 712.11L777.417 711.734L777.729 710.915L777.969 709.992L778.378 709.088L779.242 708.335L782.462 705.565L787.148 704.18L795.847 703.53L802.059 704.661L803.572 704.491L804.87 703.238L807.442 699.241L808.932 697.76L810.83 697.072L812.692 696.958L814.77 697.25L815.492 696.968L817.125 695.883L818.17 695.667L819.143 695.959L829.908 702.531L833.885 702.757L834.822 701.832L838.722 705.094L840.704 706.226L848.298 707.111L849.001 707.652L849.595 708.421L850.357 709.979L851.204 711.11L852.683 712.215L855.585 712.817L859.123 712.998L862.403 713.844L864.194 714.829L864.932 715.689L865.527 716.865L866.103 719.273L866.3 720.845L866.336 722.39L866.121 726.334L866.157 727.547L866.354 729.691L866.77 732.011L866.914 733.888L866.806 734.846L866.59 735.743L866.319 736.593L866.679 738.058L867.563 739.898L870.019 743.698L870.794 745.687L871.047 747.168L870.65 747.984L870.183 748.743L868.5 750.942L868.283 751.34L868.086 752.072L868.446 752.644L869.312 753.534L871.749 755.284L873.103 756.521L871.907 757.054L871.133 757.839L870.719 758.804L870.602 759.885L870.714 761.015L870.995 762.126L871.807 764.019L871.889 764.687L871.376 765.177L864.63 766.667L864.181 767.141L863.948 767.863L863.895 768.776L863.992 769.829L865.359 775.196L865.186 775.868L864.746 776.34L864.11 776.626L862.541 776.665L861.041 776.075L856.885 771.373L848.865 769.8L848.328 769.915L847.112 770.673L844.608 773.43L833.843 779.305L833.224 779.851L832.764 780.768L831.199 788.406L830.699 789.042L829.96 789.256L828.082 788.812L824.966 787.233L824.577 787.189L823.655 787.443L820.761 789.61L820.334 789.711L819.903 789.617L819.466 789.361L816.93 786.689L807.903 786.506L807.131 786.922L803.622 791.048L803.07 791.409L801.41 791.688L799.377 791.471L795.949 790.193L795.305 790.223L794.687 790.502L791.535 793.687L790.671 794.179L789.573 794.374L784.07 793.331L783.349 792.025L781.691 791.382L776.933 788.583L777.066 786.623L777.871 784.186L777.571 781.544L775.612 779.676L771.335 779.227L769.557 777.47H769.437L751.847 768.028L751.475 766.878L751.45 765.231L751.21 763.378L750.177 761.59L748.494 760.13L746.632 759.053L744.986 757.544L743.977 754.8L743.905 752.083L744.721 747.958L744.385 745.23L743.496 743.073L742.186 741.046L739.338 737.912L733.595 734.315L732.394 732.155L733.848 729.956L735.049 729.167L735.83 728.321L736.047 725.99L735.615 723.395L734.678 721.777L732 718.967L734.929 719.185Z" stroke="#767676" stroke-width="0.5" stroke-linecap="round" stroke-linejoin="round"/>
<path d="M900.126 960.591L899.377 960.432L897.767 961.173L896.661 963.122L895.46 966.205L892.745 964.897L889.069 962.254L885.728 959.115L884.059 956.396L883.986 951.423L882.688 948.335L877.751 943.294L874.218 938.553L872.8 937.324L870.468 936.424L863.44 936.094L860.149 934.166L858.298 931.182L856.772 927.684L845.887 912.855L844.446 912.036L844.421 912.018L840.709 907.581L840.18 905.924L840.024 904.203L839.375 902.747L837.357 901.909L834.089 898.436L832.406 897.072L830.436 896.012L825.991 894.787L824.393 895.293L824.909 897.589L822.735 897.884L815.886 896.879L813.579 896.04L811.741 894.131L807.932 885.58L805.589 883.152L800.23 880.622L797.959 878.728L796.638 876.142L796.061 873.24L795.725 867.369L795.568 864.354L794.704 863.651L793.478 863.826L792.169 863.428L790.907 862.104L789.993 860.763L789.26 859.161L788.516 857.013L788.047 854.911L787.507 850.937L786.69 848.991L785.464 847.638L782.689 846.108L781.499 844.661L781.583 844.226L782.135 842.816L781.21 842.362L780.91 842.121L781.894 839.922L781.81 837.538L780.849 835.635L779.239 834.791L775.371 832.934L773.593 831.718L771.923 830.204L769.52 826.74L768.319 824.435L767.742 822.539L769.112 819.834L773.919 817.788L775.769 815.909L776.142 812.95L776.202 809.171L776.911 806.629L779.242 807.346L780.095 804.561L782.774 799.594L783.711 796.835L784.071 793.329L789.574 794.372L790.672 794.177L791.535 793.685L794.688 790.5L795.306 790.221L795.95 790.191L799.377 791.469L801.41 791.686L803.07 791.407L803.623 791.046L807.132 786.92L807.903 786.504L816.931 786.687L819.467 789.359L819.904 789.615L820.335 789.709L820.762 789.608L823.656 787.441L824.578 787.187L824.967 787.231L828.083 788.81L829.961 789.254L830.699 789.04L831.2 788.404L832.765 780.766L833.225 779.849L833.843 779.303L844.609 773.428L847.113 770.671L848.329 769.913L848.865 769.798L856.886 771.371L861.042 776.073L862.542 776.663L864.11 776.624L864.747 776.338L865.186 775.866L865.359 775.194L863.992 769.827L863.896 768.774L863.949 767.861L864.182 767.139L864.631 766.665L871.377 765.175L871.89 764.685L871.808 764.017L870.995 762.124L870.715 761.013L870.602 759.883L870.72 758.802L871.133 757.837L871.908 757.052L873.104 756.519L874.184 757.727L875.451 759.487L876.189 760.28L877.255 760.817L882.48 762.133L884.089 762.147L886.56 760.377L887.947 764.001L888.001 764.787L887.947 765.76L887.605 766.649L887.138 767.602L886.65 768.903L886.668 769.681L887.1 770.242L887.677 770.484L888.326 770.57L888.908 770.54L890.17 770.224L892.53 768.903L893.125 768.716L893.792 768.737L895.325 769.335L897.241 769.782L899.261 770.764L904.907 776.224L905.934 776.869L908.013 777.132L909.635 776.977L911.204 776.607L912.142 776.527L913.294 776.612L915.484 777.228L916.743 777.813L917.754 778.486L920.8 781.849L921.591 782.53L922.247 782.895L926.122 784.08L926.86 784.557L927.346 785.22L927.456 785.924L927.709 786.742L933.806 789.86L934.837 790.955L935.325 791.817L935.143 792.452L935.072 793.236L935.108 794.002L935.308 794.916L936.442 798.776L936.569 799.654L936.513 800.134L936.388 800.455L936.099 800.64L935.613 800.869L934.983 801.061L933.859 801.172L933.517 801.261L933.264 801.526L933.011 802.126L932.975 802.905L933.046 804.462L933.01 805.272L932.903 805.971L932.778 806.464L931.316 810.142V810.645L931.387 811.278L931.658 812.349L931.783 813.117L931.712 814.023L930.56 818.006L930.36 818.917L930.324 819.984L930.485 820.451L930.774 820.71L931.911 821.167L932.738 821.649L933.027 822.264L933.045 822.811L932.667 823.601L929.783 826.84L928.885 827.678L927.994 828.124L924.588 828.972L923.127 829.584L921.812 830.416L920.437 831.749L919.807 832.6L919.5 833.448L919.967 834.191L921.734 835.787L921.885 836.432L921.699 836.957L920.761 837.505L920.059 838.098L920.077 838.339L921.579 839.258L921.868 839.726L921.939 840.167L921.735 840.641L921.05 841.235L920.744 841.698L920.635 842.337L920.906 843.719L921.375 844.368L921.957 844.769L922.478 844.944L923.056 845.232L923.832 845.784L924.859 846.994L925.308 847.883L925.525 848.885L925.418 853.322L925.578 855.165L925.867 856.24L926.263 857.063L927.382 858.435L928.173 859.647L928.431 860.896V861.942L928.089 863.682L927.586 865.246L927.364 865.745L927.218 866.369L927.236 868L928.884 871.686L930.36 877.476L930.524 879L930.41 879.886L929.601 883.241L929.401 885.996L929.654 888.197L930.285 891.343L930.428 892.864L930.285 894.063L929.797 895.162L927.557 898.916L926.512 901.212L925.863 903.454L925.392 904.707L924.996 905.48L924.44 905.958L922.419 907.174L921.952 907.607L921.392 908.311L921.249 909.006L921.285 909.587L921.934 911.289V912.273L921.788 912.967L921.428 913.63L920.685 914.604L920.269 915.3L920.197 915.988L920.361 916.614L920.828 917.267L922.456 918.941L922.961 920.192L922.872 920.858L922.241 921.447L921.296 921.791L920.09 922.578L919.045 923.602L915.98 929.412L914.856 930.95L914.407 931.28L913.901 931.381L912.496 931.096L911.416 931.611L910.19 933.001L908.693 936.873L908.275 939.448L908.333 941.365L908.524 942.39L908.634 943.272L908.598 944.798L908.261 945.849L907.714 946.792L905.208 949.272L902.506 953.491L899.977 958.882L900.121 960.54L900.126 960.591Z" stroke="#767676" stroke-width="0.5" stroke-linecap="round" stroke-linejoin="round"/>
<path d="M934.224 996.45L931.954 994.089L926.342 982.868L923.639 978.641L922.005 977.727L917.674 977.042L915.475 976.001L913.493 974.019L911.679 971.26L910.442 968.041L910.154 964.695L908.039 964.932L906.057 963.835L904.087 962.253L902.044 960.999L900.126 960.591L900.122 960.542L899.979 958.883L902.508 953.492L905.21 949.273L907.715 946.793L908.262 945.85L908.599 944.799L908.635 943.273L908.526 942.391L908.334 941.366L908.276 939.449L908.695 936.875L910.191 933.002L911.417 931.613L912.497 931.098L913.902 931.382L914.408 931.281L914.857 930.951L915.981 929.413L919.046 923.603L920.091 922.579L921.297 921.792L922.242 921.448L922.873 920.859L922.962 920.193L922.457 918.942L920.83 917.268L920.362 916.615L920.199 915.989L920.27 915.301L920.686 914.605L921.43 913.631L921.79 912.969L921.935 912.274V911.291L921.286 909.588L921.25 909.007L921.394 908.312L921.953 907.608L922.421 907.176L924.441 905.96L924.998 905.482L925.394 904.708L925.864 903.455L926.513 901.213L927.558 898.917L929.798 895.163L930.286 894.064L930.429 892.865L930.286 891.344L929.655 888.198L929.402 885.997L929.602 883.242L930.411 879.887L930.521 878.996L930.357 877.472L928.881 871.682L927.233 867.996L933.979 864.028L934.646 863.945L935.193 864.085L936.544 865.027L937.193 865.246L939.628 865.334L940.402 865.51L941.051 865.75L941.707 866.232L943.815 867.447L944.788 867.563L945.996 867.425L948.076 866.341L948.707 865.861L949.589 865.407L955.2 863.65L955.578 863.352L955.867 863.01L956.498 860.947L957.058 859.725L957.814 859.095L959.112 858.393L959.942 858.245L960.831 858.345L962.001 858.985L963.426 860.115L964.111 860.341L966.273 860.512L967.775 861.039L970.858 861.155L977.64 860.261L979.947 859.317L982.044 857.207L982.531 856.872L983.088 856.693L984.477 856.429L986.339 856.443L987.726 856.803L988.339 857.131L988.717 857.529L989.148 858.7L989.383 859.168L989.636 859.436L989.96 859.566L990.409 859.64L990.969 859.852L991.383 860.144L991.871 860.722L992.103 861.14L992.663 861.959L992.921 862.208L993.21 862.43L993.552 862.611L994.076 862.796L994.959 862.874L996.147 862.734L1001.6 859.667L1002.55 859.454L1003.99 859.389L1005.54 859.777L1007.48 860.852L1009.66 861.14L1022.57 860.616L1024 861L1023.89 861.537L1023.85 862.036L1023.91 862.491L1024.11 862.694L1026.87 863.139L1028.11 862.972L1029.37 862.602L1032.15 860.853L1033.85 859.094L1034.64 858.725L1038.41 857.915L1040.04 856.621L1040.78 855.511L1041.07 850.815L1041.14 850.259L1041.25 849.749L1041.97 848.275L1042.45 847.552L1042.81 847.126L1044.24 845.894L1044.8 845.698L1045.25 845.799L1045.88 846.477L1046.71 847.615L1047.09 848.005L1047.7 848.358L1051.14 849.414L1051.78 849.96L1052.18 850.637L1052.25 851.118L1052.3 852.276L1052.9 852.648L1054.07 852.758L1056.31 852.351L1057.71 852.851L1058.49 853.351L1058.76 853.934L1059.12 855.071L1059.48 855.87L1059.97 856.603L1060.56 857.261L1061.11 857.743L1061.63 858.076L1062.17 858.288L1062.93 858.177L1064.58 859.951L1065.06 860.75L1065.35 861.594L1065.34 862.439L1064.93 863.235L1064.13 863.849L1060.02 865.045L1059.35 865.502L1059.06 866.211L1060.79 872.466L1061.1 875.379L1061.01 878.666L1058.55 888.369L1058.53 889.628L1058.82 890.722L1059.33 891.581L1061.26 893.454L1061.58 893.922L1061.8 894.546L1061.88 895.406L1061.61 899.084L1061.73 899.966L1062.06 900.863L1062.67 901.79L1067.03 905.875L1069.23 907.219L1070.3 907.366L1071.34 907.027L1073.33 905.176L1074.35 904.819L1075.35 904.917L1077.22 906.005L1079.82 908.553L1083.16 910.784L1086.23 914.876L1090.9 917.927L1091.41 917.906L1091.9 917.556L1093.93 914.455L1094.52 914.036L1095.17 913.836L1095.89 913.879L1102 917.083L1102.48 917.406L1103.81 917.774L1109.46 918.437L1110.46 918.832L1111.11 919.756L1111.58 921.259L1111.81 924.152L1112.1 925.733L1112.48 926.936L1113.06 927.7L1118.58 932.961L1119.01 933.208L1119.55 933.32L1121.5 932.97L1122.02 932.947L1127.51 933.952L1129.16 933.833L1133.67 932.024L1134.16 931.914L1134.56 931.942L1134.99 932.235L1140.51 937.697L1141.25 938.678L1141.47 939.312L1141.45 939.79L1141.14 940.212L1140.66 940.588L1140.06 940.903L1139.27 941.1L1136.7 941.266L1136.09 941.38L1135.78 941.682L1135.51 942.391L1135.39 943.171L1135.26 944.442L1135.01 945.308L1134.43 946.491L1130.65 950.972L1130.15 951.677L1129.94 952.364L1129.69 953.783L1129.78 954.507L1129.94 954.956L1130.15 955.033H1130.52L1130.92 955.199L1131.28 955.633L1131.78 956.835L1132.22 957.625L1132.94 958.125L1133.75 958.308L1135.59 958.453L1136.94 958.748L1137.5 959.103L1138.02 959.607L1138.6 960.517L1138.71 961.144V961.871L1138.15 963.723L1136.38 968.204L1135.94 969.621L1135.46 970.682L1135.17 972.355L1135.16 972.398L1132.5 971.36L1126.75 966.367L1124.25 964.931L1119.09 963.184L1113.5 960.329L1110.91 959.588L1105.46 959.524L1104.89 959.121L1104.41 958.243L1103.82 957.51L1102.93 957.52L1102.46 958.243L1102.17 960.622L1101.79 961.556L1100.18 963.495L1099.58 963.88L1090.71 966.276L1088.4 966.23L1089.17 963.706L1089.22 961.3L1088.73 958.893L1087.87 956.394L1078.83 955.652L1072.36 953.427L1069.81 953.756L1069.44 954.05L1069.26 954.644V955.469L1069.37 956.43L1067.78 960.164L1067.74 965.205L1068.22 970.618L1068.2 975.507L1065.74 986.573L1064.9 988.799L1064.71 990.03L1064.94 991.142L1065.44 992.538L1065.96 993.678L1066.21 993.996L1064.88 997.086L1062.52 997.305L1056.51 994.835L1050.45 993.996L1048.69 994.671L1048.01 996.348L1047.54 998.489L1046.37 1000.56L1045.79 1003.93L1039.67 1009.32L1037.47 1012.89L1037.05 1017.65L1037.11 1023.02L1036.52 1027.59L1035.99 1028.12L1034.19 1029.93L1032.28 1029.8L1031.37 1028.65L1030.68 1027L1029.43 1025.34L1028.68 1025.17L1026.9 1025.8L1026 1025.7L1025.62 1024.96L1025.61 1023.79L1025.47 1022.66L1024.72 1022.01L1022.93 1022.15L1019.45 1023.83L1017.71 1024.22L1016.34 1023.89L1011.7 1021.45L1008.91 1018.16L1007.22 1019.33L1004.61 1026.27L1002.77 1028.17L996.729 1030.78L994.386 1032.66L993.472 1033.02L992.355 1033.15L980.821 1029.07L964.349 1027.21L960.397 1025.55L959.424 1024.68L957.418 1022.17L956.913 1021.21L956.372 1018.81L956.589 1018.3L957.25 1018.05L958.031 1016.41L958.379 1016.15L958.944 1016.26L959.473 1016.1L959.69 1015L959.389 1013.93L958.692 1013.44L957.887 1013.11L957.299 1012.55L956.554 1011.11L954.62 1008.13L953.598 1007.02L945.776 1002.7L943.229 1000.58L941.115 998.925L938.904 997.713L934.224 996.45Z" stroke="#767676" stroke-width="0.5" stroke-linecap="round" stroke-linejoin="round"/>
<path d="M1132.59 633.495L1146.51 638.383L1147.83 639.266L1149.37 641.629L1150.22 642.464L1151.45 642.853L1161.11 640.509L1163.99 640.784L1164.25 642.037L1164.62 643.156L1170.49 653.182L1171.24 653.448L1174.46 653.353L1181.34 650.755L1183.27 651.03L1184.83 652.547L1186.34 655.429L1187.35 657.911L1187.99 660.44L1187.72 662.618L1186.05 663.982L1185.83 664.578L1185.73 665.165L1185.81 665.743L1186.05 666.292L1190.99 665.384L1198.2 658.386L1203.1 658.888L1206.78 661.71L1208.54 662.544L1210.5 662.089L1211.92 660.3L1212.76 657.96L1213.61 656.121L1215.12 655.799L1219.33 655.884L1223.13 656.86L1226.7 658.888L1236.6 669.407L1237.66 672.897L1234 674.401L1234.45 675.782V676.387L1234.12 676.898L1233.62 677.957L1233.44 678.883L1233.28 680.291L1233.29 681.369L1233.62 681.264L1232.62 682.662L1230.23 685.033L1229.14 686.572L1227.14 687.016L1223.42 685.977L1221.59 686.572L1220.69 688.932L1218.95 690.433L1216.91 691.65L1215.12 693.151L1214.48 693.406L1213.41 694.086L1212.7 694.152L1213.27 696.18L1213.48 696.737L1211.17 696.209L1210.25 699.104L1211.35 702.366L1215.12 703.035L1216.62 707.738L1217.17 708.792L1218.66 709.998L1219.52 709.81L1220.35 709.084L1221.7 708.641H1227L1228.11 708.99L1228.92 710.685L1229.01 712.38L1228.91 714.037L1229.21 715.627L1231.28 718.385L1236.46 720.285L1239.04 722.1L1240.71 724.46L1243.66 729.855L1245.35 732.147L1246.82 734.824L1250.34 738.504L1251.61 741.939L1252.93 748.129L1254.02 750.398L1256.06 753.078L1243.76 749.1L1243.15 749.409L1242.68 750.037L1242.33 750.917L1242.09 751.991L1241.91 754.455L1241.67 755.58L1240.99 756.45L1228.96 762.188L1228.3 762.759L1227.81 763.554L1227.27 765.826L1226.83 766.822L1226.26 767.643L1225.57 768.295L1223.97 769.134L1213.58 770.11L1211.78 770.842L1210.09 772.115L1205.59 768.218L1204.24 767.898L1203.7 767.512L1201.86 765.179L1201.41 764.794L1200.39 764.555L1199.07 763.859L1197.69 762.591L1196.54 760.878L1195.68 759.051L1194.97 758.514L1188.29 757.176L1187.38 756.49L1186.85 755.519L1186.61 754.356L1186.58 750.674L1186.46 749.701L1186.11 749.015L1185.47 748.537L1182.25 747.568L1177.4 747.654L1176.3 748.2L1168.9 755.493L1168.24 755.816L1167.75 755.663L1167.27 755.233L1166.82 754.562L1166 752.663L1164.93 747.985L1164.48 747.38L1163.87 747.128L1158.1 748.826L1157.36 749.706L1156.83 750.859L1155.29 755.783L1154.73 756.496L1153.98 756.739L1153.09 756.538L1148.36 753.3L1147.75 753.099L1144.2 754.161L1142.48 754.139L1137.95 751.891L1136.18 752.03L1133.93 753.158L1126.85 759.826L1125.96 759.896L1119.55 757.477L1119.89 756.967L1119.82 756.219L1119.37 755.085L1117.84 752.803L1116.72 751.449L1115.83 750.567L1113.97 749.273L1113.65 748.852L1113.36 748.28L1113.4 747.341L1113.58 746.799L1115.47 744.829L1115.96 744.107L1116.1 743.75L1116.25 743.337L1116.32 742.886L1116.09 741.873L1114.3 736.711L1113.8 734.777L1113.53 733.283L1113.51 730.823L1113.08 727.713L1112.74 726.684L1112.21 725.627L1111.26 724.752L1110.47 724.419L1109.63 724.359L1104.87 724.978L1101.69 724.217L1100.63 724.133L1098.49 724.613L1097.67 724.679L1096.82 724.599L1096.15 724.339L1095.52 723.643L1095.13 722.676L1094.8 720.589L1094.37 719.153L1093.38 717.54L1092.66 716.842L1091.93 716.364L1086.18 713.879L1085.87 713.653L1085.62 712.974L1085.46 711.768L1085.62 709.085L1086 707.62L1086.31 706.738L1087.32 705.364L1088.31 703.535L1088.7 702.506L1088.89 701.01L1088.79 699.222L1087.73 691.85L1087.5 691.062L1087.12 690.217L1086.33 688.774L1086.02 687.684L1086.09 686.238L1086.49 685.289L1086.58 685.194L1086.96 684.614L1087.32 683.968L1087.35 683.287L1087.12 682.588L1087.39 682.339L1087.74 682.141L1088.23 681.996L1088.9 681.98L1090.75 682.637L1097.18 688.064L1097.97 688.472L1098.69 688.556L1099.37 688.257L1104.4 682.571L1105.53 682.1L1106.78 682.089L1111.85 684.145L1114.08 685.944L1117.63 690.526L1119.37 692.023L1120.22 692.404L1121.03 692.495L1121.78 692.264L1122.48 691.682L1122.98 690.707L1123.25 689.412L1123.64 683.588L1124.01 682.612L1124.66 682.088L1127.65 681.059L1128.34 681.003L1129.01 681.123L1129.67 681.468L1132.1 684.075L1133.42 684.972L1142.33 686.551L1143.17 686.38L1143.83 685.84L1144.27 684.828L1144.46 683.603L1144.41 682.472L1144.17 681.406L1140.19 672.227L1140.04 671.524L1140 670.8L1140.82 666.893L1140.89 665.778L1140.84 664.671L1140.64 663.597L1140.29 662.578L1139.76 661.64L1138.33 659.796L1137.8 658.401L1137.46 656.747L1137.3 653.178L1137.45 651.523L1137.74 650.124L1138.17 649.114L1138.38 648.077L1138.11 646.63L1134.25 638.785L1132.59 633.495Z" stroke="#767676" stroke-width="0.5" stroke-linecap="round" stroke-linejoin="round"/>
<path d="M1297.88 699.814L1299.6 700.848L1302.29 700.528L1314.24 703.883L1315.51 704.665L1318.21 706.945L1319.7 707.737L1321.3 707.756L1324.85 707.021L1326.2 707.435L1325.95 707.944L1326.35 709.921L1327.07 712.275L1327.76 713.857L1328.91 715.099L1333 717.696L1335.77 718.496L1341.22 718.337L1343.62 719.362L1341.49 720.227L1341.81 720.914L1342.22 721.525L1342.7 722.052L1343.23 722.513L1343.08 724.883L1343.31 727.186L1344.12 729.056L1345.67 730.231L1346.93 726.904L1349.5 726.707L1351.33 737.443L1351.22 738.289L1350.89 739.232L1350.39 740.174L1349.76 741.019L1349.02 741.673L1348.21 742.04L1347.37 742.024L1345.76 741.004L1345.05 740.913L1344.41 741.17L1343.81 741.699L1341.14 745.637L1331.72 750.904L1330.18 752.694L1329.61 753.796L1329.24 755.057L1328.99 757.817L1328.7 758.799L1327.52 760.721L1327.26 761.368L1327.18 762.188L1328.5 767.532L1328.54 768.395L1328.4 769.209L1328.02 769.99L1321.1 779.72L1320.65 780.635L1320.35 781.615L1320.22 782.627L1320.27 783.637L1320.53 784.615L1321 785.532L1324.25 788.723L1324.52 789.235L1324.57 789.781L1324.36 790.389L1321.03 794.766L1320.68 795.661L1320.46 796.679L1319.91 803.242L1320.01 804.04L1320.3 804.727L1320.82 805.298L1322.33 805.985L1327.36 806.65L1327.86 806.991L1328.13 807.474L1328.45 809.303L1328.7 809.881L1329.18 810.364L1339.13 815.432L1339.94 815.457L1343.21 813.663L1344.03 813.532L1344.85 813.845L1353.79 823.523L1355.5 824.384L1361.39 824.708L1364.09 822.606L1364.72 822.317L1365.39 822.361L1369.65 825.232L1372.62 825.466L1376.83 824.067L1380.19 825.675L1382.88 827.998L1383.4 828.814L1383.59 829.597L1382.93 835.525L1383.04 836.703L1383.39 837.674L1384.03 838.355L1384.83 838.601L1385.59 838.44L1387.72 837.067L1388.39 836.841L1389.04 836.993L1389.7 837.682L1393.25 845.159L1394.02 845.972L1397.69 847.684L1400.79 850.385L1402.04 851.978L1402.47 852.935L1402.99 854.92L1403.21 857.188L1406.52 858.039L1408 859.204L1409.75 861.219L1408 865.918L1406.31 866.338L1404.88 866.2L1404.21 865.854L1403.12 864.587L1402.53 864.132L1401.92 863.899L1401.3 863.903L1400.7 864.157L1400.15 864.678L1399.67 865.484L1398.92 867.642L1398.49 868.349L1398.03 868.805L1396.59 869.607L1396.16 870L1395.8 870.613L1395.55 871.421L1395.43 872.301L1395.47 874.05L1395.8 875.979L1392.67 877.375L1382.45 875.303L1380.69 875.229L1379.37 875.4L1377.96 875.959L1377.53 876.329L1377.31 876.852L1377.48 877.573L1378.24 879.377L1378.53 880.522V881.318L1378.29 882.056L1377.91 882.602L1377.41 883.105L1376.7 883.396L1375.87 883.521L1367.59 883.354L1366.69 883.579L1364.68 884.411L1363.17 885.275L1362.57 885.767L1362.09 886.378L1361.53 887.374L1360.99 888.563L1360.41 889.552L1359.69 890.187L1359.01 890.428L1357.81 890.192L1352.82 887.936L1351.79 887.732L1349.34 886.391L1346.47 883.93L1344.68 883.256L1343.96 883.173L1341.77 882.888L1341.29 885.757L1341.11 888.812L1342.05 891.861L1343.05 893.12L1342.01 895.268L1341.62 895.77L1337.65 899.608L1337.01 900.411L1336.46 901.287L1336.08 901.709L1335.56 901.967L1335.18 901.995L1334.71 901.903L1327.13 902.088L1326.32 902.327L1325.8 902.966L1325.48 903.886L1324.97 907.162L1324.68 908.041L1324.19 908.608L1323.61 908.81L1323.09 908.717L1322.65 908.414L1322.27 907.981L1321.76 907.057L1321.64 906.77L1321.73 906.454L1321.86 905.616L1321.9 904.598L1321.7 903.302L1320.32 900.079L1318.14 896.827L1315.77 894.542L1311.42 893.185L1309.49 892.048L1308.83 891.244L1308.47 890.252L1308.65 886.765L1308.49 885.862L1308.21 885.093L1307.83 884.442L1302.43 879.174L1301.84 878.215L1301.45 877.304L1300.67 873.135L1299.63 870.431L1298.21 868.171L1297.38 867.431L1292.85 865.544L1291.7 865.484L1290.72 865.732L1289.97 866.358L1289.54 867.431L1289.33 869.571L1289.41 870.333L1289.58 870.955L1291.7 874.507L1292.52 876.614L1292.8 877.761L1292.92 878.908L1292.83 880.007L1292.48 881.012L1291.13 883.14L1289.25 885.22L1288.23 885.994L1287.19 886.452L1286.2 886.499L1279.88 881.581L1279.31 880.667L1279.22 879.799L1279.73 879.001L1280.48 878.224L1281.03 877.399L1281.39 876.527L1281.57 875.607L1281.58 874.64L1281.43 873.627L1278.54 866.236L1278.24 865.033L1278.18 864.026L1278.43 863.29L1279.74 862.644L1280.05 862.263L1280.05 861.775L1279.77 861.201L1274.81 856.257L1273.23 853.579L1272.79 852.322L1272.69 851.278L1273.02 850.565L1273.84 850.301L1277.54 851.188L1278.24 850.995L1278.87 850.305L1279.42 848.953L1279.89 846.774L1281.05 845.56L1281.75 842.853L1282.07 839.254L1282.34 837.974L1285.93 834.25L1285.07 828.149L1283.91 826.403L1282.04 825.688L1281.44 825.045L1281.01 824.037L1280.7 821.011L1275.89 811.209L1274.03 808.403L1273.36 807.09L1273.12 805.567L1273.31 804.145L1275.19 800.092L1275.02 795.757L1275.13 790.889L1275.02 789.796L1274.16 786.344L1273.69 782.311L1273.47 781.423L1273.15 780.593L1272.33 779.2L1272.26 778.34L1272.64 777.368L1274.63 776.218L1275.06 776.051L1275.76 775.574L1278.14 773.009L1281.71 770.446L1282.24 769.945L1282.56 769.3L1282.74 768.588L1282.65 767.367L1282.51 766.726L1281.77 764.771L1281.93 762.871L1284.85 753.029L1289.25 741.772L1290.56 741.439L1291.65 740.463L1293.58 737.769L1294.98 736.802L1296 736.765L1298.15 737.535L1299.19 737.46L1299.48 736.793L1299.46 734.595L1299.78 734.097L1301.49 734.126L1302.18 734.605L1302.72 735.703L1303.96 737.562L1305.37 738.097L1306.11 736.549L1305.88 734.154L1304.37 732.145L1304.2 727.728L1302.98 724.467L1300.86 722.135L1298.03 720.471L1295.85 718.222L1294.71 714.694L1293.85 710.815L1292.52 707.481L1288.8 701.968L1288.79 699.423L1291.95 697.5L1294.6 697.839L1297.88 699.814Z" stroke="#767676" stroke-width="0.5" stroke-linecap="round" stroke-linejoin="round"/>
<path d="M1256.06 753.078L1260.06 756.778L1264.94 759.316L1269.66 758.97L1273.24 754.071L1275.83 752.197L1277.24 750.182L1278.51 747.726L1280.6 744.556L1283.2 742.314L1285.51 741.976L1287.84 742.136L1289.26 741.774L1284.85 753.031L1281.93 762.873L1281.77 764.773L1282.51 766.729L1282.65 767.369L1282.74 768.591L1282.56 769.302L1282.24 769.947L1281.72 770.448L1278.14 773.011L1275.76 775.576L1275.06 776.053L1274.63 776.22L1272.64 777.37L1272.26 778.342L1272.33 779.203L1273.15 780.595L1273.47 781.426L1273.69 782.314L1274.16 786.347L1275.02 789.799L1275.13 790.892L1275.02 795.759L1275.19 800.094L1273.31 804.147L1273.13 805.57L1273.37 807.093L1274.03 808.406L1275.89 811.212L1280.71 821.013L1281.01 824.039L1281.44 825.047L1282.04 825.69L1283.91 826.405L1285.07 828.151L1285.93 834.252L1282.35 837.976L1282.08 839.256L1281.75 842.855L1281.05 845.562L1279.89 846.776L1278.63 847.054L1272.8 844.097L1270.08 843.143L1267.18 842.873L1263.26 843.157L1262.2 843.031L1260.75 842.326L1259.87 842.098L1253.66 842.121L1252.65 842.543L1252.06 843.328L1251.91 844.834L1251.7 846.007L1251.32 846.74L1250.29 847.592L1236.51 848.935L1233.71 848.685L1231.44 847.985L1226.68 844.902L1222.59 843.406L1221.34 842.514L1220.52 841.331L1219.79 839.996L1218.74 838.689L1217.23 837.409L1212.86 834.502L1209.43 832.775L1207.09 832.066L1204.09 831.926L1201.59 832.172L1200.32 831.884L1199.46 831.262L1199.08 830.469L1198.74 829.549L1197.91 828.708L1196.61 827.993L1193.94 827.422L1192.21 826.808L1190.64 826.014L1189.01 824.9L1188.22 824.574L1187.52 824.564L1187.03 825.01L1186.76 825.474L1186.2 826.924L1185.78 827.632L1185.25 828.04L1183.95 828.512L1183.39 828.824L1181.6 830.865L1180.46 831.58L1179.38 831.593L1178.1 831.237L1176.52 830.549L1175.5 830.642L1174.67 831.064L1171.73 830.276L1169.9 826.556L1168.31 824.404L1166.41 822.888L1163.4 821.418L1162.96 820.971L1162.67 820.35L1162.42 818.535L1162 817.713L1161.38 817.017L1159.77 816.005L1156.65 815.262L1151.35 811.107L1149.31 810.545L1140.45 811.261L1139.78 810.898L1138.55 809.527L1135.55 804.627L1133.31 801.979L1128.28 798.635L1128.44 797.19L1128.91 795.328L1129.49 793.617L1129.76 792.565L1129.89 791.575L1129.96 787.964L1130.03 787.185L1130.18 786.657L1130.48 786.008L1130.74 785.103L1130.57 784.212L1129.49 782.914L1128.64 782.213L1127.83 781.793L1126.3 781.355L1125.36 780.681L1121.12 776.59L1120.31 776.058L1116.35 774.768L1113.63 773.002L1112.79 772.141L1111.45 770L1112.02 769.12L1114.17 768.073L1116.53 767.474L1117.57 767.52L1117.78 765.658L1117.84 765.022L1117.8 764.395L1117.37 762.345L1117.24 761.432V760.478L1117.37 759.872L1117.64 759.339L1119.55 757.479L1125.96 759.898L1126.85 759.828L1133.93 753.161L1136.18 752.033L1137.95 751.894L1142.49 754.141L1144.2 754.163L1147.75 753.101L1148.36 753.302L1153.09 756.54L1153.98 756.741L1154.73 756.498L1155.29 755.785L1156.83 750.861L1157.36 749.709L1158.1 748.828L1163.87 747.13L1164.48 747.383L1164.93 747.987L1166 752.666L1166.82 754.564L1167.27 755.235L1167.75 755.665L1168.24 755.818L1168.9 755.495L1176.31 748.203L1177.4 747.657L1182.25 747.571L1185.47 748.539L1186.11 749.017L1186.46 749.703L1186.58 750.676L1186.61 754.358L1186.85 755.521L1187.38 756.493L1188.29 757.178L1194.97 758.516L1195.68 759.054L1196.54 760.88L1197.69 762.594L1199.07 763.861L1200.39 764.558L1201.41 764.797L1201.86 765.181L1203.7 767.515L1204.25 767.9L1205.59 768.22L1210.09 772.117L1211.78 770.845L1213.58 770.113L1223.97 769.137L1225.57 768.297L1226.26 767.645L1226.83 766.824L1227.27 765.828L1227.81 763.556L1228.3 762.762L1228.96 762.19L1240.99 756.452L1241.67 755.582L1241.91 754.458L1242.09 751.993L1242.33 750.92L1242.68 750.039L1243.15 749.411L1243.76 749.102L1256.06 753.078Z" stroke="#767676" stroke-width="0.5" stroke-linecap="round" stroke-linejoin="round"/>
<path d="M1349.5 726.706L1352.04 728.764L1353.12 732.146L1353.71 732.54L1354.33 732.681L1354.94 732.55L1355.55 732.146L1358.96 727.993L1364.5 727.485L1374.89 729.327L1377.58 728.622L1379.58 726.986L1383.03 722.201L1383.67 720.715L1383.97 719.474L1384.73 718.984L1386.7 719.718L1387.35 720.33L1389.49 723.226L1389.78 723.639L1389.84 724.128L1389.75 724.673L1389.49 725.246L1388.23 728.648L1388 730.312L1388.26 732.144L1389.49 733.365L1391.3 736.727L1390.21 739.477L1387.86 741.523L1382.91 744.497L1379.81 745.716L1374.2 745.932L1372.92 746.579L1372.07 748.407L1372.31 749.729L1377.96 756.897L1379.77 757.722L1380.95 757.506L1381.93 756.935L1383.17 756.645L1384.7 757.057L1387.86 758.63L1389.49 758.976L1389.54 759.153L1389.56 759.322L1389.54 759.463L1389.49 759.593L1388.41 760.52L1388.04 761.513L1388.4 762.551L1389.49 763.646L1390.78 765.191L1391.57 767.193L1392.22 769.429L1393.13 771.589L1394.44 773.403L1401.97 780.917L1406.2 781.813L1410.43 780.524L1413.86 777.46L1415.97 776.908L1420.63 776.768L1424.42 775.637L1425.01 774.843L1424.8 773.038L1423.99 771.785L1422.99 771.757L1422.06 772.047L1421.45 771.786L1420.93 767.689L1422.87 768.173L1424.52 768.586L1431.3 773.038L1430.55 776.375L1432.06 778.132L1439.49 779.543L1441.25 780.523L1444.92 783.689L1446.28 784.305L1449.01 784.875L1450.39 785.902L1450.89 786.892L1451.69 789.691L1452.34 790.914L1454.65 792.808L1456.33 792.472L1459.59 789.627L1459.45 789.319L1459.3 789.114L1459.09 789.011H1458.84L1463.53 788.432L1468.02 790.037L1476.66 794.822L1479.36 794.812L1483.94 791.874L1485.66 792.919L1486.38 796.193L1486.09 798.962L1486.6 801.171L1489.68 802.839L1486.49 806.555L1486.54 811.387L1488.55 816.858L1491.29 822.512L1492.46 827.744L1493.19 829.091L1494.74 830.178L1498.32 830.493L1499.98 830.994L1501.49 832.239L1503.78 834.941L1505.24 835.823L1506.94 835.684L1508.75 834.895L1510.56 834.579L1512.31 835.879L1512.79 837.28L1513.57 843.459L1514.11 845.184L1515.48 848.317L1516 849.939L1517.66 857.581L1518 861.284L1517.51 864.273L1512.75 864.402L1510.58 865.235L1505.81 869.638L1502.55 869.823L1499.19 868.787L1495.38 866.863L1494.57 866.697L1493.77 866.863L1490.45 868.62L1485.31 867.871L1482.92 869.388L1482.32 870.858L1482.03 874.186L1481.44 875.757L1480.48 876.736L1476.66 878.796L1471.71 884.871L1469.1 886.588L1465.71 885.822L1465.64 887.987L1464.36 887.957L1463.69 887.681L1463.05 887.192L1462.49 886.439L1462.07 885.362L1461.15 880.253L1460.8 879.112L1460.29 878.104L1459.57 877.271L1457.57 876.002L1456.79 875.118L1454.37 869.919L1453.79 869.272L1451.79 868.508L1442.96 868.649L1442.17 868.358L1438.67 865.865L1437.58 865.417L1419.45 867.214L1418.48 867.008L1417.66 866.581L1417.02 865.928L1416.56 865.036L1416.08 862.822L1415.75 862.065L1415.35 861.577L1414.88 861.302L1409.76 861.217L1408.02 859.202L1406.53 858.037L1403.22 857.186L1403 854.918L1402.49 852.933L1402.05 851.976L1400.81 850.383L1397.7 847.682L1394.04 845.97L1393.27 845.157L1389.71 837.68L1389.06 836.991L1388.4 836.839L1387.73 837.065L1385.6 838.438L1384.84 838.599L1384.04 838.353L1383.4 837.672L1383.05 836.701L1382.95 835.523L1383.61 829.596L1383.42 828.812L1382.9 827.996L1380.2 825.673L1376.85 824.065L1372.63 825.464L1369.66 825.23L1365.41 822.359L1364.73 822.316L1364.11 822.604L1361.41 824.706L1355.51 824.382L1353.8 823.521L1344.86 813.843L1344.04 813.53L1343.23 813.661L1339.96 815.455L1339.14 815.43L1329.19 810.362L1328.72 809.879L1328.47 809.301L1328.15 807.472L1327.87 806.989L1327.37 806.648L1322.34 805.983L1320.83 805.296L1320.31 804.725L1320.03 804.038L1319.93 803.24L1320.47 796.677L1320.69 795.659L1321.04 794.764L1324.38 790.387L1324.59 789.779L1324.53 789.233L1324.26 788.721L1321.01 785.53L1320.54 784.613L1320.29 783.635L1320.23 782.625L1320.36 781.613L1320.66 780.633L1321.11 779.718L1328.03 769.989L1328.41 769.207L1328.55 768.393L1328.51 767.53L1327.19 762.186L1327.27 761.366L1327.54 760.719L1328.72 758.797L1329 757.815L1329.25 755.055L1329.63 753.794L1330.19 752.692L1331.73 750.902L1341.15 745.635L1343.83 741.697L1344.42 741.168L1345.07 740.911L1345.77 741.002L1347.39 742.022L1348.22 742.038L1349.03 741.671L1349.77 741.017L1350.41 740.172L1350.91 739.23L1351.23 738.287L1351.35 737.441L1349.5 726.706Z" stroke="#767676" stroke-width="0.5" stroke-linecap="round" stroke-linejoin="round"/>
<path d="M1298 1025.02L1293.99 1020.34L1292.38 1008.69L1289.63 1004.81L1287.72 1004.67L1283.25 1006.26L1281.01 1006.53L1278.88 1005.73L1274.67 1002.94L1272.89 1002.33L1268.47 1002.51L1266.62 1002.18L1265.1 1001.11L1264.25 999.022L1263.82 996.489L1262.91 994.364L1260.69 993.461L1258.53 993.207L1251.59 991.182L1249.61 989.905L1248.54 989.54L1247.47 989.685L1245.37 990.58L1244.17 990.634L1240.81 990.141L1238.8 991.491L1232.9 1001.63L1231.62 1002.82L1229.8 1003.36L1229.15 1003.15L1227.61 1001.89L1225.19 1002.25L1225.06 1002.37L1208.81 999.96L1198.06 1000.61L1191.9 997.928L1180.21 989.394L1180.04 988.519V987.297L1179.43 986.539L1177.46 987.05L1177.34 985.188L1176.48 984.395L1175.17 984.34L1173.7 984.687L1174.89 983.108L1173.92 983.171L1173.05 982.778L1171.78 981.847L1169.55 981.682L1168.76 981.344L1168.19 980.44L1167.72 978.267L1167.04 977.755L1163.49 977.765L1162.48 978.011L1158.35 980.203L1156.39 980.823H1153.71L1151.1 980.203L1142.08 975.097L1135.15 972.399L1135.16 972.355L1135.45 970.682L1135.94 969.621L1136.37 968.204L1138.14 963.723L1138.7 961.872V961.144L1139.03 960.337L1139.56 959.846L1140.25 959.667L1141.04 959.801L1141.89 960.243L1142.74 960.988L1144.93 964.468L1145.61 964.853L1146.27 964.711L1146.88 964.211L1147.82 962.82L1148.18 962.052L1148.99 961.072L1150.21 960.107L1150.94 959.811L1151.73 959.765L1152.55 960.061L1156.04 963.101L1156.71 963.328L1157.43 963.229L1165.84 955.577L1169.11 954.081L1173.14 954.471L1173.89 954.081L1174.46 953.317L1175.06 950.829L1175.51 949.99L1176.07 949.493L1176.69 949.263L1177.78 949.282L1178.27 949.429L1181.27 945.693L1182.13 945.219L1182.9 945.292L1183.5 946.102L1184.01 947.17L1184.57 947.919L1185.18 948.405L1186.57 948.797L1190.05 948.65L1190.77 948.358L1192.84 946.8L1193.36 946.663L1201.38 947.984L1202.58 947.559L1203.55 946.768L1205.96 943.176L1206.43 942.745L1214.61 940.106L1217.15 936.99L1217.95 935.248L1218.14 934.392L1218.15 933.567L1217.94 932.79L1217 930.507L1216.85 929.708L1216.86 928.878L1217.08 928.012L1217.57 927.096L1219.19 925.129L1219.71 924.156L1219.96 923.23L1219.95 922.374L1219.72 921.612L1219.29 920.967L1218.69 920.463L1217.24 919.725L1216.76 919.069L1216.47 918.211L1216.36 917.202L1216.52 914.961L1217.06 912.782L1217.48 911.955L1218.04 911.416L1220.5 910.434L1220.85 910.051L1220.99 909.442L1220.91 908.775L1220.72 908.231L1219.9 906.728L1219.7 906.061L1219.61 905.205L1219.68 904.097L1219.94 902.878L1220.37 901.736L1221.59 899.752L1223.05 898.269L1233.19 892.06L1233.66 891.189L1233.78 890.114L1233.64 888.882L1231.45 882.014L1231.22 880.728L1230.96 872.575L1230.28 870.18L1230.33 869.347L1230.65 868.751L1231.18 868.351L1234.66 867.726L1235.12 867.165L1235.45 866.338L1235.65 865.331L1235.7 864.227L1235.6 863.116L1235.35 862.085L1234.94 861.217L1231.74 858.029L1231.44 857.25L1231.46 856.313L1232.91 852.739L1233.45 850.664L1233.71 848.678L1236.51 848.929L1250.29 847.585L1251.32 846.733L1251.69 846.001L1251.91 844.828L1252.06 843.322L1252.65 842.537L1253.66 842.115L1259.87 842.092L1260.75 842.32L1262.2 843.024L1263.26 843.151L1267.18 842.867L1270.08 843.137L1272.8 844.091L1278.62 847.048L1279.89 846.77L1279.42 848.949L1278.87 850.301L1278.24 850.991L1277.54 851.184L1273.84 850.297L1273.02 850.561L1272.69 851.274L1272.79 852.318L1273.23 853.575L1274.81 856.252L1279.77 861.197L1280.04 861.771L1280.05 862.259L1279.74 862.64L1278.43 863.286L1278.18 864.022L1278.24 865.029L1278.54 866.232L1281.43 873.623L1281.58 874.636L1281.57 875.603L1281.39 876.523L1281.03 877.395L1280.48 878.22L1279.73 878.997L1279.22 879.795L1279.31 880.663L1279.88 881.577L1286.2 886.495L1287.19 886.448L1288.22 885.99L1289.25 885.216L1291.13 883.136L1292.48 881.008L1292.83 880.003L1292.92 878.904L1292.8 877.757L1292.52 876.61L1291.7 874.503L1289.58 870.95L1289.4 870.329L1289.33 869.566L1289.54 867.427L1289.97 866.353L1290.72 865.728L1291.7 865.48L1292.85 865.54L1297.38 867.427L1298.21 868.167L1299.63 870.427L1300.67 873.131L1301.45 877.3L1301.84 878.211L1302.42 879.169L1307.82 884.438L1308.21 885.089L1308.49 885.858L1308.65 886.761L1308.47 890.248L1308.83 891.24L1309.49 892.044L1311.42 893.181L1315.77 894.538L1318.14 896.822L1320.32 900.075L1321.7 903.298L1321.9 904.594L1321.86 905.612L1321.73 906.45L1321.64 906.766L1321.53 907.158L1319.62 910.606L1319.34 911.758L1319.45 913.251L1320.47 916.74L1322.05 920.04L1323.54 922.12L1326.59 923.933L1327.08 924.441L1327.49 925.148L1327.79 926.121L1327.86 927.156L1327.63 928.02L1327.15 928.731L1325.7 929.769L1322.55 930.941L1321.98 931.487L1318.97 935.803L1317.2 937.403L1316.98 938.238L1317.24 939.073L1317.86 939.861L1318.74 940.556L1320.86 941.476L1322.88 941.504L1328.55 939.554L1329.42 939.612L1330.08 940.061L1330.4 940.945L1330.48 942.147L1330.17 947.655L1330.4 948.594L1330.87 949.276L1331.51 949.841L1336.29 952.084L1343.48 953.58L1344.04 953.958L1344.48 954.647L1345.08 956.508L1345.44 959.061L1349.56 960.813L1351.64 962.493L1352.9 964.421L1353.65 964.866L1354.51 964.962L1355.42 964.789L1359.11 962.781L1362.54 963.244L1365.21 964.318L1365.65 964.758L1366.41 966.033L1366.99 967.682L1367.35 969.517L1367.7 970.3L1368.45 970.839L1374.75 972.713L1375.85 973.496L1376.75 974.615L1377.52 976.021L1378.63 979.151L1379.49 983.142L1366.59 988.231L1362.34 987.565L1358.78 983.797L1357.09 982.976L1354.33 983.788L1352.19 985.19L1349.93 986.681L1347.91 987.064L1334.65 980.319L1329.06 978.858L1323.86 979.972L1317.61 984.536L1316.55 986.179L1315.87 989.509L1314.2 991.635L1310.2 995.108L1307.34 999.993L1301.46 1016.98L1300.13 1019.43L1298.29 1021.68L1298 1025.02Z" stroke="#767676" stroke-width="0.5" stroke-linecap="round" stroke-linejoin="round"/>
<path d="M1462.68 896.457L1458.38 899.835L1442.73 905.951L1439.31 909.201L1436.51 913.765L1434.34 919.192L1432.86 925.028L1432.44 929.795L1432.46 930.865L1432.61 938.8L1431.84 942.698L1429.42 946.796L1426 949.994L1422.14 951.771L1415.9 951.286L1413.09 951.725L1410.65 953.301L1409.12 956.396L1408.4 959.022L1407.49 964.503L1406.55 966.927L1404.41 969.02L1402.18 969.149L1399.73 968.728L1396.87 969.222L1395 970.786L1390.99 977.712L1388.93 979.42L1379.49 983.147L1378.63 979.157L1377.52 976.026L1376.76 974.62L1375.85 973.502L1374.75 972.719L1368.45 970.844L1367.7 970.306L1367.35 969.523L1366.99 967.687L1366.41 966.039L1365.65 964.763L1365.21 964.324L1362.54 963.25L1359.11 962.787L1355.42 964.794L1354.51 964.967L1353.65 964.872L1352.9 964.427L1351.64 962.499L1349.56 960.818L1345.44 959.067L1345.08 956.514L1344.48 954.653L1344.04 953.963L1343.48 953.585L1336.29 952.09L1331.51 949.846L1330.87 949.281L1330.4 948.599L1330.18 947.66L1330.48 942.152L1330.41 940.951L1330.08 940.066L1329.43 939.618L1328.55 939.559L1322.89 941.51L1320.87 941.482L1318.74 940.561L1317.86 939.866L1317.24 939.078L1316.99 938.243L1317.2 937.409L1318.97 935.809L1321.98 931.492L1322.55 930.946L1325.7 929.775L1327.15 928.736L1327.63 928.026L1327.86 927.162L1327.79 926.126L1327.49 925.153L1327.08 924.446L1326.59 923.938L1323.54 922.125L1322.05 920.046L1320.48 916.745L1319.45 913.256L1319.34 911.764L1319.62 910.611L1321.53 907.164L1321.64 906.772L1321.76 907.059L1322.27 907.983L1322.65 908.415L1323.1 908.719L1323.61 908.811L1324.19 908.609L1324.68 908.042L1324.98 907.169L1325.49 903.892L1325.8 902.972L1326.33 902.334L1327.14 902.095L1334.71 901.909L1335.18 902.002L1335.56 901.974L1336.08 901.716L1336.46 901.293L1337.02 900.418L1337.65 899.615L1341.62 895.776L1342.02 895.275L1343.06 893.126L1342.05 891.868L1341.11 888.818L1341.3 885.763L1341.78 882.895L1343.96 883.179L1344.68 883.263L1346.47 883.937L1349.34 886.398L1351.8 887.739L1352.82 887.943L1357.81 890.199L1359.01 890.435L1359.7 890.194L1360.42 889.559L1360.99 888.57L1361.53 887.381L1362.09 886.385L1362.58 885.774L1363.17 885.281L1364.69 884.418L1366.69 883.586L1367.59 883.361L1375.87 883.528L1376.7 883.402L1377.41 883.111L1377.91 882.609L1378.29 882.063L1378.53 881.325V880.529L1378.24 879.384L1377.48 877.58L1377.31 876.858L1377.53 876.336L1377.96 875.966L1379.37 875.406L1380.69 875.235L1382.46 875.31L1392.67 877.382L1395.8 875.985L1395.47 874.056L1395.43 872.308L1395.55 871.428L1395.8 870.619L1396.16 870.006L1396.59 869.613L1398.03 868.811L1398.5 868.356L1398.92 867.648L1399.67 865.491L1400.15 864.685L1400.7 864.164L1401.3 863.91L1401.92 863.905L1402.53 864.139L1403.12 864.594L1404.21 865.861L1404.88 866.207L1406.32 866.345L1408.01 865.925L1409.75 861.226L1414.87 861.311L1415.34 861.586L1415.74 862.073L1416.07 862.831L1416.55 865.045L1417.01 865.936L1417.65 866.589L1418.46 867.016L1419.44 867.223L1437.57 865.425L1438.66 865.874L1442.16 868.366L1442.95 868.657L1451.78 868.516L1453.78 869.281L1454.36 869.928L1456.78 875.127L1457.56 876.011L1459.56 877.28L1460.28 878.113L1460.79 879.121L1461.13 880.262L1462.06 885.37L1462.48 886.447L1463.04 887.201L1463.68 887.689L1464.35 887.965L1465.63 887.996L1465.42 894.308L1462.68 896.457Z" stroke="#767676" stroke-width="0.5" stroke-linecap="round" stroke-linejoin="round"/>
<path d="M1233.71 848.683L1233.45 850.669L1232.91 852.743L1231.46 856.318L1231.44 857.254L1231.74 858.034L1234.94 861.222L1235.35 862.089L1235.6 863.121L1235.7 864.232L1235.65 865.335L1235.45 866.342L1235.12 867.17L1234.66 867.731L1231.18 868.356L1230.65 868.755L1230.33 869.351L1230.28 870.185L1230.96 872.579L1231.22 880.732L1231.45 882.019L1233.64 888.886L1233.78 890.119L1233.66 891.193L1233.19 892.064L1223.05 898.274L1221.59 899.757L1220.37 901.741L1219.94 902.882L1219.68 904.102L1219.61 905.21L1219.7 906.066L1219.9 906.733L1220.72 908.236L1220.91 908.78L1220.99 909.447L1220.85 910.055L1220.5 910.439L1218.04 911.421L1217.48 911.96L1217.06 912.787L1216.53 914.966L1216.36 917.207L1216.47 918.216L1216.76 919.074L1217.24 919.729L1218.69 920.468L1219.29 920.972L1219.72 921.617L1219.95 922.378L1219.96 923.234L1219.71 924.161L1219.19 925.134L1217.57 927.101L1217.08 928.016L1216.86 928.883L1216.85 929.712L1217 930.511L1217.94 932.795L1218.15 933.571L1218.14 934.397L1217.95 935.253L1217.15 936.995L1214.61 940.111L1206.43 942.749L1205.96 943.181L1203.55 946.773L1202.58 947.564L1201.38 947.989L1193.36 946.668L1192.84 946.805L1190.77 948.363L1190.05 948.655L1186.57 948.802L1185.18 948.41L1184.57 947.924L1184.01 947.174L1183.5 946.107L1182.9 945.296L1182.13 945.224L1181.27 945.698L1178.27 949.434L1177.78 949.287L1176.69 949.268L1176.08 949.497L1175.51 949.994L1175.06 950.833L1174.47 953.322L1173.89 954.086L1173.14 954.476L1169.11 954.086L1165.84 955.581L1157.43 963.234L1156.71 963.333L1156.04 963.106L1152.55 960.066L1151.73 959.769L1150.94 959.816L1150.21 960.111L1148.99 961.077L1148.19 962.057L1147.82 962.825L1146.88 964.216L1146.27 964.716L1145.61 964.858L1144.93 964.473L1142.74 960.993L1141.89 960.247L1141.04 959.805L1140.25 959.672L1139.56 959.851L1139.03 960.342L1138.7 961.149L1138.59 960.522L1138.02 959.612L1137.49 959.109L1136.94 958.753L1135.58 958.459L1133.74 958.313L1132.93 958.13L1132.21 957.63L1131.78 956.84L1131.27 955.639L1130.91 955.204L1130.51 955.038H1130.15L1129.93 954.961L1129.78 954.513L1129.68 953.788L1129.93 952.369L1130.15 951.682L1130.64 950.977L1134.42 946.497L1135 945.313L1135.25 944.448L1135.38 943.176L1135.51 942.397L1135.78 941.687L1136.08 941.386L1136.7 941.271L1139.26 941.105L1140.05 940.909L1140.65 940.593L1141.14 940.217L1141.44 939.796L1141.46 939.318L1141.24 938.683L1140.51 937.702L1134.98 932.24L1134.55 931.947L1134.16 931.92L1133.67 932.029L1129.16 933.838L1127.5 933.957L1122.02 932.952L1121.49 932.975L1119.55 933.325L1119 933.213L1118.57 932.966L1113.05 927.705L1112.47 926.941L1112.1 925.738L1111.81 924.157L1111.57 921.264L1111.11 919.761L1110.46 918.837L1109.46 918.442L1103.8 917.779L1102.48 917.412L1101.99 917.089L1095.88 913.884L1095.16 913.842L1094.51 914.041L1093.93 914.46L1091.89 917.561L1091.4 917.911L1090.89 917.932L1086.22 914.882L1083.16 910.789L1079.82 908.559L1077.22 906.011L1075.34 904.922L1074.34 904.824L1073.33 905.181L1071.33 907.032L1070.29 907.371L1069.23 907.225L1067.02 905.88L1062.66 901.795L1062.05 900.869L1061.72 899.971L1061.6 899.09L1061.87 895.411L1061.79 894.551L1061.58 893.927L1061.25 893.459L1059.33 891.586L1058.82 890.727L1058.52 889.633L1058.55 888.375L1061 878.672L1061.09 875.384L1060.78 872.471L1059.05 866.216L1059.35 865.507L1060.02 865.051L1064.12 863.855L1064.92 863.241L1065.34 862.444L1065.34 861.6L1065.05 860.755L1064.57 859.957L1062.92 858.183L1063.86 857.783L1065.22 856.561L1065.72 855.687L1066.04 854.858L1066.22 854.256L1066.6 853.58L1066.93 853.228L1069.16 852.038L1069.49 851.654L1069.59 851.161L1069.34 850.115L1069.27 849.688L1069.32 849.215L1069.52 848.807L1069.85 848.501L1070.39 848.363L1071.35 848.432L1075.92 850.465L1077.2 850.53L1078.8 850.327L1081.54 849.521L1084.91 849.604L1086.84 850.401L1090.16 849.881L1099.27 845.478L1099.56 843.307L1099.25 841.346L1098.66 839.783L1098.06 838.805L1097.4 838.057L1092.16 834.123L1091.62 833.389L1091.42 832.609L1091.76 831.315L1092.32 830.326L1094.97 827.269L1095.95 825.876L1096.24 825.155L1096.41 824.436L1096.56 823.653L1096.81 822.893L1097.19 822.261L1097.68 821.662L1098.17 821.219L1098.31 821.143L1099.11 820.893L1099.47 820.913L1099.74 821.005L1100.17 821.34L1101.18 821.944L1101.81 822.075L1102.35 822.079L1102.76 821.969L1107.53 819.136L1111.57 817.543L1115.72 813.844L1116.42 813.445L1116.86 813.435L1117.49 813.612L1119.4 813.882L1120.97 813.598L1121.96 813.116L1122.62 812.506L1123.06 811.835L1123.33 811.08L1123.78 808.195L1123.97 807.44L1124.2 806.714L1124.4 806.286L1124.76 805.656L1125.17 805.042L1126.04 804.123L1126.41 803.864L1127.62 803.427L1128.06 802.937L1128.22 802.028L1128.18 800.125L1128.27 798.635L1133.31 801.98L1135.54 804.628L1138.54 809.528L1139.77 810.899L1140.45 811.261L1149.31 810.545L1151.34 811.107L1156.64 815.262L1159.76 816.006L1161.37 817.018L1162 817.714L1162.42 818.536L1162.67 820.351L1162.95 820.971L1163.4 821.418L1166.41 822.888L1168.3 824.404L1169.89 826.556L1171.72 830.277L1174.67 831.065L1175.5 830.642L1176.51 830.55L1178.09 831.237L1179.37 831.594L1180.46 831.58L1181.59 830.865L1183.38 828.825L1183.94 828.513L1185.24 828.041L1185.78 827.632L1186.19 826.925L1186.75 825.475L1187.02 825.011L1187.51 824.565L1188.21 824.574L1189 824.9L1190.63 826.014L1192.2 826.809L1193.93 827.423L1196.6 827.993L1197.9 828.708L1198.73 829.549L1199.07 830.469L1199.45 831.262L1200.32 831.885L1201.58 832.173L1204.09 831.926L1207.08 832.067L1209.43 832.775L1212.85 834.502L1217.22 837.409L1218.73 838.689L1219.78 839.997L1220.52 841.332L1221.34 842.515L1222.58 843.406L1226.67 844.903L1231.44 847.985L1233.71 848.683Z" stroke="#767676" stroke-width="0.5" stroke-linecap="round" stroke-linejoin="round"/>
<path d="M1128.28 798.63L1128.19 800.12L1128.22 802.022L1128.06 802.931L1127.63 803.421L1126.42 803.859L1126.04 804.118L1125.18 805.037L1124.76 805.651L1124.4 806.28L1124.2 806.708L1123.97 807.435L1123.78 808.189L1123.34 811.075L1123.06 811.829L1122.63 812.5L1121.96 813.11L1120.97 813.592L1119.4 813.877L1117.49 813.606L1116.86 813.43L1116.42 813.439L1115.72 813.839L1111.58 817.537L1107.53 819.13L1102.77 821.963L1102.35 822.074L1101.81 822.069L1101.18 821.939L1100.17 821.334L1099.74 821L1099.47 820.907L1099.11 820.887L1098.32 821.138L1098.17 821.213L1097.69 821.656L1097.19 822.255L1096.82 822.887L1096.56 823.648L1096.42 824.43L1096.24 825.15L1095.95 825.871L1094.98 827.263L1092.33 830.32L1091.77 831.309L1091.43 832.604L1091.63 833.383L1092.17 834.117L1097.41 838.052L1098.07 838.799L1098.66 839.778L1099.25 841.34L1099.56 843.302L1099.27 845.473L1090.16 849.875L1086.84 850.396L1084.92 849.598L1081.54 849.515L1078.8 850.322L1077.21 850.524L1075.93 850.46L1071.35 848.427L1070.39 848.358L1069.85 848.496L1069.53 848.802L1069.33 849.209L1069.27 849.682L1069.35 850.109L1069.6 851.155L1069.49 851.648L1069.17 852.033L1066.93 853.222L1066.61 853.575L1066.23 854.25L1066.05 854.853L1065.72 855.681L1065.22 856.555L1063.86 857.778L1062.92 858.177L1062.17 858.288L1061.63 858.075L1061.1 857.743L1060.56 857.261L1059.97 856.603L1059.48 855.87L1059.12 855.07L1058.76 853.934L1058.48 853.351L1057.71 852.851L1056.3 852.35L1054.07 852.758L1052.9 852.648L1052.3 852.276L1052.25 851.118L1052.18 850.637L1051.78 849.959L1051.14 849.413L1047.7 848.358L1047.09 848.005L1046.71 847.615L1045.88 846.477L1045.24 845.799L1044.79 845.698L1044.23 845.893L1042.81 847.126L1042.45 847.551L1041.96 848.275L1041.24 849.749L1041.13 850.259L1041.06 850.814L1040.77 855.511L1040.04 856.621L1038.41 857.915L1034.64 858.724L1033.85 859.094L1032.15 860.853L1029.37 862.602L1028.11 862.972L1026.87 863.139L1024.1 862.694L1023.91 862.491L1023.85 862.036L1023.89 861.537L1023.99 860.999L1022.57 860.616L1009.66 861.14L1007.48 860.852L1005.54 859.777L1003.99 859.389L1002.55 859.454L1001.59 859.666L996.145 862.734L994.957 862.874L994.073 862.795L993.55 862.611L993.208 862.43L992.919 862.208L992.661 861.959L992.101 861.14L991.868 860.722L991.381 860.143L990.967 859.852L990.407 859.64L989.958 859.565L989.634 859.436L989.381 859.168L989.146 858.7L988.715 857.528L988.337 857.131L987.724 856.803L986.337 856.443L984.475 856.429L983.085 856.692L982.529 856.872L982.041 857.206L979.945 859.317L977.638 860.261L970.856 861.154L967.772 861.039L966.27 860.512L964.109 860.341L963.424 860.115L961.998 858.984L960.829 858.345L959.94 858.245L959.109 858.393L957.811 859.095L957.055 859.725L956.495 860.946L955.864 863.01L955.576 863.352L955.197 863.649L949.586 865.406L948.705 865.861L948.074 866.341L945.994 867.424L944.785 867.562L943.812 867.447L941.705 866.232L941.049 865.749L940.4 865.509L939.625 865.334L937.191 865.246L936.542 865.027L935.191 864.085L934.644 863.945L933.977 864.028L927.231 867.996L927.213 866.364L927.358 865.741L927.58 865.242L928.084 863.678L928.426 861.937V860.892L928.168 859.643L927.376 858.431L926.258 857.059L925.862 856.236L925.573 855.161L925.413 853.318L925.52 848.88L925.303 847.879L924.854 846.99L923.827 845.78L923.05 845.227L922.472 844.94L921.952 844.764L921.37 844.364L920.9 843.715L920.63 842.333L920.739 841.694L921.045 841.231L921.73 840.637L921.934 840.163L921.863 839.721L921.574 839.254L920.072 838.335L920.054 838.094L920.756 837.5L921.694 836.952L921.88 836.428L921.729 835.783L919.962 834.186L919.494 833.444L919.801 832.595L920.432 831.744L921.807 830.411L923.121 829.58L924.583 828.968L927.988 828.119L928.879 827.673L929.778 826.835L932.662 823.597L933.04 822.806L933.022 822.259L932.733 821.644L931.905 821.162L930.769 820.706L930.48 820.446L930.319 819.98L930.355 818.913L930.554 818.001L931.707 814.018L931.778 813.112L931.653 812.344L931.382 811.274L931.311 810.641V810.138L932.772 806.46L932.898 805.967L933.005 805.268L933.041 804.458L932.97 802.901L933.006 802.122L933.259 801.522L933.511 801.256L933.853 801.167L934.977 801.057L935.608 800.864L936.094 800.636L936.382 800.45L936.508 800.129L936.564 799.649L936.437 798.772L935.302 794.912L935.103 793.998L935.066 793.232L935.138 792.448L935.319 791.813L934.832 790.95L933.8 789.855L927.704 786.738L927.451 785.92L927.34 785.216L926.855 784.553L926.117 784.076L922.242 782.891L921.586 782.525L920.794 781.844L917.749 778.482L916.738 777.808L915.478 777.224L913.289 776.608L912.137 776.523L911.199 776.603L909.63 776.972L908.008 777.127L905.928 776.865L904.901 776.219L899.256 770.76L897.236 769.777L895.32 769.33L893.787 768.732L893.12 768.712L892.525 768.899L890.165 770.219L888.903 770.536L888.321 770.565L887.672 770.479L887.094 770.237L886.663 769.676L886.645 768.899L887.133 767.598L887.6 766.645L887.942 765.756L887.996 764.783L887.942 763.997L886.555 760.373L887.76 758.641L889.226 757.882L891.03 757.386L892.182 756.795L895.162 753.797L896.513 752.878L897.632 751.473L898.748 748.787L900.299 746.318L900.948 745.586L902.304 744.806L909.106 741.978L914.079 738.725L915.167 737.581L915.563 737.243L916.409 736.725L917.4 736.398L918.68 736.416L919.402 736.604L920.122 736.961L920.607 737.12H921.185L923.229 736.575L934.307 730.791L935.298 730.705L936.236 731.111L936.992 731.674L937.876 732.003L938.685 731.871L939.983 730.843L940.65 730.152L941.378 729.154L942.08 728.355L948.969 724.023L950.069 723.581L951.638 723.685L952.611 723.592L953.51 723.224L954.202 722.153L954.437 721.475L954.473 720.865L954.322 719.707L954.346 718.935L954.473 717.929L954.744 717.139L955.229 716.358L956.131 715.935L957.536 715.604L962.392 715.444L965.238 716.004L967.966 716.996L970.308 717.288L979.47 715.717L983.261 717.137L983.855 716.995L984.701 716.58L987.212 714.477L988.185 713.843L989.087 713.579L992.366 713.307L994.41 713.447L995.312 713.255L996.228 712.75L997.148 711.367L997.547 710.453L997.797 709.69L997.997 709.268L998.557 708.428L998.664 707.985V707.307L998.5 706.696L998.069 705.4L997.926 704.811L997.944 704.187L998.069 703.019L998.015 702.304L997.833 701.606L997.295 699.993L997.131 699.257L997.241 698.531L997.672 698.172L998.61 698.342L1000.15 699.046L1000.76 699.211L1001.37 699.267L1002.06 698.974L1003.07 698.38L1006.45 695.546L1007.4 695.042L1008.14 694.495L1008.32 694.132L1008.5 693.674L1008.89 692.258L1009.04 690.771V689.654L1009.17 688.819L1009.33 688.191L1009.67 687.483L1010.1 686.833L1010.89 686.275L1012.16 685.908L1017.34 685.783L1019.54 686.142L1021.32 686.02L1022.14 686.142L1022.66 686.408L1022.89 686.855L1023.11 687.389L1023.2 687.833L1023.27 688.357L1023.32 688.947L1023.47 689.467L1023.74 689.893L1024.06 690.128L1025.07 690.263L1027.1 690.089L1037.52 687.366L1042.23 684.211L1046.49 682.185L1047.52 681.401L1048.88 680.04L1049.77 679.425L1051.7 678.376L1052.67 677.506L1053.51 676.475L1054.73 674.026L1055.2 673.313L1055.94 672.477L1058.33 670.442L1059.01 669.605L1060.36 667.404L1060.79 666.875L1061.35 666.609L1062.02 666.648L1063.15 667.12L1064.11 667.149L1065.43 666.543L1066.28 666.326L1067.09 666.449L1068.21 667.387L1069.16 667.841L1071.94 667.642L1072.54 667.813L1073.15 668.229L1075.36 670.869L1076.07 671.54L1076.93 671.862L1077.71 672.033L1080.72 671.229L1081.75 676.599L1082.98 678.86L1087.11 682.583L1087.34 683.282L1087.31 683.963L1086.95 684.61L1086.57 685.19L1086.48 685.284L1086.08 686.234L1086.01 687.679L1086.32 688.769L1087.11 690.212L1087.49 691.057L1087.72 691.845L1088.78 699.217L1088.88 701.005L1088.69 702.502L1088.3 703.53L1087.31 705.359L1086.3 706.733L1085.99 707.615L1085.61 709.081L1085.45 711.764L1085.61 712.969L1085.86 713.648L1086.17 713.874L1091.93 716.36L1092.65 716.837L1093.37 717.535L1094.36 719.148L1094.79 720.584L1095.12 722.671L1095.51 723.638L1096.14 724.334L1096.81 724.594L1097.66 724.674L1098.48 724.608L1100.62 724.128L1101.68 724.212L1104.86 724.974L1109.62 724.354L1110.47 724.414L1111.25 724.747L1112.2 725.623L1112.73 726.679L1113.07 727.709L1113.5 730.819L1113.52 733.279L1113.79 734.772L1114.29 736.706L1116.08 741.868L1116.31 742.881L1116.24 743.332L1116.09 743.745L1115.95 744.102L1115.46 744.824L1113.57 746.794L1113.39 747.336L1113.36 748.275L1113.64 748.848L1113.97 749.268L1115.82 750.562L1116.71 751.445L1117.83 752.798L1119.36 755.08L1119.81 756.214L1119.88 756.962L1119.54 757.472L1117.63 759.332L1117.36 759.865L1117.23 760.471V761.425L1117.36 762.338L1117.79 764.388L1117.83 765.015L1117.77 765.651L1117.56 767.513L1116.52 767.467L1114.16 768.066L1112.01 769.112L1111.44 769.993L1112.78 772.134L1113.62 772.995L1116.35 774.761L1120.3 776.05L1121.11 776.583L1125.35 780.674L1126.29 781.347L1127.82 781.786L1128.63 782.206L1129.48 782.907L1130.56 784.205L1130.73 785.096L1130.47 786.001L1130.17 786.65L1130.02 787.178L1129.95 787.957L1129.88 791.567L1129.75 792.557L1129.48 793.61L1128.9 795.321L1128.43 797.183L1128.28 798.63ZM1024.01 777.052L1028.24 776.846L1030.83 776.182L1031.52 774.884L1031.66 774.481L1031.7 774.024L1031.66 773.627L1031.45 773.042L1031.19 772.495L1030.96 771.85L1030.87 771.387L1031.03 769.77L1030.96 769.175L1030.83 768.674L1030.29 767.58L1030.17 767.229L1030.18 766.935L1030.33 766.569L1030.69 766.049L1033.92 762.854L1034.89 761.563L1035.16 760.906L1035.22 760.331L1035.06 759.422L1034.55 758.55L1033.88 757.985L1031.45 757.189L1030.65 756.745L1030.25 756.378L1029.84 755.83L1029.44 755.043L1028.67 753.924L1028.24 753.557L1027.8 753.304L1025.08 752.579L1024.21 752.156L1023.71 751.397L1023.31 750.235L1022.81 749.549L1021.36 748.509L1019.51 746.56L1018.9 746.119L1018.17 745.81L1016.9 745.564L1011.17 746.23L995.873 750.694L995.387 751.04L995.116 751.528L995.027 752.129L995.134 752.832L995.316 753.478L995.369 754.031L995.206 754.481L994.738 755.019L994.089 755.394L993.422 755.559L992.845 755.45L989.956 754.265L989.271 754.176L988.569 754.265L983.065 756.294L980.865 757.583L980.598 757.881L980.47 758.162L980.434 758.405L980.411 758.687L980.598 759.024L980.958 759.446L983.101 760.751L983.768 761.341L984.075 761.683L984.257 762.043L984.203 762.464L984.057 762.895L983.733 763.619L983.573 764.079L983.463 764.519V765.014L983.591 765.426L983.951 765.965L986.817 769.561L987.128 770.085L987.652 771.235L988.264 773.395L988.515 774.021L988.768 774.491L989.057 774.913L992.193 778.544L992.5 779.243L992.626 779.889L992.554 781.15L992.483 781.7L992.409 782.915L992.518 783.961L992.679 784.249L992.883 784.455L993.184 784.679L993.568 784.842L994.848 785.062L999.721 783.063L1008.07 781.578L1013.27 779.92L1013.97 779.515L1015.68 777.899L1017.55 776.506L1018.69 776.17L1019.47 776.057L1019.78 776.095L1020.01 776.198L1020.35 776.403L1021.99 776.842L1024.01 777.052Z" stroke="#767676" stroke-width="0.5" stroke-linecap="round" stroke-linejoin="round"/>
<path d="M1024.01 777.052L1021.99 776.846L1020.35 776.407L1020.01 776.202L1019.77 776.099L1019.47 776.061L1018.69 776.174L1017.55 776.51L1015.68 777.902L1013.97 779.519L1013.26 779.924L1008.07 781.582L999.72 783.067L994.847 785.066L993.567 784.846L993.184 784.683L992.882 784.459L992.678 784.253L992.518 783.965L992.408 782.919L992.483 781.704L992.554 781.154L992.625 779.893L992.5 779.247L992.193 778.548L989.056 774.917L988.767 774.495L988.514 774.025L988.264 773.399L987.651 771.239L987.127 770.089L986.816 769.565L983.95 765.969L983.59 765.43L983.463 765.017V764.523L983.572 764.083L983.733 763.623L984.057 762.898L984.202 762.468L984.256 762.047L984.075 761.687L983.768 761.345L983.101 760.755L980.957 759.45L980.597 759.028L980.41 758.691L980.434 758.409L980.47 758.166L980.597 757.885L980.865 757.587L983.064 756.298L988.569 754.268L989.271 754.18L989.956 754.268L992.845 755.454L993.422 755.563L994.089 755.398L994.738 755.023L995.205 754.485L995.368 754.035L995.315 753.481L995.134 752.836L995.026 752.132L995.116 751.532L995.387 751.044L995.872 750.698L1011.17 746.234L1016.9 745.568L1018.17 745.814L1018.9 746.123L1019.51 746.564L1021.36 748.513L1022.8 749.553L1023.31 750.239L1023.71 751.401L1024.21 752.16L1025.08 752.583L1027.8 753.308L1028.24 753.561L1028.67 753.928L1029.44 755.047L1029.84 755.834L1030.25 756.382L1030.65 756.749L1031.44 757.193L1033.88 757.989L1034.55 758.554L1035.05 759.426L1035.22 760.334L1035.16 760.91L1034.89 761.567L1033.92 762.858L1030.69 766.053L1030.33 766.572L1030.18 766.939L1030.17 767.233L1030.29 767.584L1030.83 768.678L1030.96 769.179L1031.03 769.774L1030.87 771.39L1030.96 771.853L1031.19 772.499L1031.44 773.046L1031.66 773.63L1031.7 774.028L1031.66 774.484L1031.52 774.888L1030.83 776.186L1028.24 776.85L1024.01 777.052Z" stroke="#767676" stroke-width="0.5" stroke-linecap="round" stroke-linejoin="round"/>
</svg>
