<svg width="2232" height="1674" viewBox="0 0 2232 1674" fill="none" xmlns="http://www.w3.org/2000/svg">
<path d="M1128.57 761.67C1134.54 765.725 1147 775.897 1149.04 784.155C1151.58 794.478 1167.34 812.466 1184.51 815.634C1201.67 818.803 1210.45 818.394 1219.85 817.678" stroke="#33266B" stroke-width="1.72848"/>
<path d="M1050.32 729.503C1054.34 724.519 1065.64 715.444 1078.68 719.013C1094.98 723.474 1099.34 723.956 1107.17 717.566C1115 711.176 1123.47 713.467 1124.24 713.949C1125.01 714.431 1130.53 718.772 1139 712.984C1146.83 707.364 1161.8 691.224 1159 671.624C1155.5 647.124 1179.5 632.124 1201 632.124C1217.62 632.124 1217.5 631.124 1251.5 647.124C1285.5 663.124 1378 643.124 1414 609.124C1450 575.124 1529 569.624 1563 586.624" stroke="#33266B" stroke-width="1.72848"/>
<path d="M872.959 753.846C875.802 757.555 881.512 767.482 881.614 777.522C881.741 790.071 900.842 792.875 901.598 793.047C912.417 795.505 920.054 793.823 924.254 797.316" stroke="#33266B" stroke-width="1.72848"/>
<path d="M1011.2 845.133C1011.07 846.542 1004.46 859.347 993.654 864.469C982.85 869.591 973.952 861.14 968.104 860.5C962.257 859.859 949.165 858.451 945.732 871.64C942.987 882.192 937.301 886.451 934.801 887.262C923.717 895.56 919.674 906.684 919.039 911.208C919.692 928.513 915 966.623 891 980.623C861 998.123 774.5 996.123 764.5 1053.62C761.5 1062.79 758.5 1086.72 770.5 1109.12C785.5 1137.12 839 1180.12 833 1264.12" stroke="#33266B" stroke-width="1.72848"/>
<path d="M1009.46 768.721C1012.69 767.735 1022.99 773.968 1038.31 806.79C1053.64 839.612 1076.88 856.049 1086.58 860.164C1098.58 864.837 1126.42 877.913 1141.74 892.832C1160.9 911.48 1181.89 910.37 1193 915" stroke="#33266B" stroke-width="1.72848"/>
<path d="M1193 915C1210 921.5 1237.42 922.867 1248.53 920.66C1288.61 912.218 1337.94 888.852 1375.36 919.134C1396.7 936.409 1424.55 939.276 1432.92 936.116C1446.17 931.113 1480.53 925.735 1512 944.254C1551.34 967.402 1564.92 1021.07 1568.13 1028.94C1571.34 1036.81 1578.79 1076.79 1652.54 1068.29" stroke="#33266B" stroke-width="1.73"/>
<path d="M1008.93 767.756C1015.2 774.341 1026.23 792.716 1017.56 811.494C1008.9 830.272 1010.86 848.648 1012.92 855.488C1015.8 866.391 1017.8 890.042 1002.74 897.43C987.68 904.818 980.821 922.484 979.274 930.394C978.93 934.798 978.681 945.298 980.434 952.07C981.289 969.921 994.399 1011.82 1040 1036.62C1097 1067.62 1082.5 1147.62 1080 1158.12C1077.5 1168.62 1051 1267.62 996.499 1319.62" stroke="#33266B" stroke-width="1.72848"/>
<path d="M1008.59 767.927C988.924 764.771 982.397 768.988 972.014 778.024C962.158 785.076 957.48 782.851 955.386 783.415C952.01 783.719 944.002 785.497 938.977 790.183C933.952 794.868 927.482 796.56 924.876 796.821C918.893 796.951 906.082 798.305 902.698 802.678C899.314 807.051 885.734 812.222 879.367 814.261C853.523 821.03 848.5 817.123 844.5 838.123C837 866.123 831.8 882.623 795 886.623C749 891.623 690.5 877.123 656.5 838.123C622.5 799.123 494 801.623 466 836.123" stroke="#33266B" stroke-width="1.72848"/>
<path d="M681 860.123C672.833 862.123 654.3 870.023 645.5 885.623C636.7 901.223 608.167 902.123 595 900.623C583.167 898.623 557.8 900.523 551 924.123" stroke="#33266B" stroke-width="1.73"/>
<path d="M819.926 732.98C823.006 736.212 836.65 732.795 841.971 729.217C851.111 723.073 864.476 723.947 871.307 731.523C874.379 734.93 879.327 739.981 900.623 742.563C912.045 743.948 910.89 742.311 915.254 742.563C922.313 742.971 922.492 740.07 927.831 741.178C933.17 742.286 938.954 741.64 941.179 741.178C942.933 740.633 947.237 740.423 950.419 743.948C953.602 747.474 958.334 747.432 960.302 746.97C962.398 747.096 966.436 748.405 965.82 752.636C965.204 756.866 979.082 757.756 986.098 757.672C991.061 756.749 1002.68 757.647 1009.46 768.626" stroke="#33266B" stroke-width="1.72848"/>
<path d="M1172.04 779.059C1166.68 777.959 1155.11 774.862 1151.75 771.273C1147.53 766.787 1142.56 758.737 1130.31 761.112C1127.54 761.904 1120.94 763.963 1116.65 765.863C1112.36 767.763 1094.62 767.622 1086.28 767.314C1080.37 766.874 1066.22 765.625 1056.93 764.147C1047.64 762.669 1044.07 761.112 1041.74 759.793C1032.43 754.514 1018.95 754.171 1009.46 768.634" stroke="#33266B" stroke-width="1.72848"/>
<path d="M1060.91 664.297C1066.72 666.582 1077.21 675.494 1072.7 692.86C1071.54 696.033 1067.57 704.005 1060.91 710.505C1058.86 712.959 1054.33 719.264 1052.59 724.849C1050.79 730.012 1044.16 741.403 1031.97 745.668C1027.91 747.276 1017.65 753.945 1009.04 767.756C1008.65 761.028 1006.22 743.129 999.049 734.878C993.31 728.277 991.278 720.364 990.979 717.233C991.082 711.241 984.02 707.204 980.476 705.935C977.061 703.607 970.05 697.43 969.333 691.336C968.616 685.243 961.007 678.557 957.293 675.976C949.862 659.192 918.199 621.423 850.999 604.623C766.999 583.623 748.499 574.623 726.499 545.623C704.499 516.623 659.5 480.623 590.5 483.123" stroke="#33266B" stroke-width="1.72848"/>
<path d="M1248 921C1265.33 927.5 1304 951.5 1285.5 996.5C1269.33 1031.17 1256.54 1099.75 1285.5 1141.5C1324 1197 1375 1198.5 1395.5 1206.5" stroke="#33266B" stroke-width="1.73"/>
<path d="M1249 920.5C1242.83 947.167 1214.16 999.289 1162 1023C1118 1043 1121.83 1094.17 1135.5 1118.5" stroke="#33266B" stroke-width="1.73"/>
<path d="M1324 842C1330.5 844.833 1350.9 848.8 1380.5 842C1417.5 833.5 1440 841.5 1446 847C1449.33 849.5 1457.7 853 1464.5 847C1473 839.5 1474 833.5 1492.5 833.5C1511 833.5 1518.5 829.5 1527 824C1535.5 818.5 1545.5 817 1557.5 817.5C1569.5 818 1579 811.5 1584 795.5C1589 779.5 1601 737.5 1659 729.5" stroke="#33266B" stroke-width="1.73"/>
<path d="M1324 842C1321.33 839 1315 832.5 1311 830.5C1306 828 1306 827 1306.5 824C1307 821 1305.5 815.5 1297.5 812C1289.5 808.5 1267.5 808 1266.5 784.5C1266.17 781.167 1266 773 1268 767" stroke="#33266B" stroke-width="1.73"/>
<path d="M1324.5 841.5C1321 845.167 1309 852.4 1289 852C1285.17 851.667 1276.8 851.7 1274 854.5C1270.5 858 1260 857.5 1254.5 853.5" stroke="#33266B" stroke-width="1.73"/>
<path d="M1324.5 843C1323.17 847.167 1320.9 856 1322.5 858C1324.5 860.5 1325.5 865.5 1322.5 867C1319.5 868.5 1319 874.39 1305 879C1291.33 883.5 1261 898.1 1249 920.5" stroke="#33266B" stroke-width="1.73"/>
<path d="M1248.5 920C1244 914.333 1233.1 902.4 1225.5 900C1216 897 1218 889.5 1213 886C1208 882.5 1179 874 1177 859.5" stroke="#33266B" stroke-width="1.73"/>
<path d="M1323.5 842.5C1334.33 832 1359.1 811.1 1371.5 811.5C1383.9 811.9 1390.67 808.667 1392.5 807C1392.5 804.667 1393.9 800.7 1399.5 803.5C1406.5 807 1412 804 1416 800.5C1419.2 797.7 1423 793 1424.5 791" stroke="#33266B" stroke-width="1.73"/>
</svg>
