<svg width="133" height="40" viewBox="0 0 133 40" fill="none" xmlns="http://www.w3.org/2000/svg">
<g clip-path="url(#clip0_329_524)">
<path d="M64.391 33.9324C66.6117 33.9324 68.4119 32.1322 68.4119 29.9115C68.4119 27.6908 66.6117 25.8906 64.391 25.8906C62.1703 25.8906 60.3701 27.6908 60.3701 29.9115C60.3701 32.1322 62.1703 33.9324 64.391 33.9324Z" stroke="white" stroke-width="1.35269" stroke-miterlimit="10"/>
<path d="M64.3914 31.5685C65.3066 31.5685 66.0485 30.8266 66.0485 29.9114C66.0485 28.9963 65.3066 28.2544 64.3914 28.2544C63.4763 28.2544 62.7344 28.9963 62.7344 29.9114C62.7344 30.8266 63.4763 31.5685 64.3914 31.5685Z" stroke="white" stroke-width="1.35269" stroke-miterlimit="10"/>
<path d="M35.7047 28.4536V30.3846H13.7539" stroke="white" stroke-width="1.1295" stroke-miterlimit="10"/>
<path d="M24.1992 24H28.4568" stroke="white" stroke-width="1.35269" stroke-miterlimit="10"/>
<path d="M9.13086 20.0974C13.9092 20.0974 17.3011 16.2321 17.3011 11.4639H10.4125" stroke="white" stroke-width="1.35269" stroke-miterlimit="10"/>
<path d="M24.3964 2.70557V30.385H9.25977V17.8489C9.25888 15.8606 9.64974 13.8916 10.41 12.0543C11.1703 10.2171 12.2851 8.54765 13.6908 7.14137C15.0964 5.73509 16.7654 4.61953 18.6023 3.85842C20.4392 3.09731 22.408 2.70557 24.3964 2.70557V2.70557Z" stroke="white" stroke-width="1.35269" stroke-miterlimit="10"/>
<path d="M18.7217 17.6118V22.8163" stroke="white" stroke-width="1.35269" stroke-miterlimit="10"/>
<path d="M16.1205 33.9324C18.3412 33.9324 20.1414 32.1322 20.1414 29.9115C20.1414 27.6908 18.3412 25.8906 16.1205 25.8906C13.8998 25.8906 12.0996 27.6908 12.0996 29.9115C12.0996 32.1322 13.8998 33.9324 16.1205 33.9324Z" fill="#33266B" stroke="white" stroke-width="1.35269" stroke-miterlimit="10"/>
<path d="M16.1209 31.5685C17.0361 31.5685 17.778 30.8266 17.778 29.9114C17.778 28.9963 17.0361 28.2544 16.1209 28.2544C15.2058 28.2544 14.4639 28.9963 14.4639 29.9114C14.4639 30.8266 15.2058 31.5685 16.1209 31.5685Z" fill="#33266B" stroke="white" stroke-width="1.35269" stroke-miterlimit="10"/>
<path d="M131.012 0H28.3633V26.4045H131.012V0Z" fill="#D89A26"/>
<path d="M0 34.8486H133" stroke="white" stroke-width="1.35269" stroke-miterlimit="10"/>
<path d="M43.4349 33.9324C45.6556 33.9324 47.4558 32.1322 47.4558 29.9115C47.4558 27.6908 45.6556 25.8906 43.4349 25.8906C41.2143 25.8906 39.4141 27.6908 39.4141 29.9115C39.4141 32.1322 41.2143 33.9324 43.4349 33.9324Z" stroke="white" stroke-width="1.35269" stroke-miterlimit="10"/>
<path d="M43.4344 31.5685C44.3496 31.5685 45.0914 30.8266 45.0914 29.9114C45.0914 28.9963 44.3496 28.2544 43.4344 28.2544C42.5192 28.2544 41.7773 28.9963 41.7773 29.9114C41.7773 30.8266 42.5192 31.5685 43.4344 31.5685Z" stroke="white" stroke-width="1.35269" stroke-miterlimit="10"/>
<path d="M53.9086 33.9324C56.1292 33.9324 57.9294 32.1322 57.9294 29.9115C57.9294 27.6908 56.1292 25.8906 53.9086 25.8906C51.6879 25.8906 49.8877 27.6908 49.8877 29.9115C49.8877 32.1322 51.6879 33.9324 53.9086 33.9324Z" stroke="white" stroke-width="1.35269" stroke-miterlimit="10"/>
<path d="M53.908 31.5685C54.8232 31.5685 55.5651 30.8266 55.5651 29.9114C55.5651 28.9963 54.8232 28.2544 53.908 28.2544C52.9929 28.2544 52.251 28.9963 52.251 29.9114C52.251 30.8266 52.9929 31.5685 53.908 31.5685Z" stroke="white" stroke-width="1.35269" stroke-miterlimit="10"/>
<path d="M72.3112 24H33.0967V28.2576H72.3112V24Z" fill="white" stroke="#33266B" stroke-miterlimit="10"/>
<path d="M128.391 24H124.37V30.3847H128.391V24Z" stroke="white" stroke-miterlimit="10"/>
<path d="M107.038 33.9324C109.259 33.9324 111.059 32.1322 111.059 29.9115C111.059 27.6908 109.259 25.8906 107.038 25.8906C104.818 25.8906 103.018 27.6908 103.018 29.9115C103.018 32.1322 104.818 33.9324 107.038 33.9324Z" stroke="white" stroke-width="1.35269" stroke-miterlimit="10"/>
<path d="M107.039 31.5685C107.954 31.5685 108.696 30.8266 108.696 29.9114C108.696 28.9963 107.954 28.2544 107.039 28.2544C106.124 28.2544 105.382 28.9963 105.382 29.9114C105.382 30.8266 106.124 31.5685 107.039 31.5685Z" stroke="white" stroke-width="1.35269" stroke-miterlimit="10"/>
<path d="M117.512 33.9324C119.733 33.9324 121.533 32.1322 121.533 29.9115C121.533 27.6908 119.733 25.8906 117.512 25.8906C115.291 25.8906 113.491 27.6908 113.491 29.9115C113.491 32.1322 115.291 33.9324 117.512 33.9324Z" stroke="white" stroke-width="1.35269" stroke-miterlimit="10"/>
<path d="M117.512 31.5685C118.427 31.5685 119.169 30.8266 119.169 29.9114C119.169 28.9963 118.427 28.2544 117.512 28.2544C116.596 28.2544 115.854 28.9963 115.854 29.9114C115.854 30.8266 116.596 31.5685 117.512 31.5685Z" stroke="white" stroke-width="1.35269" stroke-miterlimit="10"/>
<path d="M128.391 24H100.106V28.2576H128.391V24Z" fill="white" stroke="#33266B" stroke-miterlimit="10"/>
<path d="M3.50022 34.1558C3.504 34.1636 3.50592 34.1723 3.50584 34.1811C3.50576 34.1898 3.50369 34.1984 3.49977 34.2063C3.49586 34.2141 3.49021 34.2209 3.48325 34.2262C3.4763 34.2315 3.46822 34.2352 3.45964 34.2369L3.29394 34.2606L2.55672 34.3654H2.42821C2.37957 34.3688 2.33083 34.3604 2.2861 34.341C2.24138 34.3215 2.20197 34.2917 2.1712 34.2538C2.14415 34.2301 2.1712 34.1997 2.1712 34.1794C2.19846 34.1553 2.2279 34.1338 2.25913 34.1152C2.27687 34.1049 2.29636 34.098 2.31662 34.0949C2.38087 34.0949 2.42145 34.0306 2.46541 33.99C2.5216 33.9354 2.5736 33.8766 2.62097 33.8142C2.64284 33.7844 2.66208 33.7527 2.67846 33.7195C2.70496 33.6637 2.74438 33.615 2.79344 33.5775C2.84755 33.5437 2.85093 33.5166 2.83064 33.4524C2.81035 33.3881 2.79006 33.2968 2.76639 33.219C2.73977 33.0968 2.7456 32.9697 2.7833 32.8504C2.79454 32.7768 2.78875 32.7016 2.76639 32.6306C2.74998 32.5654 2.74202 32.4983 2.74272 32.4311C2.74272 32.2721 2.74272 32.0929 2.74272 31.9509C2.74272 31.8088 2.74272 31.7209 2.74272 31.6127C2.74793 31.5556 2.75811 31.499 2.77315 31.4436C2.77315 31.3794 2.79682 31.3117 2.80697 31.2475C2.82726 31.1291 2.85093 31.0107 2.86784 30.8924C2.8713 30.8485 2.8713 30.8044 2.86784 30.7605C2.84073 30.571 2.82379 30.3803 2.81711 30.189C2.82047 30.1225 2.82047 30.0559 2.81711 29.9895C2.81711 29.6513 2.81711 29.3334 2.79344 29.0054C2.79344 28.8498 2.79344 28.6943 2.76977 28.5387C2.75626 28.3609 2.75626 28.1822 2.76977 28.0044C2.78668 27.8184 2.79006 27.629 2.80359 27.443C2.81796 27.3497 2.84767 27.2595 2.89151 27.1759C2.94928 27.0713 2.98605 26.9564 2.99973 26.8377C2.99973 26.8106 2.99973 26.7836 3.01664 26.7565C3.01526 26.75 3.01242 26.7439 3.00831 26.7386C3.00421 26.7333 2.99896 26.729 2.99296 26.7261C2.95785 26.7137 2.92737 26.6908 2.90561 26.6606C2.88385 26.6304 2.87185 26.5942 2.87122 26.557C2.86919 26.5293 2.86351 26.502 2.85431 26.4758C2.85431 26.4758 2.83064 26.4758 2.82726 26.4758C2.78366 26.4954 2.73641 26.5056 2.68861 26.5056C2.64081 26.5056 2.59355 26.4954 2.54996 26.4758L2.4316 26.4386C2.39522 26.4285 2.36309 26.4069 2.33994 26.377C2.3168 26.3472 2.30388 26.3107 2.30309 26.2729C2.30285 26.2374 2.29097 26.203 2.26927 26.1749C2.24162 26.1323 2.22312 26.0845 2.21497 26.0344C2.20682 25.9844 2.20919 25.9331 2.22193 25.884C2.22345 25.8717 2.22345 25.8592 2.22193 25.8468C2.22166 25.8247 2.22603 25.8027 2.23477 25.7823C2.24351 25.7619 2.25641 25.7436 2.27266 25.7285C2.28339 25.7157 2.28927 25.6995 2.28927 25.6828C2.28927 25.6661 2.28339 25.65 2.27266 25.6372C2.25528 25.6169 2.24572 25.5911 2.24572 25.5645C2.24572 25.5378 2.25528 25.512 2.27266 25.4918C2.29488 25.4897 2.31591 25.4807 2.33287 25.4662C2.34982 25.4517 2.36186 25.4322 2.36734 25.4106C2.35489 25.3652 2.35207 25.3176 2.35906 25.271C2.36604 25.2245 2.38269 25.1798 2.40792 25.1401C2.42485 25.1137 2.43522 25.0837 2.43816 25.0525C2.4411 25.0213 2.43653 24.9899 2.42483 24.9608C2.39896 24.8882 2.39312 24.8099 2.40792 24.7343C2.41476 24.6119 2.42831 24.4899 2.44851 24.369C2.46701 24.2806 2.49188 24.1935 2.5229 24.1086C2.53509 24.0535 2.55091 23.9993 2.57025 23.9463C2.59221 23.9046 2.61949 23.866 2.65141 23.8313C2.67505 23.8021 2.70232 23.7759 2.73257 23.7536H2.75286L3.09103 23.6284C3.17558 23.5912 3.25674 23.5506 3.33452 23.5101C3.4123 23.4695 3.47655 23.4323 3.54757 23.3917C3.54757 23.3917 3.578 23.3647 3.578 23.3511C3.58274 23.3125 3.59695 23.2756 3.61937 23.2437C3.64179 23.2119 3.67172 23.186 3.70651 23.1685C3.71572 23.1633 3.72358 23.156 3.72946 23.1472C3.73533 23.1384 3.73905 23.1283 3.74033 23.1178C3.74124 23.0647 3.73206 23.0119 3.71327 22.9622C3.69831 22.9013 3.69037 22.8389 3.6896 22.7762C3.6896 22.7492 3.6896 22.7221 3.6524 22.7086C3.64484 22.7043 3.63824 22.6984 3.63301 22.6914C3.62778 22.6845 3.62402 22.6765 3.62197 22.668L3.58138 22.4381C3.58138 22.4009 3.58138 22.3603 3.58138 22.3231C3.58138 22.2859 3.60167 22.2554 3.64902 22.2622V22.1675C3.64768 22.0516 3.66952 21.9367 3.71327 21.8294C3.75006 21.7346 3.82134 21.6573 3.91279 21.6129C3.99426 21.5693 4.08051 21.5353 4.16981 21.5115V21.5115C4.26449 21.5115 4.36595 21.481 4.44711 21.5385C4.556 21.5972 4.65157 21.6778 4.72779 21.7752C4.75823 21.8294 4.8191 21.8665 4.82924 21.9342C4.83112 21.9567 4.83112 21.9793 4.82924 22.0018C4.83958 22.1161 4.82576 22.2314 4.78866 22.34C4.78473 22.3504 4.78461 22.3619 4.78832 22.3724C4.79203 22.383 4.79934 22.3918 4.80895 22.3975C4.8347 22.4198 4.8511 22.451 4.85486 22.4848C4.85862 22.5187 4.84947 22.5527 4.82924 22.5801C4.81763 22.6043 4.80747 22.6291 4.79881 22.6545C4.77901 22.7235 4.74036 22.7855 4.68721 22.8337C4.66692 22.8337 4.6331 22.8337 4.62634 22.8811C4.61958 22.9284 4.60267 22.9622 4.59252 23.0028C4.58238 23.0434 4.59252 23.0468 4.59252 23.0671C4.58528 23.1159 4.59742 23.1657 4.62634 23.2057C4.65857 23.2611 4.68682 23.3188 4.71088 23.3782C4.72844 23.4093 4.75417 23.435 4.78528 23.4526C4.90026 23.5135 5.00847 23.5845 5.12345 23.6487C5.17849 23.6797 5.23772 23.7024 5.2993 23.7164C5.36056 23.7328 5.41355 23.7714 5.4481 23.8246C5.47225 23.8543 5.49822 23.8826 5.52588 23.9091C5.54955 23.9362 5.56984 23.9632 5.59351 23.9869C5.70731 24.1184 5.8039 24.2639 5.88096 24.4198C5.9081 24.4717 5.91872 24.5307 5.9114 24.5888C5.90482 24.6798 5.92605 24.7706 5.97227 24.8492C5.99714 24.9024 6.01204 24.9597 6.01623 25.0183C6.0399 25.1671 6.05005 25.3193 6.0771 25.4681C6.09519 25.531 6.10653 25.5956 6.11092 25.6608C6.10358 25.6747 6.09569 25.6882 6.08725 25.7014C6.08725 25.7488 6.10754 25.7826 6.12106 25.8198L6.1515 25.928C6.15289 25.9505 6.15289 25.9731 6.1515 25.9956C6.1492 26.0422 6.14355 26.0885 6.13459 26.1343C6.11768 26.1985 6.09063 26.2594 6.07372 26.3237C6.05697 26.41 6.00723 26.4864 5.93507 26.5367C5.88995 26.5629 5.83838 26.5758 5.78627 26.5739C5.73983 26.5773 5.69528 26.5937 5.65777 26.6213C5.60366 26.6618 5.60028 26.6652 5.54279 26.6213C5.50027 26.5861 5.44559 26.5691 5.39061 26.5739C5.37032 26.5739 5.35679 26.5739 5.35679 26.6044C5.3584 26.6224 5.3584 26.6405 5.35679 26.6585C5.35507 26.6738 5.34861 26.6882 5.3383 26.6998C5.328 26.7113 5.31437 26.7193 5.2993 26.7227C5.25196 26.743 5.25196 26.743 5.25872 26.7971C5.26549 26.8512 5.25872 26.9121 5.25872 26.9662C5.25872 27.0203 5.28239 27.0474 5.28916 27.0879C5.31283 27.1894 5.33312 27.2942 5.35679 27.3991C5.38046 27.5039 5.39737 27.5783 5.41428 27.6696C5.41763 27.7135 5.41763 27.7576 5.41428 27.8015L5.44472 28.0957C5.44806 28.1475 5.44806 28.1995 5.44472 28.2513C5.44472 28.4981 5.44472 28.745 5.44472 28.9919C5.44472 29.2387 5.42443 29.445 5.41766 29.6682C5.41766 29.8102 5.41766 29.9523 5.41766 30.0943C5.41766 30.2363 5.41766 30.4325 5.40075 30.6151C5.39953 30.6683 5.40293 30.7214 5.4109 30.774C5.4109 30.8552 5.44134 30.9363 5.45148 31.0175C5.46163 31.0987 5.47177 31.1426 5.47853 31.2069C5.4853 31.2711 5.49544 31.3624 5.49882 31.4402C5.49882 31.6195 5.49882 31.7987 5.51911 31.9779C5.51911 32.0523 5.51911 32.1267 5.51911 32.2011C5.51754 32.2815 5.51076 32.3617 5.49882 32.4412C5.47177 32.6306 5.44134 32.82 5.41766 33.0093C5.41766 33.0837 5.41766 33.1581 5.41766 33.2325C5.41452 33.3334 5.39033 33.4324 5.34665 33.5234C5.33007 33.5546 5.3214 33.5894 5.3214 33.6248C5.3214 33.6602 5.33007 33.695 5.34665 33.7263C5.39061 33.8041 5.42443 33.8886 5.47177 33.963C5.51137 34.0264 5.55912 34.0844 5.6138 34.1355C5.64246 34.1674 5.6633 34.2056 5.67467 34.2471C5.67467 34.2707 5.67467 34.2978 5.70173 34.335C5.64499 34.3476 5.5873 34.3555 5.52926 34.3587L5.04229 34.3113L4.78866 34.2741C4.76837 34.2741 4.75484 34.2741 4.75484 34.2437C4.73497 34.1139 4.72817 33.9825 4.73455 33.8514C4.73455 33.8142 4.73455 33.777 4.73455 33.7398C4.74458 33.701 4.74458 33.6603 4.73455 33.6214C4.71819 33.5755 4.70685 33.5278 4.70074 33.4794C4.67203 33.3286 4.67203 33.1737 4.70074 33.0229C4.72225 32.8918 4.73692 32.7598 4.7447 32.6272C4.74587 32.5841 4.74247 32.5411 4.73455 32.4987C4.71781 32.4311 4.70762 32.362 4.70412 32.2924C4.70412 32.0219 4.70412 31.7513 4.70412 31.4842C4.70412 31.4064 4.70412 31.332 4.70412 31.2542C4.70604 31.2027 4.68922 31.1523 4.65677 31.1122C4.6204 31.0627 4.59819 31.0043 4.59252 30.9431C4.57561 30.845 4.56209 30.747 4.54518 30.6489C4.54518 30.6016 4.54518 30.5576 4.54518 30.5136C4.54518 30.4697 4.51136 30.3378 4.50121 30.2499C4.49107 30.1619 4.48092 30.0605 4.4674 29.9692C4.45387 29.8779 4.43696 29.8407 4.42005 29.7764L4.37947 29.5735C4.3558 29.4551 4.33889 29.3368 4.31184 29.2353C4.28478 29.1339 4.25435 29.0121 4.21715 28.8972C4.19476 28.8271 4.1688 28.7583 4.13937 28.6909C4.12461 28.6603 4.11218 28.6286 4.10217 28.5962C4.10217 28.6266 4.07512 28.6469 4.06835 28.6672L4.04806 28.8261L4.00748 29.0426C4.00748 29.1034 3.98043 29.1643 3.96352 29.2252L3.8925 29.5262C3.8925 29.5803 3.86883 29.6378 3.85869 29.6953C3.83501 29.8136 3.80796 29.932 3.78767 30.0537C3.76738 30.1755 3.764 30.2701 3.74709 30.3919C3.73225 30.5742 3.69824 30.7544 3.64564 30.9296C3.60075 31.0634 3.58914 31.2062 3.61182 31.3455C3.63046 31.5462 3.62364 31.7485 3.59153 31.9475C3.57124 32.0861 3.55433 32.2248 3.53066 32.3601C3.50992 32.4613 3.50084 32.5645 3.5036 32.6678C3.5036 32.7895 3.5036 32.9113 3.5036 33.033C3.5036 33.1548 3.48331 33.2664 3.46979 33.3712C3.43006 33.4433 3.41804 33.5275 3.43597 33.6079C3.43597 33.6519 3.43597 33.6958 3.45964 33.7398C3.4712 33.7899 3.4712 33.8419 3.45964 33.892C3.45964 33.892 3.45964 33.892 3.45964 33.892L3.49008 34.1118V34.1355L3.50022 34.1558Z" fill="white"/>
<path d="M11.4639 38.3823H37.0636" stroke="white" stroke-width="1.35269" stroke-miterlimit="10"/>
</g>
<defs>
<clipPath id="clip0_329_524">
<rect width="133" height="39.059" fill="white"/>
</clipPath>
</defs>
</svg>
