<svg width="15" height="14" viewBox="0 0 15 14" fill="none" xmlns="http://www.w3.org/2000/svg">
<path fill-rule="evenodd" clip-rule="evenodd" d="M3.25553 1.53568C3.25553 2.37287 2.60914 3.0504 1.5983 3.0504C0.626837 3.0504 -0.0195528 2.37287 0.00045154 1.53568C-0.0195528 0.657795 0.626822 0 1.61766 0C2.60913 0 3.23615 0.657795 3.25553 1.53568ZM0.0817222 13.9987V4.247H3.15488V13.998H0.0817222V13.9987Z" fill="white"/>
<path fill-rule="evenodd" clip-rule="evenodd" d="M5.61838 7.35897C5.61838 6.14263 5.57774 5.10569 5.53711 4.24815H8.20643L8.34833 5.58409H8.40898C8.81344 4.96575 9.82429 4.0293 11.4621 4.0293C13.4838 4.0293 15.0004 5.34551 15.0004 8.21589V13.9998H11.9272V8.59565C11.9272 7.33862 11.4828 6.4817 10.3707 6.4817C9.52109 6.4817 9.01599 7.05997 8.81407 7.61789C8.7328 7.81764 8.6928 8.09629 8.6928 8.37617V13.9998H5.61962V7.35897H5.61838Z" fill="white"/>
</svg>
