<svg width="22" height="3" viewBox="0 0 22 3" fill="none" xmlns="http://www.w3.org/2000/svg">
<g clip-path="url(#clip0_634_99)">
<path d="M22 1.53059C22.0052 1.32902 21.9711 1.12844 21.8997 0.940992C21.8284 0.753545 21.7213 0.583124 21.5849 0.44004C21.4485 0.296956 21.2856 0.184182 21.1062 0.108543C20.9268 0.0329029 20.7345 -0.00403106 20.5409 -2.46179e-05H5.7582C5.56606 -0.00501753 5.37493 0.0303574 5.1962 0.10399C5.01747 0.177622 4.85481 0.288003 4.71792 0.428547C4.58183 0.562928 4.47425 0.725511 4.40213 0.905826C4.33001 1.08614 4.29494 1.28019 4.29917 1.47549C4.29537 1.67617 4.33052 1.87558 4.4025 2.06177C4.47448 2.24796 4.58181 2.41709 4.71806 2.55902C4.8543 2.70095 5.01666 2.81276 5.19539 2.88774C5.37412 2.96273 5.56555 2.99934 5.7582 2.99538H20.5409C20.9263 3.00669 21.3003 2.85867 21.5812 2.58365C21.7184 2.44887 21.8267 2.28534 21.8989 2.10384C21.971 1.92233 22.0055 1.72696 22 1.53059Z" fill="#D89A26"/>
<path d="M1.43993 3C2.23518 3 2.87985 2.32843 2.87985 1.5C2.87985 0.671573 2.23518 0 1.43993 0C0.644677 0 0 0.671573 0 1.5C0 2.32843 0.644677 3 1.43993 3Z" fill="#D89A26"/>
</g>
<defs>
<clipPath id="clip0_634_99">
<rect width="22" height="3" fill="white"/>
</clipPath>
</defs>
</svg>
