<svg width="113" height="39" viewBox="0 0 113 39" fill="none" xmlns="http://www.w3.org/2000/svg">
<g opacity="0.8" clip-path="url(#clip0_329_497)">
<path d="M17.1018 2.45801C7.8434 2.45801 0.337646 9.96356 0.337646 19.2219C0.337646 28.4807 7.8434 35.9856 17.1018 35.9856C26.3611 35.9856 33.8661 28.4807 33.8661 19.2219C33.8661 9.96416 26.3611 2.45881 17.1016 2.45881L17.1018 2.45801V2.45801ZM24.7897 26.6364C24.4894 27.1288 23.8448 27.285 23.3524 26.9827C19.4163 24.5785 14.4613 24.034 8.62592 25.3672C8.0636 25.4953 7.50308 25.143 7.37496 24.5805C7.24625 24.018 7.59717 23.4574 8.16089 23.3293C14.5468 21.8704 20.0245 22.4986 24.4434 25.1991C24.9358 25.5013 25.092 26.1439 24.7897 26.6364V26.6364ZM26.8416 22.0718C26.4632 22.6867 25.6585 22.8809 25.0439 22.5026C20.5378 19.7328 13.6688 18.9307 8.33886 20.5486C7.64762 20.7573 6.91754 20.3678 6.70775 19.6777C6.49955 18.9865 6.88931 18.2578 7.57935 18.0476C13.6676 16.2003 21.2364 17.0952 26.4112 20.2751C27.0258 20.6535 27.2199 21.4582 26.8416 22.072V22.0718ZM27.0178 17.3186C21.6147 14.1094 12.7005 13.8143 7.54192 15.38C6.71355 15.6312 5.83754 15.1636 5.58651 14.3352C5.33547 13.5064 5.80271 12.631 6.63168 12.3792C12.5534 10.5815 22.3975 10.9288 28.618 14.6217C29.3647 15.0639 29.609 16.0262 29.1665 16.7703C28.7261 17.5153 27.7612 17.761 27.0186 17.3186H27.0178ZM45.9473 17.9335C43.0526 17.2433 42.5381 16.7588 42.5381 15.7409C42.5381 14.7792 43.443 14.132 44.7902 14.132C46.0954 14.132 47.3886 14.6235 48.7459 15.6352C48.7859 15.6658 48.838 15.678 48.888 15.67C48.9401 15.6624 48.9841 15.6346 49.0141 15.5928L50.4274 13.6005C50.4855 13.5184 50.4695 13.4053 50.3914 13.3427C48.7759 12.0469 46.9582 11.4169 44.8323 11.4169C41.7074 11.4169 39.5233 13.2924 39.5233 15.9759C39.5233 18.8536 41.4071 19.8725 44.6621 20.6591C47.4307 21.297 47.8991 21.8315 47.8991 22.7868C47.8991 23.8458 46.9542 24.5044 45.4328 24.5044C43.7432 24.5044 42.364 23.9339 40.8225 22.6007C40.7845 22.5666 40.7325 22.5526 40.6844 22.5546C40.6324 22.5586 40.5863 22.5826 40.5543 22.6207L38.9688 24.5064C38.9028 24.5865 38.9108 24.7026 38.9868 24.7707C40.7805 26.3721 42.9865 27.2169 45.3687 27.2169C48.7359 27.2169 50.9119 25.3772 50.9119 22.5286C50.9179 20.125 49.4786 18.7937 45.9533 17.9361L45.9473 17.9335V17.9335ZM58.5309 15.0789C57.0716 15.0789 55.8745 15.6538 54.8856 16.8319V15.5059C54.8856 15.4012 54.8015 15.3159 54.6974 15.3159H52.105C52.0009 15.3159 51.9168 15.4012 51.9168 15.5059V30.2397C51.9168 30.3438 52.0009 30.4299 52.105 30.4299H54.6974C54.8015 30.4299 54.8856 30.3438 54.8856 30.2397V25.5894C55.8745 26.6964 57.0716 27.2389 58.5309 27.2389C61.2435 27.2389 63.99 25.151 63.99 21.1595C63.994 17.1672 61.2475 15.0787 58.5329 15.0787L58.5309 15.0789ZM60.9752 21.1595C60.9752 23.1912 59.724 24.6105 57.9304 24.6105C56.1587 24.6105 54.8215 23.1271 54.8215 21.1595C54.8215 19.1917 56.1587 17.7087 57.9304 17.7087C59.694 17.7085 60.9752 19.1595 60.9752 21.1593V21.1595ZM71.0265 15.0789C67.5333 15.0789 64.7967 17.7686 64.7967 21.203C64.7967 24.6005 67.5153 27.261 70.9845 27.261C74.4897 27.261 77.2343 24.5805 77.2343 21.1595C77.2343 17.7502 74.5077 15.0793 71.0265 15.0793V15.0789V15.0789ZM71.0265 24.6305C69.1688 24.6305 67.7675 23.1372 67.7675 21.1585C67.7675 19.1709 69.1207 17.7285 70.9845 17.7285C72.8542 17.7285 74.2635 19.2213 74.2635 21.202C74.2635 23.1892 72.9022 24.6305 71.0265 24.6305V24.6305ZM84.6932 15.3159H81.8405V12.4C81.8405 12.2955 81.7565 12.2102 81.6524 12.2102H79.06C78.9559 12.2102 78.8698 12.2955 78.8698 12.4V15.3159H77.6246C77.5205 15.3159 77.4365 15.4012 77.4365 15.5059V17.7333C77.4365 17.8378 77.5205 17.9233 77.6246 17.9233H78.8698V23.6877C78.8698 26.0158 80.0288 27.1969 82.317 27.1969C83.2458 27.1969 84.0165 27.0047 84.7432 26.5923C84.8033 26.5603 84.8393 26.4963 84.8393 26.4282V24.3062C84.8393 24.2422 84.8053 24.1801 84.7492 24.1461C84.6932 24.1101 84.6231 24.1081 84.565 24.1381C84.0666 24.3883 83.5841 24.5044 83.0436 24.5044C82.2129 24.5044 81.8405 24.1261 81.8405 23.2813V17.9243H84.6932C84.7973 17.9243 84.8813 17.839 84.8813 17.7343V15.5071C84.8853 15.4024 84.8013 15.3171 84.6952 15.3171L84.6932 15.3159V15.3159ZM94.6304 15.3273V14.9692C94.6304 13.9156 95.0347 13.4458 95.9396 13.4458C96.4801 13.4458 96.9145 13.5531 97.4009 13.7152C97.461 13.734 97.5231 13.7246 97.5711 13.6888C97.6211 13.653 97.6492 13.5955 97.6492 13.5347V11.3506C97.6492 11.2672 97.5971 11.1933 97.515 11.1687C97.0026 11.0159 96.346 10.8592 95.361 10.8592C92.9688 10.8592 91.7017 12.2072 91.7017 14.7562V15.3047H90.4565C90.3524 15.3047 90.2663 15.39 90.2663 15.4945V17.7333C90.2663 17.8378 90.3524 17.9233 90.4565 17.9233H91.7017V26.8126C91.7017 26.9187 91.7877 27.0027 91.8918 27.0027H94.4822C94.5883 27.0027 94.6724 26.9187 94.6724 26.8126V17.9239H97.0926L100.8 26.8126C100.38 27.7454 99.9653 27.9316 99.4008 27.9316C98.9444 27.9316 98.4619 27.7955 97.9715 27.5252C97.9254 27.5012 97.8694 27.4972 97.8213 27.5112C97.7713 27.5292 97.7292 27.5652 97.7092 27.6133L96.8304 29.5411C96.7884 29.6332 96.8244 29.7393 96.9125 29.7873C97.8293 30.2838 98.6561 30.496 99.679 30.496C101.593 30.496 102.652 29.6031 103.583 27.2049L108.079 15.5868C108.103 15.5283 108.095 15.4622 108.059 15.4104C108.025 15.3589 107.967 15.3279 107.905 15.3279H105.206C105.124 15.3279 105.052 15.3794 105.026 15.4552L102.261 23.3493L99.2346 15.45C99.2066 15.3766 99.1365 15.3279 99.0585 15.3279H94.6304V15.3273V15.3273ZM88.869 15.3159H86.2766C86.1725 15.3159 86.0865 15.4012 86.0865 15.5059V26.8126C86.0865 26.9187 86.1725 27.0027 86.2766 27.0027H88.869C88.9731 27.0027 89.0592 26.9187 89.0592 26.8126V15.5067C89.0592 15.402 88.9751 15.3167 88.869 15.3167V15.3159ZM87.5879 10.1673C86.5609 10.1673 85.7281 10.9985 85.7281 12.0253C85.7281 13.0526 86.5609 13.8848 87.5879 13.8848C88.6148 13.8848 89.4456 13.0526 89.4456 12.0253C89.4456 10.9987 88.6128 10.1673 87.5879 10.1673ZM110.293 18.9515C109.268 18.9515 108.469 18.1277 108.469 17.1274C108.469 16.1271 109.278 15.2939 110.303 15.2939C111.328 15.2939 112.127 16.1175 112.127 17.117C112.127 18.1173 111.318 18.9515 110.293 18.9515ZM110.303 15.4753C109.368 15.4753 108.661 16.2179 108.661 17.1274C108.661 18.0364 109.364 18.7691 110.293 18.7691C111.228 18.7691 111.934 18.027 111.934 17.117C111.934 16.2079 111.232 15.4753 110.303 15.4753V15.4753ZM110.707 17.3046L111.224 18.0268H110.787L110.323 17.3642H109.925V18.0268H109.56V16.1122H110.413C110.859 16.1122 111.152 16.3399 111.152 16.723C111.154 17.0369 110.971 17.2287 110.709 17.3046H110.707ZM110.399 16.4408H109.925V17.0463H110.399C110.635 17.0463 110.777 16.9304 110.777 16.7432C110.777 16.5462 110.635 16.4408 110.399 16.4408V16.4408Z" fill="#3A3A3A"/>
</g>
<defs>
<clipPath id="clip0_329_497">
<rect width="111.759" height="38.3173" fill="white" transform="translate(0.280029)"/>
</clipPath>
</defs>
</svg>
