<svg width="115" height="54" viewBox="0 0 115 54" fill="none" xmlns="http://www.w3.org/2000/svg">
<g clip-path="url(#clip0_329_559)">
<path fill-rule="evenodd" clip-rule="evenodd" d="M3.78001 50.2237C4.18778 48.738 4.36508 45.6141 4.48918 43.8589C4.7764 39.3485 4.0885 37.5259 3.03183 35.5509C0.305045 30.4626 -0.826091 25.0125 0.652542 20.5873C5.14872 7.15193 27.892 6.7938 32.4236 21.0092C33.03 22.8956 32.2038 24.4026 33.2711 25.6685C34.0654 26.6117 35.4908 28.562 35.8915 28.9449C36.7248 29.7321 37.1609 30.4945 36.6929 31.5724C36.3064 32.4731 35.7638 32.1327 34.9518 32.4447C34.2037 32.7993 34.4483 33.4198 34.6292 34.051C34.8916 34.9906 34.388 35.441 34.1186 35.4693L32.5123 35.6395C31.4024 35.7601 31.7145 36.8664 32.2251 37.182C32.7 37.4747 33.194 37.7353 33.7037 37.9621C34.6008 38.3167 34.3171 39.2563 34.1753 39.8414C34.0441 40.3095 34.2143 40.7031 34.2781 41.2101C34.6008 43.7596 33.1009 43.8234 30.867 44.0114C27.3424 44.3057 23.5164 42.7632 22.9597 46.9332L22.52 50.2202L3.78001 50.2237Z" fill="#D89A26"/>
<path fill-rule="evenodd" clip-rule="evenodd" d="M91.7747 50.1067L91.335 46.8232C90.7747 42.6497 86.9487 44.1958 83.4241 43.8979C81.1938 43.7135 79.6903 43.6497 80.013 41.0967C80.0768 40.5896 80.247 40.196 80.1194 39.7279C79.9775 39.1429 79.6903 38.2209 80.5874 37.8486C81.0984 37.6259 81.5926 37.3663 82.0661 37.0721C82.5767 36.7565 82.8923 35.6537 81.7824 35.5296L80.1761 35.3559C79.9066 35.3275 79.3996 34.8772 79.6655 33.9375C79.8428 33.3064 80.0875 32.6681 79.3393 32.3312C78.5308 32.0192 77.9883 32.3596 77.5983 31.459C77.1302 30.3952 77.5699 29.6186 78.3996 28.8315C78.8003 28.4485 80.2258 26.4947 81.02 25.5515C82.0838 24.2892 81.2647 22.7822 81.8675 20.8922C86.4027 6.68034 109.146 7.03493 113.639 20.4738C115.117 24.8955 113.993 30.3491 111.27 35.4339C110.206 37.4125 109.525 39.2315 109.816 43.7419C109.926 45.5148 110.107 48.6246 110.525 50.1245L91.7747 50.1067Z" stroke="white" stroke-width="1.41835" stroke-miterlimit="10"/>
<path d="M51.71 27.3989V46.4722" stroke="#D89A26" stroke-width="1.31198" stroke-miterlimit="10"/>
<path d="M47.1885 31.4414V42.4301" stroke="#D89A26" stroke-width="1.31198" stroke-miterlimit="10"/>
<path d="M42.667 34.3276V39.5472" stroke="#D89A26" stroke-width="1.31198" stroke-miterlimit="10"/>
<path d="M62.8584 46.4722V27.3989" stroke="white" stroke-width="1.21978" stroke-miterlimit="10"/>
<path d="M67.3789 42.4301V31.4414" stroke="white" stroke-width="1.21978" stroke-miterlimit="10"/>
<path d="M71.8994 39.5472V34.3276" stroke="white" stroke-width="1.21978" stroke-miterlimit="10"/>
<path d="M56.9824 20.144V53.7271" stroke="#D89A26" stroke-width="1.31198" stroke-miterlimit="10"/>
<path d="M75.8253 9.56299H40.4941" stroke="white" stroke-width="1.41835" stroke-miterlimit="10"/>
<path d="M43.5719 1.56738V9.57398H39.1963V5.93945C39.1963 5.36501 39.3095 4.79619 39.5294 4.26552C39.7494 3.73484 40.0717 3.25271 40.4781 2.84668C40.8845 2.44065 41.3668 2.11868 41.8977 1.89917C42.4285 1.67966 42.9975 1.56692 43.5719 1.56738V1.56738Z" stroke="white" stroke-width="1.41835" stroke-miterlimit="10"/>
<path d="M75.1584 0H45.4971V7.63073H75.1584V0Z" fill="#D89A26"/>
<path d="M41.2387 11.538C41.7988 11.538 42.2529 11.084 42.2529 10.5239C42.2529 9.9638 41.7988 9.50977 41.2387 9.50977C40.6786 9.50977 40.2246 9.9638 40.2246 10.5239C40.2246 11.084 40.6786 11.538 41.2387 11.538Z" fill="white"/>
<path d="M49.2456 11.538C49.8057 11.538 50.2597 11.084 50.2597 10.5239C50.2597 9.9638 49.8057 9.50977 49.2456 9.50977C48.6855 9.50977 48.2314 9.9638 48.2314 10.5239C48.2314 11.084 48.6855 11.538 49.2456 11.538Z" fill="white"/>
<path d="M51.4614 11.538C52.0215 11.538 52.4755 11.084 52.4755 10.5239C52.4755 9.9638 52.0215 9.50977 51.4614 9.50977C50.9013 9.50977 50.4473 9.9638 50.4473 10.5239C50.4473 11.084 50.9013 11.538 51.4614 11.538Z" fill="white"/>
<path d="M53.6772 11.538C54.2373 11.538 54.6913 11.084 54.6913 10.5239C54.6913 9.9638 54.2373 9.50977 53.6772 9.50977C53.1171 9.50977 52.6631 9.9638 52.6631 10.5239C52.6631 11.084 53.1171 11.538 53.6772 11.538Z" fill="white"/>
<path d="M69.8715 11.538C70.4316 11.538 70.8857 11.084 70.8857 10.5239C70.8857 9.9638 70.4316 9.50977 69.8715 9.50977C69.3115 9.50977 68.8574 9.9638 68.8574 10.5239C68.8574 11.084 69.3115 11.538 69.8715 11.538Z" fill="white"/>
<path d="M72.0913 11.538C72.6514 11.538 73.1054 11.084 73.1054 10.5239C73.1054 9.9638 72.6514 9.50977 72.0913 9.50977C71.5312 9.50977 71.0771 9.9638 71.0771 10.5239C71.0771 11.084 71.5312 11.538 72.0913 11.538Z" fill="white"/>
<path d="M39.1113 5.29053H41.4622" stroke="white" stroke-width="1.41835" stroke-miterlimit="10"/>
</g>
<defs>
<clipPath id="clip0_329_559">
<rect width="115" height="53.7272" fill="white"/>
</clipPath>
</defs>
</svg>
