<svg width="130" height="27" viewBox="0 0 130 27" fill="none" xmlns="http://www.w3.org/2000/svg">
<g clip-path="url(#clip0_329_750)">
<path d="M10.6505 2.22085C10.5324 1.88122 10.3132 1.58664 10.023 1.37733C9.73272 1.16803 9.38553 1.05418 9.02877 1.05134C8.66656 1.01176 8.30237 1.10562 8.00335 1.31561C7.6784 1.53416 7.43058 1.85112 7.29559 2.22085L0.0897767 19.6511C0.0304754 19.8325 0.00036939 20.0223 0.000607572 20.2134C-0.0102533 20.6082 0.124823 20.993 0.379568 21.2929C0.527829 21.4474 0.708167 21.5669 0.907626 21.6427C1.10709 21.7185 1.32071 21.7488 1.53317 21.7315C1.86223 21.7319 2.18268 21.6254 2.44713 21.4279C2.73084 21.2127 2.94746 20.92 3.0713 20.5845L4.57042 17.0197H13.1973L14.702 20.5507C14.8387 20.8961 15.0637 21.1988 15.3541 21.4279C15.6217 21.6376 15.9514 21.7505 16.2903 21.7483C16.7318 21.7351 17.1502 21.5461 17.454 21.2227C17.7579 20.8993 17.9225 20.4677 17.912 20.0222C17.9086 19.7807 17.8594 19.5422 17.7671 19.3194L10.6505 2.22085ZM5.98594 13.663L8.86716 6.83144L11.7707 13.663H5.98594Z" fill="#D99A27"/>
<path d="M32.613 -0.00014048C32.3821 -0.00611201 32.1524 0.0362707 31.9385 0.124335C31.7246 0.2124 31.5311 0.344236 31.3703 0.511523C31.2076 0.679115 31.0799 0.877922 30.9947 1.09619C30.9095 1.31445 30.8686 1.54773 30.8743 1.78224V7.51735C30.698 7.34537 30.5119 7.18391 30.317 7.0338C29.7655 6.62502 29.157 6.30101 28.5114 6.07233C27.7753 5.8136 27.0003 5.68612 26.2209 5.69561C24.9697 5.68245 23.7425 6.04235 22.6932 6.73018C21.6135 7.44121 20.7403 8.42886 20.1631 9.59211C19.5389 10.9087 19.2148 12.3496 19.2148 13.8091C19.2148 15.2686 19.5389 16.7095 20.1631 18.0261C20.7453 19.1947 21.6289 20.1834 22.7211 20.888C23.802 21.5788 25.0585 21.9382 26.3379 21.9226C27.0346 21.9315 27.7266 21.8075 28.3776 21.5571C28.9614 21.3379 29.5127 21.039 30.0161 20.6687C30.3303 20.431 30.6197 20.1616 30.8799 19.8647C30.8754 20.0965 30.917 20.3269 31.0022 20.5422C31.0874 20.7576 31.2144 20.9535 31.3758 21.1186C31.708 21.4462 32.1541 21.6296 32.6186 21.6296C33.0831 21.6296 33.5292 21.4462 33.8614 21.1186C34.0234 20.9519 34.1504 20.754 34.2347 20.5365C34.3189 20.3191 34.3588 20.0868 34.3518 19.8535V1.78224C34.3615 1.54521 34.323 1.30869 34.2387 1.08724C34.1543 0.865796 34.0259 0.664121 33.8614 0.494652C33.6974 0.331065 33.5022 0.202842 33.2876 0.11778C33.073 0.0327183 32.8435 -0.00740368 32.613 -0.00014048ZM30.4842 16.3056C30.155 17.0156 29.6406 17.622 28.9962 18.0598C28.3338 18.4945 27.557 18.7178 26.767 18.7008C25.9768 18.72 25.1994 18.4964 24.5379 18.0598C23.8934 17.622 23.3791 17.0156 23.0499 16.3056C22.6772 15.5334 22.4865 14.6848 22.4926 13.826C22.4855 12.9562 22.6762 12.0964 23.0499 11.3126C23.3809 10.6053 23.8949 10.0012 24.5379 9.564C25.1994 9.1274 25.9768 8.90387 26.767 8.92301C27.557 8.90598 28.3338 9.12934 28.9962 9.564C29.6391 10.0012 30.1532 10.6053 30.4842 11.3126C30.8579 12.0964 31.0485 12.9562 31.0415 13.826C31.045 14.6791 30.8544 15.5217 30.4842 16.2887V16.3056Z" fill="#D99A27"/>
<path d="M56.4987 5.96536C56.1332 5.92294 55.7646 6.01265 55.4585 6.21855C55.1524 6.42445 54.9286 6.73319 54.8268 7.08989L51.7227 15.4845L49.4935 9.39518C49.3761 9.08501 49.1847 8.80883 48.9362 8.59114C48.6545 8.38834 48.3117 8.29092 47.9665 8.31563C47.6214 8.30005 47.2803 8.39649 46.9935 8.59078C46.7066 8.78507 46.489 9.06699 46.3726 9.39518L44.0877 15.6476L40.9892 7.08989C40.9016 6.73901 40.6842 6.43524 40.3817 6.24087C40.0832 6.06315 39.7419 5.97172 39.3953 5.9766C39.1549 5.96553 38.9153 6.0105 38.6949 6.10801C38.4746 6.20553 38.2794 6.35296 38.1247 6.53887C37.8254 6.8867 37.6611 7.33211 37.6621 7.79272C37.661 8.02286 37.7007 8.25135 37.7792 8.46744L42.2041 20.4943C42.3296 20.8734 42.5923 21.1907 42.9397 21.3827C43.272 21.5914 43.6687 21.6694 44.0543 21.602C44.3828 21.582 44.6982 21.4647 44.961 21.2646C45.2237 21.0646 45.422 20.7907 45.5311 20.4774L47.8606 13.2973L50.335 20.4774C50.4441 20.7907 50.6425 21.0646 50.9052 21.2646C51.1679 21.4647 51.4833 21.582 51.8118 21.602C52.1979 21.6585 52.5914 21.577 52.9242 21.3716C53.257 21.1663 53.5082 20.8499 53.6342 20.4774L58.0591 8.45057C58.098 8.3504 58.1278 8.2469 58.1483 8.14133C58.1672 8.02044 58.1765 7.89823 58.1761 7.77586C58.1845 7.53729 58.1454 7.29946 58.0611 7.07639C57.9769 6.85332 57.8493 6.64953 57.6857 6.47702C57.5348 6.31209 57.351 6.18124 57.1465 6.09305C56.9419 6.00487 56.7211 5.96135 56.4987 5.96536Z" fill="#3A3A3A"/>
<path d="M72.6207 6.5953C71.6987 5.93426 70.578 5.61631 69.4497 5.69567C68.8494 5.68973 68.2529 5.79257 67.6886 5.99929C67.1608 6.19468 66.6635 6.46545 66.2118 6.80333C65.7997 7.1116 65.4256 7.46835 65.0972 7.86602C64.9913 8.00096 64.9022 8.13028 64.8074 8.25398V1.7823C64.8139 1.54819 64.7738 1.31514 64.6896 1.0969C64.6054 0.878654 64.4787 0.679638 64.317 0.511582C63.9839 0.183598 63.5369 0 63.0715 0C62.606 0 62.159 0.183598 61.8259 0.511582C61.6652 0.68037 61.5392 0.879515 61.4551 1.09758C61.3709 1.31565 61.3303 1.54834 61.3355 1.7823V19.8254C61.3298 20.0586 61.3702 20.2906 61.4544 20.5078C61.5386 20.725 61.6649 20.9231 61.8259 21.0905C62.159 21.4185 62.606 21.6021 63.0715 21.6021C63.5369 21.6021 63.9839 21.4185 64.317 21.0905C64.479 20.9239 64.606 20.7259 64.6903 20.5085C64.7746 20.2911 64.8144 20.0587 64.8074 19.8254V12.3473C64.8005 11.7453 64.9341 11.1501 65.1975 10.6099C65.4628 10.0916 65.8713 9.66196 66.3734 9.37289C66.9452 9.04658 67.5949 8.88514 68.2515 8.9062C68.8663 8.8635 69.4778 9.02762 69.9903 9.37289C70.3939 9.68339 70.6872 10.1173 70.8262 10.6099C70.9888 11.1742 71.0677 11.7597 71.0603 12.3473V19.8254C71.0533 20.0587 71.0931 20.2911 71.1774 20.5085C71.2617 20.7259 71.3887 20.9239 71.5507 21.0905C71.8838 21.4185 72.3308 21.6021 72.7962 21.6021C73.2617 21.6021 73.7087 21.4185 74.0418 21.0905C74.2028 20.9231 74.3291 20.725 74.4133 20.5078C74.4975 20.2906 74.5379 20.0586 74.5322 19.8254V12.3473C74.5455 11.2206 74.4087 10.0973 74.1254 9.00742C73.8896 8.06291 73.3628 7.21831 72.6207 6.5953Z" fill="#3A3A3A"/>
<path d="M89.6856 7.98429C89.022 7.27822 88.2315 6.70581 87.3561 6.29749C86.4829 5.89001 85.5317 5.6808 84.5697 5.68462C83.298 5.68173 82.0488 6.0235 80.9528 6.67421C79.7869 7.35196 78.8242 8.33496 78.1663 9.51928C77.4261 10.8981 77.0608 12.45 77.1075 14.0174C77.084 15.4227 77.4179 16.8107 78.0772 18.0488C78.724 19.2328 79.6901 20.2076 80.8637 20.8602C82.1719 21.5773 83.6442 21.9341 85.1325 21.8947C86.0815 21.8955 87.0236 21.7339 87.919 21.4168C88.6832 21.1704 89.3982 20.7897 90.0311 20.2923C90.2688 20.1346 90.4664 19.9226 90.6077 19.6735C90.7491 19.4244 90.8303 19.1452 90.8448 18.8585C90.8466 18.6687 90.8099 18.4806 90.7371 18.3056C90.6642 18.1306 90.5568 17.9724 90.4212 17.8408C90.286 17.6972 90.1223 17.584 89.9409 17.5084C89.7594 17.4328 89.5642 17.3967 89.368 17.4022C89.0238 17.4104 88.6861 17.499 88.3816 17.6609C88.1698 17.779 87.9357 17.9195 87.6738 18.0882C87.3531 18.2762 87.008 18.4182 86.6484 18.5099C86.0879 18.642 85.5128 18.7006 84.9375 18.6842C84.1547 18.6844 83.3857 18.4766 82.7077 18.0818C82.0298 17.687 81.4668 17.1191 81.0754 16.4351C80.8095 15.989 80.621 15.5003 80.5181 14.9901H90.0646C90.5087 14.9963 90.94 14.8405 91.2795 14.5516C91.448 14.4164 91.5852 14.2457 91.6814 14.0515C91.7777 13.8572 91.8307 13.6441 91.8368 13.427C91.8435 12.4034 91.6424 11.3893 91.246 10.447C90.8755 9.53887 90.347 8.70485 89.6856 7.98429ZM81.6383 9.90161C82.0036 9.53682 82.451 9.26673 82.9424 9.11445C83.4689 8.95808 84.0152 8.88041 84.5641 8.88391C85.1439 8.88454 85.7158 9.01918 86.236 9.2775C86.7499 9.52945 87.2027 9.89223 87.5623 10.3402C87.9127 10.7714 88.1211 11.302 88.1586 11.8583V12.0663H80.5794C80.6191 11.8372 80.6769 11.6115 80.7522 11.3916C80.9319 10.8337 81.2349 10.3242 81.6383 9.90161Z" fill="#3A3A3A"/>
<path d="M106.326 7.98429C105.663 7.27822 104.872 6.70581 103.997 6.29749C103.124 5.89001 102.172 5.6808 101.21 5.68462C99.9386 5.68173 98.6895 6.0235 97.5934 6.67421C96.4287 7.35351 95.4663 8.33614 94.807 9.51928C94.0667 10.8981 93.7014 12.45 93.7481 14.0174C93.7247 15.4227 94.0585 16.8107 94.7178 18.0488C95.3646 19.2328 96.3308 20.2076 97.5043 20.8602C98.8125 21.5773 100.285 21.9341 101.773 21.8947C102.722 21.8955 103.664 21.7339 104.56 21.4168C105.324 21.1704 106.039 20.7897 106.672 20.2923C106.909 20.1346 107.107 19.9226 107.248 19.6735C107.39 19.4244 107.471 19.1452 107.485 18.8585C107.487 18.6687 107.451 18.4806 107.378 18.3056C107.305 18.1306 107.197 17.9724 107.062 17.8408C106.927 17.6972 106.763 17.584 106.581 17.5084C106.4 17.4328 106.205 17.3967 106.009 17.4022C105.664 17.4104 105.327 17.499 105.022 17.6609C104.81 17.779 104.576 17.9195 104.314 18.0882C103.994 18.2762 103.649 18.4182 103.289 18.5099C102.73 18.6419 102.157 18.7005 101.584 18.6842C100.8 18.6854 100.03 18.4781 99.3508 18.0832C98.6718 17.6884 98.1079 17.1199 97.716 16.4351C97.4592 15.988 97.2819 15.4989 97.1922 14.9901H106.733C107.177 14.9973 107.609 14.8414 107.948 14.5516C108.116 14.4164 108.254 14.2457 108.35 14.0515C108.446 13.8572 108.499 13.6441 108.505 13.427C108.512 12.4034 108.311 11.3893 107.915 10.447C107.536 9.53676 106.998 8.7026 106.326 7.98429ZM98.2789 9.90161C98.6442 9.53682 99.0917 9.26673 99.583 9.11445C100.109 8.95808 100.656 8.88041 101.205 8.88391C101.784 8.88454 102.356 9.01918 102.877 9.2775C103.391 9.52945 103.843 9.89223 104.203 10.3402C104.553 10.7714 104.762 11.302 104.799 11.8583V12.0663H97.2201C97.2624 11.8377 97.3201 11.6123 97.3928 11.3916C97.5726 10.8337 97.8755 10.3242 98.2789 9.90161Z" fill="#3A3A3A"/>
<path d="M113.477 0.151914C113.244 0.146531 113.013 0.188807 112.797 0.276192C112.58 0.363577 112.384 0.494258 112.22 0.66033C112.055 0.826402 111.925 1.02442 111.839 1.24242C111.752 1.46042 111.71 1.69387 111.716 1.92867V19.9718C111.709 20.206 111.748 20.4392 111.833 20.6575C111.917 20.8759 112.044 21.0748 112.206 21.2425C112.362 21.409 112.55 21.5406 112.76 21.6288C112.969 21.717 113.194 21.7597 113.421 21.7542C113.654 21.7587 113.886 21.7158 114.102 21.6278C114.319 21.5399 114.515 21.4088 114.68 21.2423C114.845 21.0759 114.975 20.8776 115.062 20.6593C115.15 20.4409 115.192 20.2071 115.188 19.9718V1.92867C115.194 1.69635 115.155 1.46501 115.073 1.24791C114.991 1.03081 114.867 0.832238 114.708 0.663573C114.551 0.4946 114.36 0.361521 114.147 0.273271C113.935 0.185021 113.706 0.143644 113.477 0.151914Z" fill="#3A3A3A"/>
<path d="M129.537 15.1082C129.243 14.5666 128.827 14.1024 128.322 13.7531C127.806 13.3945 127.243 13.1088 126.65 12.9041C126.054 12.6904 125.463 12.5049 124.884 12.3418C124.304 12.1788 123.803 12.0269 123.307 11.8639C122.877 11.7299 122.479 11.51 122.136 11.2173C121.867 10.932 121.713 10.5562 121.702 10.1626C121.692 9.76898 121.827 9.38551 122.081 9.08629C122.331 8.86548 122.635 8.71602 122.961 8.65335C123.271 8.58725 123.586 8.55147 123.903 8.54651C124.554 8.53483 125.201 8.66526 125.798 8.92886C126.313 9.15561 126.765 9.50711 127.113 9.95218C127.376 10.1899 127.713 10.3289 128.066 10.3458C128.431 10.3821 128.796 10.2709 129.08 10.0365C129.263 9.91559 129.412 9.74778 129.509 9.55021C129.607 9.35265 129.652 9.13242 129.638 8.91199C129.609 8.53318 129.478 8.16954 129.259 7.86055C128.854 7.33254 128.34 6.89908 127.754 6.58983C127.163 6.27 126.531 6.03351 125.876 5.887C125.257 5.74962 124.626 5.67801 123.992 5.67334C123.063 5.67488 122.143 5.86614 121.289 6.23561C120.469 6.57589 119.746 7.11926 119.188 7.81557C118.642 8.52268 118.357 9.39914 118.38 10.2952C118.352 11.037 118.521 11.7729 118.871 12.4262C119.183 12.9739 119.621 13.4385 120.147 13.7812C120.683 14.132 121.262 14.4116 121.869 14.6134C122.493 14.827 123.106 15.0238 123.702 15.1756C124.299 15.3274 124.817 15.4961 125.279 15.6704C125.697 15.8166 126.085 16.0355 126.427 16.317C126.569 16.4438 126.682 16.601 126.756 16.777C126.83 16.9531 126.865 17.1436 126.857 17.3347C126.875 17.5394 126.849 17.7455 126.782 17.9395C126.715 18.1334 126.607 18.3106 126.467 18.4593C126.216 18.7012 125.9 18.8635 125.558 18.9259C125.242 18.9915 124.922 19.0366 124.6 19.0609C123.803 19.0869 123.012 18.9272 122.287 18.5942C121.632 18.2539 121.035 17.8097 120.52 17.2785C120.263 16.9732 119.904 16.7732 119.511 16.7162C119.165 16.6879 118.818 16.7748 118.525 16.9636C118.315 17.0714 118.136 17.2311 118.005 17.4278C117.873 17.6245 117.793 17.8518 117.773 18.0882C117.738 18.4586 117.831 18.8297 118.035 19.1396C118.744 20.1216 119.734 20.8613 120.871 21.2593C121.967 21.6504 123.12 21.8519 124.282 21.8553C125.198 21.8467 126.103 21.6557 126.946 21.2931C127.789 20.9541 128.534 20.407 129.114 19.7019C129.698 18.9886 130.007 18.0858 129.983 17.1604C130.004 16.4497 129.851 15.7447 129.537 15.1082Z" fill="#3A3A3A"/>
<path d="M113.448 27.0056C114.412 27.0056 115.193 26.2177 115.193 25.2457C115.193 24.2738 114.412 23.4858 113.448 23.4858C112.485 23.4858 111.704 24.2738 111.704 25.2457C111.704 26.2177 112.485 27.0056 113.448 27.0056Z" fill="#3A3A3A"/>
</g>
<defs>
<clipPath id="clip0_329_750">
<rect width="130" height="27" fill="white"/>
</clipPath>
</defs>
</svg>
