<svg width="28" height="28" viewBox="0 0 28 28" fill="none" xmlns="http://www.w3.org/2000/svg">
<g opacity="0.5">
<circle cx="14" cy="14" r="13.5" stroke="#33266B"/>
<path d="M10.4278 9.24404L14 12.8164L17.5722 9.24404C17.8702 8.94611 18.3423 8.91836 18.6949 9.19388L18.756 9.24947C19.0813 9.57485 19.0813 10.1024 18.756 10.4278L15.1836 14L18.756 17.5722C19.0539 17.8702 19.0816 18.3423 18.8061 18.6949L18.7505 18.756C18.4252 19.0813 17.8976 19.0813 17.5722 18.756L14 15.1836L10.4278 18.756C10.1298 19.0539 9.65774 19.0816 9.30507 18.8061L9.24404 18.7505C8.91866 18.4252 8.91865 17.8976 9.24404 17.5722L12.8163 14L9.24404 10.4278C8.94611 10.1298 8.91836 9.65774 9.19389 9.30507L9.24945 9.24404C9.57483 8.91865 10.1024 8.91865 10.4278 9.24404ZM9.84528 18.5833C9.84306 18.5833 9.84084 18.5833 9.83862 18.5833L9.84528 18.5833ZM9.9006 18.5787L9.88234 18.581C9.88839 18.5804 9.89451 18.5796 9.9006 18.5787ZM9.7772 18.5788L9.78463 18.5798C9.78211 18.5795 9.77959 18.5792 9.77708 18.5788L9.7772 18.5788ZM9.72484 18.5676L9.73135 18.5694C9.7291 18.5688 9.72688 18.5681 9.72464 18.5675L9.72484 18.5676ZM9.95349 18.5673L9.93104 18.573C9.93854 18.5713 9.94604 18.5694 9.95349 18.5673ZM10.0006 18.5506L9.98333 18.5575C9.9891 18.5554 9.99488 18.5531 10.0006 18.5506ZM9.67652 18.5506C9.67857 18.5515 9.67757 18.5511 9.67657 18.5506L9.67652 18.5506ZM9.62764 18.5261L9.58334 18.496C9.60184 18.5104 9.62126 18.523 9.6414 18.5338L9.62764 18.5261ZM10.0494 18.5262L10.036 18.5337C10.0404 18.5314 10.0449 18.5288 10.0494 18.5262ZM18.5338 18.3586L18.5261 18.3723L18.496 18.4167C18.5104 18.3982 18.523 18.3787 18.5338 18.3586ZM18.5569 18.3078L18.5506 18.3235C18.5528 18.3182 18.5549 18.313 18.5569 18.3078ZM18.5728 18.2546L18.5676 18.2751C18.5695 18.2685 18.5712 18.2616 18.5728 18.2546ZM18.581 18.2054L18.5788 18.2228C18.5797 18.2171 18.5804 18.2112 18.581 18.2054ZM18.1614 9.83319L14 13.9947L9.83862 9.83319L9.83318 9.83862L13.9947 14L9.83318 18.1614L9.83862 18.1668L14 14.0053L18.1614 18.1668L18.1668 18.1614L14.0053 14L18.1668 9.83862L18.1614 9.83319ZM18.5833 18.1547L18.5833 18.1668C18.5834 18.1628 18.5833 18.1588 18.5833 18.1547ZM18.5787 18.0994L18.581 18.1177C18.5804 18.1116 18.5796 18.1055 18.5787 18.0994ZM18.5673 18.0465L18.573 18.069C18.5713 18.0614 18.5694 18.0539 18.5673 18.0465ZM18.5507 17.9993L18.5575 18.0167C18.5554 18.0109 18.5531 18.0051 18.5507 17.9993ZM18.5262 17.9506L18.5337 17.964C18.5313 17.9596 18.5288 17.9551 18.5262 17.9506ZM9.46628 10.036L9.47256 10.0473C9.47037 10.0435 9.46824 10.0397 9.46618 10.0358L9.46628 10.036ZM9.4425 9.98332L9.4481 9.99767C9.44613 9.99289 9.44426 9.98808 9.44248 9.98324L9.4425 9.98332ZM9.42699 9.93105L9.43065 9.94588C9.42934 9.94094 9.42812 9.93599 9.42699 9.93101V9.93105ZM9.41878 9.88067L9.42015 9.89262C9.41963 9.88862 9.41918 9.88462 9.41878 9.88061V9.88067ZM9.41684 9.82653L9.41666 9.83862C9.41666 9.83456 9.41672 9.83051 9.41684 9.82646V9.82653ZM9.42119 9.7772L9.42015 9.78462C9.42048 9.7821 9.42084 9.77959 9.42122 9.77707L9.42119 9.7772ZM9.43243 9.72485L9.43065 9.73136C9.43125 9.72912 9.43185 9.72687 9.43248 9.72464L9.43243 9.72485ZM9.44937 9.67652C9.44851 9.67857 9.44892 9.67758 9.44934 9.67659L9.44937 9.67652ZM9.47394 9.62765L9.50402 9.58333C9.48963 9.60184 9.47701 9.62127 9.46618 9.64141L9.47394 9.62765ZM10.0358 9.46618L10.0496 9.47393L10.0939 9.50401C10.0754 9.48963 10.056 9.47702 10.0358 9.46618ZM17.964 9.46627L17.9527 9.47257C17.9565 9.47038 17.9603 9.46825 17.9642 9.46618L17.964 9.46627ZM9.64125 9.46627L9.62998 9.47257C9.63377 9.47038 9.63756 9.46825 9.6414 9.46618L9.64125 9.46627ZM18.3586 9.46618L18.3724 9.47393L18.4167 9.50401C18.3982 9.48963 18.3787 9.47702 18.3586 9.46618ZM9.69226 9.44312L9.67957 9.44811C9.68377 9.44638 9.68799 9.44472 9.69224 9.44313L9.69226 9.44312ZM9.98325 9.44247L10.0007 9.44938C9.9949 9.44693 9.98909 9.44463 9.98325 9.44247ZM18.0167 9.4425L18.0023 9.44811C18.0071 9.44614 18.0119 9.44426 18.0167 9.44247L18.0167 9.4425ZM18.3078 9.44313L18.3235 9.44938C18.3182 9.44717 18.313 9.44509 18.3078 9.44313ZM9.74552 9.42715L9.73135 9.43064C9.73601 9.4294 9.7407 9.42825 9.74539 9.42718L9.74552 9.42715ZM9.93101 9.42699L9.95357 9.43276C9.94606 9.43061 9.93855 9.4287 9.93101 9.42699ZM18.069 9.42699L18.0541 9.43064C18.0591 9.42933 18.064 9.42811 18.069 9.42699L18.069 9.42699ZM18.2546 9.42718L18.2752 9.43243C18.2685 9.43054 18.2616 9.42877 18.2546 9.42718ZM9.7964 9.4188L9.78463 9.42016C9.78852 9.41965 9.7924 9.4192 9.7963 9.41881L9.7964 9.4188ZM9.88061 9.41878L9.90055 9.42127C9.89393 9.42028 9.88728 9.41945 9.88061 9.41878ZM18.1193 9.41878L18.1074 9.42016C18.1114 9.41964 18.1154 9.41918 18.1194 9.41878L18.1193 9.41878ZM18.2037 9.41881L18.2228 9.42119C18.2165 9.42026 18.2101 9.41946 18.2037 9.41881ZM18.1493 9.41684L18.1735 9.41684C18.1655 9.41661 18.1574 9.41661 18.1493 9.41684ZM9.82646 9.41684L9.8507 9.41684C9.84262 9.41661 9.83454 9.41661 9.82646 9.41684Z" fill="#33266B"/>
</g>
</svg>
