<svg width="97" height="80" viewBox="0 0 97 80" fill="none" xmlns="http://www.w3.org/2000/svg"><path d="M.026 38.264c0-3.001.075-6.007-.016-9.003-.147-4.837 4.25-9.597 9.677-9.582 2.517 0 5.04-.02 7.554 0a9.788 9.788 0 016.845 2.857 9.814 9.814 0 012.883 6.842c.038 6.284 0 12.565.031 18.848 0 .886-.3 1.069-1.097 1.03-1.238-.062-2.48.03-3.716-.033-.802-.041-1.128.194-1.186 1.033-.298 4.349-.648 8.693-.979 13.04-.405 5.3-.823 10.603-1.2 15.908-.045.652-.297.784-.88.781a437.934 437.934 0 00-8.879 0c-.76.012-.96-.295-1.003-.96-.248-3.47-.506-6.94-.775-10.407-.48-6.22-.96-12.44-1.425-18.66-.043-.574-.24-.75-.8-.74-1.32.029-2.639-.055-3.956.031C.166 49.33 0 48.973 0 48.108c.048-3.28.02-6.562.02-9.851l.006.007zM22.19 8.763a8.775 8.775 0 01-1.474 4.874 8.744 8.744 0 01-13.478 1.325A8.771 8.771 0 015.35 5.4 8.765 8.765 0 018.584 1.47 8.748 8.748 0 0113.454 0a8.689 8.689 0 016.194 2.556 8.71 8.71 0 012.543 6.207z" fill="#D89926"/><path d="M35.026 38.264c0-3.001.075-6.007-.016-9.003-.147-4.837 4.25-9.597 9.677-9.582 2.517 0 5.04-.02 7.554 0a9.788 9.788 0 016.845 2.857 9.814 9.814 0 012.883 6.842c.038 6.284 0 12.565.031 18.848 0 .886-.3 1.069-1.097 1.03-1.238-.062-2.48.03-3.716-.033-.802-.041-1.128.194-1.186 1.033-.297 4.349-.648 8.693-.979 13.04-.405 5.3-.823 10.603-1.2 15.908-.045.652-.297.784-.88.781a437.933 437.933 0 00-8.879 0c-.76.012-.96-.295-1.003-.96-.248-3.47-.506-6.94-.775-10.407-.48-6.22-.96-12.44-1.425-18.66-.043-.574-.24-.75-.8-.74-1.32.029-2.639-.055-3.956.031-.938.08-1.104-.276-1.104-1.141.048-3.28.02-6.562.02-9.851l.006.007zM57.19 8.763a8.775 8.775 0 01-1.474 4.874 8.744 8.744 0 01-13.478 1.325A8.77 8.77 0 0140.35 5.4a8.765 8.765 0 013.234-3.931A8.748 8.748 0 0148.454 0a8.689 8.689 0 016.194 2.556 8.71 8.71 0 012.543 6.207zM70.026 38.264c0-3.001.075-6.007-.016-9.003-.147-4.837 4.25-9.597 9.677-9.582 2.517 0 5.04-.02 7.554 0a9.788 9.788 0 016.845 2.857 9.814 9.814 0 012.883 6.842c.038 6.284 0 12.565.031 18.848 0 .886-.3 1.069-1.097 1.03-1.238-.062-2.48.03-3.717-.033-.801-.041-1.127.194-1.185 1.033-.297 4.349-.648 8.693-.979 13.04-.406 5.3-.823 10.603-1.2 15.908-.045.652-.297.784-.88.781a437.933 437.933 0 00-8.879 0c-.76.012-.96-.295-1.003-.96-.248-3.47-.506-6.94-.775-10.407-.48-6.22-.96-12.44-1.425-18.66-.043-.574-.24-.75-.8-.74-1.32.029-2.639-.055-3.956.031-.938.08-1.104-.276-1.104-1.141.048-3.28.02-6.562.02-9.851l.006.007zM92.19 8.763a8.775 8.775 0 01-1.474 4.874 8.744 8.744 0 01-13.478 1.325A8.77 8.77 0 0175.35 5.4a8.765 8.765 0 013.234-3.931A8.748 8.748 0 0183.454 0a8.689 8.689 0 016.194 2.556 8.71 8.71 0 012.543 6.207z" fill="#E0E0E1"/></svg>