<svg width="28" height="28" viewBox="0 0 28 28" fill="none" xmlns="http://www.w3.org/2000/svg"><g opacity=".5"><circle cx="14" cy="14" r="13.5" stroke="#33266B"/><path d="M10.428 9.244L14 12.816l3.572-3.572a.84.84 0 011.123-.05l.061.055a.833.833 0 010 1.179L15.184 14l3.572 3.572a.84.84 0 01.05 1.123l-.056.061a.833.833 0 01-1.178 0L14 15.184l-3.572 3.572a.84.84 0 01-1.123.05l-.061-.056a.833.833 0 010-1.178L12.816 14l-3.572-3.572a.84.84 0 01-.05-1.123l.055-.061a.833.833 0 011.179 0zm-.583 9.34H9.84h.006zm.056-.005l-.019.002a.386.386 0 00.019-.002zm-.124 0h.008-.008zm-.052-.011l.006.001c-.002 0-.004 0-.006-.002zm.228 0l-.022.005a.447.447 0 00.022-.006zm.048-.017l-.018.007a.296.296 0 00.018-.007zm-.324 0c.002 0 0 0 0 0zm-.05-.025l-.044-.03a.41.41 0 00.058.038l-.013-.008zm.422 0l-.013.008.013-.008zm8.485-.167l-.008.013-.03.045a.412.412 0 00.038-.058zm.023-.051l-.006.015a.643.643 0 00.006-.015zm.016-.053l-.005.02a.383.383 0 00.005-.02zm.008-.05l-.002.018a.33.33 0 00.002-.018zm-.42-8.372L14 13.995 9.839 9.833l-.006.006L13.995 14l-4.162 4.161.006.006L14 14.005l4.161 4.162.006-.006L14.005 14l4.162-4.161-.006-.006zm.422 8.322v0zm-.004-.056l.002.019a.381.381 0 00-.002-.019zm-.012-.052l.006.022a.411.411 0 00-.006-.022zm-.016-.048l.007.018a.416.416 0 00-.007-.018zm-.025-.048l.008.013a.625.625 0 00-.008-.013zm-9.06-7.915l.007.011a.355.355 0 01-.007-.011zm-.023-.053l.005.015a.402.402 0 01-.006-.015zm-.016-.052l.004.015a.424.424 0 01-.004-.015zm-.008-.05l.001.012a.405.405 0 01-.001-.012zm-.002-.054v.012a.41.41 0 010-.013zm.004-.05v0zm.011-.052l-.001.006.001-.006zm.017-.048c0 .002 0 0 0 0zm.025-.05l.03-.044a.414.414 0 00-.038.058l.008-.013zm.562-.16l.014.007.044.03a.412.412 0 00-.058-.038zm7.928 0l-.011.006a.376.376 0 01.011-.007zm-8.323 0l-.011.006a.442.442 0 01.011-.007zm8.718 0l.013.007.045.03a.418.418 0 00-.058-.038zm-8.667-.024l-.012.005a.416.416 0 01.012-.005zm.291 0l.018.006a.413.413 0 00-.018-.007zm8.034 0l-.015.005a.476.476 0 01.015-.006zm.29 0l.017.006a.487.487 0 00-.016-.006zm-8.561-.016l-.015.004a.405.405 0 01.014-.004zm.185 0l.023.006a.417.417 0 00-.023-.006zm8.138 0l-.015.004a.425.425 0 01.015-.004zm.186 0l.02.005a.413.413 0 00-.02-.005zM9.796 9.42l-.011.001a.382.382 0 01.011-.001zm.085 0l.02.002a.416.416 0 00-.02-.002zm8.238 0l-.012.001a.408.408 0 01.012-.001zm.085 0l.019.002a.426.426 0 00-.02-.002zm-.055-.002h.024-.024zm-8.323 0h.025-.025z" fill="#33266B"/></g></svg>