<svg width="2232" height="1674" viewBox="0 0 2232 1674" fill="none" xmlns="http://www.w3.org/2000/svg"><path d="M1026.37 620.484l-.07.49-.32 1.073-.31.575-.43.501-.56.356-3.51.305-.48.366-.36.627-.23.949-.21 2.846-.38 1.38-.59 1.186-.75.928-.87.602-.95.217-1-.237-6.07-6.301-.81-.374-.64.192-.45.898-1.3 7.587-1.48 1.377-.5.709-.42.82-.23.919.06 1.941-.16.781-.32.65-2.62 2.449-.491.662-2.127 5.534-1.635 1.032-.536.581-.404.71-.178.838.138.967 6.543 20.609 8.28 6.859.9 4.193-.79.558-.44.65-.34.708-.16.628-.13.835v1.117l-.14 1.487-.4 1.416-.18.458-.18.363-.74.547-.94.504-3.39 2.835-1.01.593-.68.293-.62-.056-.61-.165-1.537-.704-.938-.17-.431.359-.11.726.164.736.539 1.613.181.698.054.715-.125 1.168-.018.624.143.589.432 1.296.163.611v.679l-.107.442-.56.84-.2.422-.25.763-.399.914-.919 1.383-.917.505-.902.192-2.043-.14-3.28.272-.902.264-.973.634-2.511 2.104-.845.414-.595.142-3.791-1.42-9.162 1.571-2.342-.292-2.728-.992-2.845-.56-4.857.16-1.405.331-.902.424-.485.78-.271.79-.127 1.006-.024.772.151 1.158-.036.61-.235.678-.692 1.071-.899.368-.973.093-1.568-.104-1.101.442-6.889 4.333-.702.798-.728.998-.667.691-1.298 1.028-.809.132-.884-.329-.756-.563-.938-.406-.991.086-11.078 5.785-2.044.544h-.577l-.486-.159-.72-.357-.722-.188-1.28-.018-.991.327-.846.518-.396.338-1.088 1.144-4.973 3.253-6.802 2.828-1.356.78-.649.732-1.551 2.469-1.116 2.686-1.118 1.406-1.351.918-2.981 2.998-1.152.591-1.804.496-1.466.759-1.205 1.732-2.471 1.77-1.609-.014-5.226-1.316-1.065-.538-.738-.792-1.267-1.76-1.081-1.209-1.354-1.236-2.436-1.75-.866-.891-.36-.571.196-.732.217-.398 1.684-2.199.467-.759.396-.816-.253-1.482-.774-1.988-2.457-3.8-.884-1.84-.36-1.465.271-.851.217-.896.107-.958-.143-1.877-.417-2.321-.196-2.143-.036-1.213.214-3.944-.036-1.545-.196-1.572-.577-2.408-.595-1.176-.738-.86-1.791-.985-3.28-.847-3.538-.18-2.902-.602-1.478-1.105-.848-1.131-.761-1.558-.595-.769-.702-.541-7.594-.885-1.982-1.132-3.901-3.262 2.536-2.505 1.646-1.953.757-3.33.758-7.446.961-.671.973-.235.961.208.901.68 1.021.302 1.081.095 1.093-.085 1.057-.293h.011l.025-.019 3.28-1.134 6.127.359 2.86-2.144 1.669-3.033 3.869-10.372 2.259.209 1.886 1.324 1.934.86 2.439-1.249 1.237-3.709.649-1.164 4.362-3.104.696-.758.073-.663.324-.227 1.418.521.624.71 1.634 2.755.769.966 2.595 1.278 2.162-.54 1.97-1.798 2.019-2.528 1.153-.653.697-.862.108-1.108-.672-1.467 1.934-1.469 1.55-2.009.456-2.474-1.345-2.815 4.757-2.884 5.275-.996 10.441.057 2.241-.446 4.422-1.642 2.51-.256 5.335.598 2.09-.427 3.364-2.108.708-.019.673-.237.793-1.138.061-.969-.277-1.291-.144-1.558.493-1.785 1.069-1.32.986-.039 1.129.342 1.466-.218 1.189-.894 1.779-2.28 1.249-.893 2.271-.494 4.252.551 2.235-.152 18.118-8.34 1.418-1.332 2.127-3.217 1.262-1.247 4.18-.876 9.119.723 3.411-2.904.701-4.592-3.103-1.801-4.289-1.268-2.968-2.947.109-1.936.985-.687.181-.372-2.319-.944-3.929-.515-1.357-.897 1.298-1.88 1.633-5.318 2.787-2.847 3.701-.587 4.325 1.419.877.802.613 1.027.758 1.008 1.258.687 1.29.029 3.25-1.447 4.22.239 1.32-.687 1.01-2.555.67 1.566.26 1.113.39 1.108 1.1 1.514 1.44 1.012 3.13.792 1.43 1.126 1.41 1.708.89 1.46.36 1.803-.22 2.775-.9 2.221-1.39 2.651-.64 2.248 1.33 1.058 6.43-2.678 1.41.029.62 2.087-.67 2.448-1.97 4.638-.4 3.283z" stroke="#767676" stroke-width=".5" stroke-linecap="round" stroke-linejoin="round"/><path d="M1026.37 620.484l.56 1.38 4.04 1.142 1.66.923 4.44 3.386 4.31.97 2.53.095 1.87-.513 1.13-1.302 1.11-2.131 1.84-4.938 2.47.086 4.2-1.18 13.28.981.24-1.59-.14-6.399-.14-.523-.07-.706.11-1.029.32-.629 1.15-1.296.36-.933-.14-5.359-1.76-2.585-1.89-1.498-.49-2.09h.01l.53-.63.59-.486.66-.316.66-.143 1.68-1.231.54-.85.33-1.523 2.21 2.038 5.88 1.299.99 1.823 1.37 1.355 1.63.812 1.31-.268.39-1.88v-.019l1.04-2.416 1.5-1.06 1.36.688.54 2.806 1.1 2.709 6.62.106 3.09 1.545 1.87 3.024-.12 1.783-1.01 1.936-.82 3.392.35 2.619 1.08 3.248 1.37 3.047 1.24 1.999 2.32 1.865 2.1.932 1.77 1.465 1.39 3.452.04 1.788-.33 1.844-.1 1.748.75 1.52 1.45.461.2.061 1.28-1.358 1.11-1.958 1.08-1.35 4.84-.409 9.34 3.283 1.65 5.289 3.86 7.845.27 1.448-.21 1.036-.43 1.011-.29 1.398-.15 1.655.16 3.569.34 1.654.53 1.396 1.43 1.843.53.938.35 1.019.2 1.075.05 1.107-.07 1.115-.82 3.906.04.725.15.702 3.98 9.179.24 1.066.05 1.132-.19 1.224-.44 1.013-.66.539-.84.171-8.91-1.578-1.32-.898-2.43-2.606-.66-.345-.67-.12-.69.056-2.99 1.028-.65.525-.37.976-.39 5.824-.27 1.294-.5.975-.7.582-.75.231-.81-.09-.85-.382-1.74-1.496-3.55-4.582-2.23-1.8-5.07-2.056-1.25.012-1.13.47-5.03 5.686-.68.299-.72-.083-.79-.408-6.43-5.428-1.86-.656-.66.016-.49.144-.35.199-.27.248-4.13-3.723-1.23-2.261-1.03-5.37-3.01.804-.78-.171-.86-.322-.71-.671-2.21-2.64-.61-.416-.6-.171-2.78.2-.96-.455-1.11-.938-.81-.123-.85.218-1.32.605-.96-.029-1.13-.472-.67-.038-.56.265-.43.529-1.35 2.201-.68.837-2.39 2.035-.74.836-.47.714-1.23 2.448-.83 1.031-.97.87-1.93 1.049-.89.615-1.36 1.361-1.03.784-4.26 2.027-4.71 3.154-10.42 2.724-2.03.174-1.01-.136-.32-.235-.27-.426-.15-.519-.05-.591-.07-.524-.09-.443-.22-.535-.23-.447-.52-.265-.82-.123-1.78.123-2.2-.359-5.18.124-1.27.367-.89-4.193-8.29-6.858-6.537-20.609-.138-.968.179-.838.403-.71.537-.581 1.634-1.032 2.128-5.534.484-.662 2.63-2.449.32-.65.15-.781-.06-1.941.24-.919.41-.82.51-.708 1.47-1.378 1.31-7.587.44-.897.65-.193.81.374 6.07 6.301.99.237.96-.217.87-.602.75-.927.58-1.187.38-1.38.22-2.846.23-.949.36-.626.47-.367 3.51-.305.57-.355.43-.502.3-.574.32-1.074.08-.49zM734.929 719.185l5.577.413 2.235 1.59.685 1.683-.037 3.122.457 1.419 1.298 1.146 1.694.526 3.341.085.829.46.385.657-.06.836-.516 1.024-.18.029-.157.056-.156.103-.144.132-.312.347-.109.367.12.403.301.423 2.031 2.056.504.685.48 1.184.204 1.061.12.939 1.394 5 1.178 1.839 1.982.253 1.622-1.181v-1.614l-.673-1.941-.348-2.252.36-3.229.624-1.709 2.295-2.949.312-2.883.95-1.419 1.298-.912 1.321-1.391 3.605-6.574 1.249-1.242 3.413-1.919 1.381-1.243.421-.244 1.045.038.469-.253.252-.669-.072-.715-.156-.612-.024-.376.312-.819.24-.923.409-.904.864-.753 3.22-2.77 4.686-1.385 8.699-.65 6.212 1.131 1.513-.17 1.298-1.253 2.572-3.997 1.49-1.481 1.898-.688 1.862-.114 2.078.292.722-.282 1.633-1.085 1.045-.216.973.292 10.765 6.572 3.977.226.937-.925 3.9 3.262 1.982 1.132 7.594.885.703.541.594.769.762 1.558.847 1.131 1.479 1.105 2.902.602 3.538.181 3.28.846 1.791.985.738.86.595 1.176.576 2.408.197 1.572.036 1.545-.215 3.944.036 1.213.197 2.144.416 2.32.144 1.877-.108.958-.216.897-.271.85.36 1.465.884 1.84 2.456 3.8.775 1.989.253 1.481-.397.816-.467.759-1.683 2.199-.217.398-.197.732.36.572.866.89 2.437 1.75 1.354 1.237-1.196.533-.774.785-.414.965-.117 1.081.112 1.13.281 1.111.812 1.893.082.668-.513.49-6.746 1.49-.449.474-.233.722-.053.913.097 1.053 1.367 5.367-.173.672-.44.472-.636.286-1.569.039-1.5-.59-4.156-4.702-8.02-1.573-.537.115-1.216.758-2.504 2.757-10.765 5.875-.619.546-.46.917-1.565 7.638-.5.636-.739.214-1.878-.444-3.116-1.579-.389-.044-.922.254-2.894 2.167-.427.101-.431-.094-.437-.256-2.536-2.672-9.027-.183-.772.416-3.509 4.126-.552.361-1.66.279-2.033-.217-3.428-1.278-.644.03-.618.279-3.152 3.185-.864.492-1.098.195-5.503-1.043-.721-1.306-1.658-.643-4.758-2.799.133-1.96.805-2.437-.3-2.642-1.959-1.868-4.277-.449-1.778-1.757h-.12l-17.59-9.442-.372-1.15-.025-1.647-.24-1.853-1.033-1.788-1.683-1.46-1.862-1.077-1.646-1.509-1.009-2.744-.072-2.717.816-4.125-.336-2.728-.889-2.157-1.31-2.027-2.848-3.134-5.743-3.597-1.201-2.16 1.454-2.199 1.201-.789.781-.846.217-2.331-.432-2.595-.937-1.618-2.678-2.81 2.929.218z" stroke="#767676" stroke-width=".5" stroke-linecap="round" stroke-linejoin="round"/><path d="M900.126 960.591l-.749-.159-1.61.741-1.106 1.949-1.201 3.083-2.715-1.308-3.676-2.643-3.341-3.139-1.669-2.719-.073-4.973-1.298-3.088-4.937-5.041-3.533-4.741-1.418-1.229-2.332-.9-7.028-.33-3.291-1.928-1.851-2.984-1.526-3.498-10.885-14.829-1.441-.819-.025-.018-3.712-4.437-.529-1.657-.156-1.721-.649-1.456-2.018-.838-3.268-3.473-1.683-1.364-1.97-1.06-4.445-1.225-1.598.506.516 2.296-2.174.295-6.849-1.005-2.307-.839-1.838-1.909-3.809-8.551-2.343-2.428-5.359-2.53-2.271-1.894-1.321-2.586-.577-2.902-.336-5.871-.157-3.015-.864-.703-1.226.175-1.309-.398-1.262-1.324-.914-1.341-.733-1.602-.744-2.148-.469-2.102-.54-3.974-.817-1.946-1.226-1.353-2.775-1.53-1.19-1.447.084-.435.552-1.41-.925-.454-.3-.241.984-2.199-.084-2.384-.961-1.903-1.61-.844-3.868-1.857-1.778-1.216-1.67-1.514-2.403-3.464-1.201-2.305-.577-1.896 1.37-2.705 4.807-2.046 1.85-1.879.373-2.959.06-3.779.709-2.542 2.331.717.853-2.785 2.679-4.967.937-2.759.36-3.506 5.503 1.043 1.098-.195.863-.492 3.153-3.185.618-.279.644-.03 3.427 1.278 2.033.217 1.66-.279.553-.361 3.509-4.126.771-.416 9.028.183 2.536 2.672.437.256.431.094.427-.101 2.894-2.167.922-.254.389.044 3.116 1.579 1.878.444.738-.214.501-.636 1.565-7.638.46-.917.618-.546 10.766-5.875 2.504-2.757 1.216-.758.536-.115 8.021 1.573 4.156 4.702 1.5.59 1.568-.039.637-.286.439-.472.173-.672-1.367-5.367-.096-1.053.053-.913.233-.722.449-.474 6.746-1.49.513-.49-.082-.668-.813-1.893-.28-1.111-.113-1.13.118-1.081.413-.965.775-.785 1.196-.533 1.08 1.208 1.267 1.76.738.793 1.066.537 5.225 1.316 1.609.014 2.471-1.77 1.387 3.624.054.786-.054.973-.342.889-.467.953-.488 1.301.018.778.432.561.577.242.649.086.582-.03 1.262-.316 2.36-1.321.595-.187.667.021 1.533.598 1.916.447 2.02.982 5.646 5.46 1.027.645 2.079.263 1.622-.155 1.569-.37.938-.08 1.152.085 2.19.616 1.259.585 1.011.673 3.046 3.363.791.681.656.365 3.875 1.185.738.477.486.663.11.704.253.818 6.097 3.118 1.031 1.095.488.862-.182.635-.071.784.036.766.2.914 1.134 3.86.127.878-.056.48-.125.321-.289.185-.486.229-.63.192-1.124.111-.342.089-.253.265-.253.6-.036.779.071 1.557-.036.81-.107.699-.125.493-1.462 3.678v.503l.071.633.271 1.071.125.768-.071.906-1.152 3.983-.2.911-.036 1.067.161.467.289.259 1.137.457.827.482.289.615.018.547-.378.79-2.884 3.239-.898.838-.891.446-3.406.848-1.461.612-1.315.832-1.375 1.333-.63.851-.307.848.467.743 1.767 1.596.151.645-.186.525-.938.548-.702.593.018.241 1.502.919.289.468.071.441-.204.474-.685.594-.306.463-.109.639.271 1.382.469.649.582.401.521.175.578.288.776.552 1.027 1.21.449.889.217 1.002-.107 4.437.16 1.843.289 1.075.396.823 1.119 1.372.791 1.212.258 1.249v1.046l-.342 1.74-.503 1.564-.222.499-.146.624.018 1.631 1.648 3.686 1.476 5.79.164 1.524-.114.886-.809 3.355-.2 2.755.253 2.201.631 3.146.143 1.521-.143 1.199-.488 1.099-2.24 3.754-1.045 2.296-.649 2.242-.471 1.253-.396.773-.556.478-2.021 1.216-.467.433-.56.704-.143.695.036.581.649 1.702v.984l-.146.694-.36.663-.743.974-.416.696-.072.688.164.626.467.653 1.628 1.674.505 1.251-.089.666-.631.589-.945.344-1.206.787-1.045 1.024-3.065 5.81-1.124 1.538-.449.33-.506.101-1.405-.285-1.08.515-1.226 1.39-1.497 3.872-.418 2.575.058 1.917.191 1.025.11.882-.036 1.526-.337 1.051-.547.943-2.506 2.48-2.702 4.219-2.529 5.391.144 1.658.005.051z" stroke="#767676" stroke-width=".5" stroke-linecap="round" stroke-linejoin="round"/><path d="M934.224 996.45l-2.27-2.361-5.612-11.221-2.703-4.227-1.634-.914-4.331-.685-2.199-1.041-1.982-1.982-1.814-2.759-1.237-3.219-.288-3.346-2.115.237-1.982-1.097-1.97-1.582-2.043-1.254-1.918-.408-.004-.049-.143-1.659 2.529-5.391 2.702-4.219 2.505-2.48.547-.943.337-1.051.036-1.526-.109-.882-.192-1.025-.058-1.917.419-2.574 1.496-3.873 1.226-1.389 1.08-.515 1.405.284.506-.101.449-.33 1.124-1.538 3.065-5.81 1.045-1.024 1.206-.787.945-.344.631-.589.089-.666-.505-1.251-1.627-1.674-.468-.653-.163-.626.071-.688.416-.696.744-.974.36-.662.145-.695v-.983l-.649-1.703-.036-.581.144-.695.559-.704.468-.432 2.02-1.216.557-.478.396-.774.47-1.253.649-2.242 1.045-2.296 2.24-3.754.488-1.099.143-1.199-.143-1.521-.631-3.146-.253-2.201.2-2.755.809-3.355.11-.891-.164-1.524-1.476-5.79-1.648-3.686 6.746-3.968.667-.083.547.14 1.351.942.649.219 2.435.088.774.176.649.24.656.482 2.108 1.215.973.116 1.208-.138 2.08-1.084.631-.48.882-.454 5.611-1.757.378-.298.289-.342.631-2.063.56-1.222.756-.63 1.298-.702.83-.148.889.1 1.17.64 1.425 1.13.685.226 2.162.171 1.502.527 3.083.116 6.782-.894 2.307-.944 2.097-2.11.487-.335.557-.179 1.389-.264 1.862.014 1.387.36.613.328.378.398.431 1.171.235.468.253.268.324.13.449.074.56.212.414.292.488.578.232.418.56.819.258.249.289.222.342.181.524.185.883.078 1.188-.14 5.453-3.067.95-.213 1.44-.065 1.55.388 1.94 1.075 2.18.288 12.91-.524 1.43.384-.11.537-.04.499.06.455.2.203 2.76.445 1.24-.167 1.26-.37 2.78-1.749 1.7-1.759.79-.369 3.77-.81 1.63-1.294.74-1.11.29-4.696.07-.556.11-.51.72-1.474.48-.723.36-.426 1.43-1.232.56-.196.45.101.63.678.83 1.138.38.39.61.353 3.44 1.056.64.546.4.677.07.481.05 1.158.6.372 1.17.11 2.24-.407 1.4.5.78.5.27.583.36 1.137.36.799.49.733.59.658.55.482.52.333.54.212.76-.111 1.65 1.774.48.799.29.844-.01.845-.41.796-.8.614-4.11 1.196-.67.457-.29.709 1.73 6.255.31 2.913-.09 3.287-2.46 9.703-.02 1.259.29 1.094.51.859 1.93 1.873.32.468.22.624.08.86-.27 3.678.12.882.33.897.61.927 4.36 4.085 2.2 1.344 1.07.147 1.04-.339 1.99-1.851 1.02-.357 1 .098 1.87 1.088 2.6 2.548 3.34 2.231 3.07 4.092 4.67 3.051.51-.021.49-.35 2.03-3.101.59-.419.65-.2.72.043 6.11 3.204.48.323 1.33.368 5.65.663 1 .395.65.924.47 1.503.23 2.893.29 1.581.38 1.203.58.764 5.52 5.261.43.247.54.112 1.95-.35.52-.023 5.49 1.005 1.65-.119 4.51-1.809.49-.11.4.028.43.293 5.52 5.462.74.981.22.634-.02.478-.31.422-.48.376-.6.315-.79.197-2.57.166-.61.114-.31.302-.27.709-.12.78-.13 1.271-.25.866-.58 1.183-3.78 4.481-.5.705-.21.687-.25 1.419.09.724.16.449.21.077h.37l.4.166.36.434.5 1.202.44.79.72.5.81.183 1.84.145 1.35.295.56.355.52.504.58.91.11.627v.727l-.56 1.852-1.77 4.481-.44 1.417-.48 1.061-.29 1.673-.01.043-2.66-1.038-5.75-4.993-2.5-1.436-5.16-1.747-5.59-2.855-2.59-.741-5.45-.064-.57-.403-.48-.878-.59-.733-.89.01-.47.723-.29 2.379-.38.934-1.61 1.939-.6.385-8.87 2.396-2.31-.046.77-2.524.05-2.406-.49-2.407-.86-2.499-9.04-.742-6.47-2.225-2.55.329-.37.294-.18.594v.825l.11.961-1.59 3.734-.04 5.041.48 5.413-.02 4.889-2.46 11.066-.84 2.226-.19 1.231.23 1.112.5 1.396.52 1.14.25.318-1.33 3.09-2.36.219-6.01-2.47-6.06-.839-1.76.675-.68 1.677-.47 2.141-1.17 2.071-.58 3.37-6.12 5.39-2.2 3.57-.42 4.76.06 5.37-.59 4.57-.53.53-1.8 1.81-1.91-.13-.91-1.15-.69-1.65-1.25-1.66-.75-.17-1.78.63-.9-.1-.38-.74-.01-1.17-.14-1.13-.75-.65-1.79.14-3.48 1.68-1.74.39-1.37-.33-4.64-2.44-2.79-3.29-1.69 1.17-2.61 6.94-1.84 1.9-6.041 2.61-2.343 1.88-.914.36-1.117.13-11.534-4.08-16.472-1.86-3.952-1.66-.973-.87-2.006-2.51-.505-.96-.541-2.4.217-.51.661-.25.781-1.64.348-.26.565.11.529-.16.217-1.1-.301-1.07-.697-.49-.805-.33-.588-.56-.745-1.44-1.934-2.98-1.022-1.11-7.822-4.32-2.547-2.12-2.114-1.655-2.211-1.212-4.68-1.263zM1132.59 633.495l13.92 4.888 1.32.883 1.54 2.363.85.835 1.23.389 9.66-2.344 2.88.275.26 1.253.37 1.119 5.87 10.026.75.266 3.22-.095 6.88-2.598 1.93.275 1.56 1.517 1.51 2.882 1.01 2.482.64 2.529-.27 2.178-1.67 1.364-.22.596-.1.587.08.578.24.549 4.94-.908 7.21-6.998 4.9.502 3.68 2.822 1.76.834 1.96-.455 1.42-1.789.84-2.34.85-1.839 1.51-.322 4.21.085 3.8.976 3.57 2.028 9.9 10.519 1.06 3.49-3.66 1.504.45 1.381v.605l-.33.511-.5 1.059-.18.926-.16 1.408.01 1.078.33-.105-1 1.398-2.39 2.371-1.09 1.539-2 .444-3.72-1.039-1.83.595-.9 2.36-1.74 1.501-2.04 1.217-1.79 1.501-.64.255-1.07.68-.71.066.57 2.028.21.557-2.31-.528-.92 2.895 1.1 3.262 3.77.669 1.5 4.703.55 1.054 1.49 1.206.86-.188.83-.726 1.35-.443h5.3l1.11.349.81 1.695.09 1.695-.1 1.657.3 1.59 2.07 2.758 5.18 1.9 2.58 1.815 1.67 2.36 2.95 5.395 1.69 2.292 1.47 2.677 3.52 3.68 1.27 3.435 1.32 6.19 1.09 2.269 2.04 2.68-12.3-3.978-.61.309-.47.628-.35.88-.24 1.074-.18 2.464-.24 1.125-.68.87-12.03 5.738-.66.571-.49.795-.54 2.272-.44.996-.57.821-.69.652-1.6.839-10.39.976-1.8.732-1.69 1.273-4.5-3.897-1.35-.32-.54-.386-1.84-2.333-.45-.385-1.02-.239-1.32-.696-1.38-1.268-1.15-1.713-.86-1.827-.71-.537-6.68-1.338-.91-.686-.53-.971-.24-1.163-.03-3.682-.12-.973-.35-.686-.64-.478-3.22-.969-4.85.086-1.1.546-7.4 7.293-.66.323-.49-.153-.48-.43-.45-.671-.82-1.899-1.07-4.678-.45-.605-.61-.252-5.77 1.698-.74.88-.53 1.153-1.54 4.924-.56.713-.75.243-.89-.201-4.73-3.238-.61-.201-3.55 1.062-1.72-.022-4.53-2.248-1.77.139-2.25 1.128-7.08 6.668-.89.07-6.41-2.419.34-.51-.07-.748-.45-1.134-1.53-2.282-1.12-1.354-.89-.882-1.86-1.294-.32-.421-.29-.572.04-.939.18-.542 1.89-1.97.49-.722.14-.357.15-.413.07-.451-.23-1.013-1.79-5.162-.5-1.934-.27-1.494-.02-2.46-.43-3.11-.34-1.029-.53-1.057-.95-.875-.79-.333-.84-.06-4.76.619-3.18-.761-1.06-.084-2.14.48-.82.066-.85-.08-.67-.26-.63-.696-.39-.967-.33-2.087-.43-1.436-.99-1.613-.72-.698-.73-.478-5.75-2.485-.31-.226-.25-.679-.16-1.206.16-2.683.38-1.465.31-.882 1.01-1.374.99-1.829.39-1.029.19-1.496-.1-1.788-1.06-7.372-.23-.788-.38-.845-.79-1.443-.31-1.09.07-1.446.4-.949.09-.095.38-.58.36-.646.03-.681-.23-.699.27-.249.35-.198.49-.145.67-.016 1.85.657 6.43 5.427.79.408.72.084.68-.299 5.03-5.686 1.13-.471 1.25-.011 5.07 2.056 2.23 1.799 3.55 4.582 1.74 1.497.85.381.81.091.75-.231.7-.582.5-.975.27-1.295.39-5.824.37-.976.65-.524 2.99-1.029.69-.056.67.12.66.345 2.43 2.607 1.32.897 8.91 1.579.84-.171.66-.54.44-1.012.19-1.225-.05-1.131-.24-1.066-3.98-9.179-.15-.703-.04-.724.82-3.907.07-1.115-.05-1.107-.2-1.074-.35-1.019-.53-.938-1.43-1.844-.53-1.395-.34-1.654-.16-3.569.15-1.655.29-1.399.43-1.01.21-1.037-.27-1.447-3.86-7.845-1.66-5.29zM1297.88 699.814l1.72 1.034 2.69-.32 11.95 3.355 1.27.782 2.7 2.28 1.49.792 1.6.019 3.55-.735 1.35.414-.25.509.4 1.977.72 2.354.69 1.582 1.15 1.242 4.09 2.597 2.77.8 5.45-.159 2.4 1.025-2.13.865.32.687.41.611.48.527.53.461-.15 2.37.23 2.303.81 1.87 1.55 1.175 1.26-3.327 2.57-.197 1.83 10.736-.11.846-.33.943-.5.942-.63.845-.74.654-.81.367-.84-.016-1.61-1.02-.71-.091-.64.257-.6.529-2.67 3.938-9.42 5.267-1.54 1.79-.57 1.102-.37 1.261-.25 2.76-.29.982-1.18 1.922-.26.647-.08.82 1.32 5.344.04.863-.14.814-.38.781-6.92 9.73-.45.915-.3.98-.13 1.012.05 1.01.26.978.47.917 3.25 3.191.27.512.05.546-.21.608-3.33 4.377-.35.895-.22 1.018-.55 6.563.1.798.29.687.52.571 1.51.687 5.03.665.5.341.27.483.32 1.829.25.578.48.483 9.95 5.068.81.025 3.27-1.794.82-.131.82.313 8.94 9.678 1.71.861 5.89.324 2.7-2.102.63-.289.67.044 4.26 2.871 2.97.234 4.21-1.399 3.36 1.608 2.69 2.323.52.816.19.783-.66 5.928.11 1.178.35.971.64.681.8.246.76-.161 2.13-1.373.67-.226.65.152.66.689 3.55 7.477.77.813 3.67 1.712 3.1 2.701 1.25 1.593.43.957.52 1.985.22 2.268 3.31.851 1.48 1.165 1.75 2.015-1.75 4.699-1.69.42-1.43-.138-.67-.346-1.09-1.267-.59-.455-.61-.233-.62.004-.6.254-.55.521-.48.806-.75 2.158-.43.707-.46.456-1.44.802-.43.393-.36.613-.25.808-.12.88.04 1.749.33 1.929-3.13 1.396-10.22-2.072-1.76-.074-1.32.171-1.41.559-.43.37-.22.523.17.721.76 1.804.29 1.145v.796l-.24.738-.38.546-.5.503-.71.291-.83.125-8.28-.167-.9.225-2.01.832-1.51.864-.6.492-.48.611-.56.996-.54 1.189-.58.989-.72.635-.68.241-1.2-.236-4.99-2.256-1.03-.204-2.45-1.341-2.87-2.461-1.79-.674-.72-.083-2.19-.285-.48 2.869-.18 3.055.94 3.049 1 1.259-1.04 2.148-.39.502-3.97 3.838-.64.803-.55.876-.38.422-.52.258-.38.028-.47-.092-7.58.185-.81.239-.52.639-.32.92-.51 3.276-.29.879-.49.567-.58.202-.52-.093-.44-.303-.38-.433-.51-.924-.12-.287.09-.316.13-.838.04-1.018-.2-1.296-1.38-3.223-2.18-3.252-2.37-2.285-4.35-1.357-1.93-1.137-.66-.804-.36-.992.18-3.487-.16-.903-.28-.769-.38-.651-5.4-5.268-.59-.959-.39-.911-.78-4.169-1.04-2.704-1.42-2.26-.83-.74-4.53-1.887-1.15-.06-.98.248-.75.626-.43 1.073-.21 2.14.08.762.17.622 2.12 3.552.82 2.107.28 1.147.12 1.147-.09 1.099-.35 1.005-1.35 2.128-1.88 2.08-1.02.774-1.04.458-.99.047-6.32-4.918-.57-.914-.09-.868.51-.798.75-.777.55-.825.36-.872.18-.92.01-.967-.15-1.013-2.89-7.391-.3-1.203-.06-1.007.25-.736 1.31-.646.31-.381v-.488l-.28-.574-4.96-4.944-1.58-2.678-.44-1.257-.1-1.044.33-.713.82-.264 3.7.887.7-.193.63-.69.55-1.352.47-2.179 1.16-1.214.7-2.707.32-3.599.27-1.28 3.59-3.724-.86-6.101-1.16-1.746-1.87-.715-.6-.643-.43-1.008-.31-3.026-4.81-9.802-1.86-2.806-.67-1.313-.24-1.523.19-1.422 1.88-4.053-.17-4.335.11-4.868-.11-1.093-.86-3.452-.47-4.033-.22-.888-.32-.83-.82-1.393-.07-.86.38-.972 1.99-1.15.43-.167.7-.477 2.38-2.565 3.57-2.563.53-.501.32-.645.18-.712-.09-1.221-.14-.641-.74-1.955.16-1.9 2.92-9.842 4.4-11.257 1.31-.333 1.09-.976 1.93-2.694 1.4-.967 1.02-.037 2.15.77 1.04-.075.29-.667-.02-2.198.32-.498 1.71.029.69.479.54 1.098 1.24 1.859 1.41.535.74-1.548-.23-2.395-1.51-2.009-.17-4.417-1.22-3.261-2.12-2.332-2.83-1.664-2.18-2.249-1.14-3.528-.86-3.879-1.33-3.334-3.72-5.513-.01-2.545 3.16-1.923 2.65.339 3.28 1.975z" stroke="#767676" stroke-width=".5" stroke-linecap="round" stroke-linejoin="round"/><path d="M1256.06 753.078l4 3.7 4.88 2.538 4.72-.346 3.58-4.899 2.59-1.874 1.41-2.015 1.27-2.456 2.09-3.17 2.6-2.242 2.31-.338 2.33.16 1.42-.362-4.41 11.257-2.92 9.842-.16 1.9.74 1.956.14.64.09 1.222-.18.711-.32.645-.52.501-3.58 2.563-2.38 2.565-.7.477-.43.167-1.99 1.15-.38.972.07.861.82 1.392.32.831.22.888.47 4.033.86 3.452.11 1.093-.11 4.867.17 4.335-1.88 4.053-.18 1.423.24 1.523.66 1.313 1.86 2.806 4.82 9.801.3 3.026.43 1.008.6.643 1.87.715 1.16 1.746.86 6.101-3.58 3.724-.27 1.28-.33 3.599-.7 2.707-1.16 1.214-1.26.278-5.83-2.957-2.72-.954-2.9-.27-3.92.284-1.06-.126-1.45-.705-.88-.228-6.21.023-1.01.422-.59.785-.15 1.506-.21 1.173-.38.733-1.03.852-13.78 1.343-2.8-.25-2.27-.7-4.76-3.083-4.09-1.496-1.25-.892-.82-1.183-.73-1.335-1.05-1.307-1.51-1.28-4.37-2.907-3.43-1.727-2.34-.709-3-.14-2.5.246-1.27-.288-.86-.622-.38-.793-.34-.92-.83-.841-1.3-.715-2.67-.571-1.73-.614-1.57-.794-1.63-1.114-.79-.326-.7-.01-.49.446-.27.464-.56 1.45-.42.708-.53.408-1.3.472-.56.312-1.79 2.041-1.14.715-1.08.013-1.28-.356-1.58-.688-1.02.093-.83.422-2.94-.788-1.83-3.72-1.59-2.152-1.9-1.516-3.01-1.47-.44-.447-.29-.621-.25-1.815-.42-.822-.62-.696-1.61-1.012-3.12-.743-5.3-4.155-2.04-.562-8.86.716-.67-.363-1.23-1.371-3-4.9-2.24-2.648-5.03-3.344.16-1.445.47-1.862.58-1.711.27-1.052.13-.99.07-3.611.07-.779.15-.528.3-.649.26-.905-.17-.891-1.08-1.298-.85-.701-.81-.42-1.53-.438-.94-.674-4.24-4.091-.81-.532-3.96-1.29-2.72-1.766-.84-.861-1.34-2.141.57-.88 2.15-1.047 2.36-.599 1.04.046.21-1.862.06-.636-.04-.627-.43-2.05-.13-.913v-.954l.13-.606.27-.533 1.91-1.86 6.41 2.419.89-.07 7.08-6.667 2.25-1.128 1.77-.139 4.54 2.247 1.71.022 3.55-1.062.61.201 4.73 3.238.89.201.75-.243.56-.713 1.54-4.924.53-1.152.74-.881 5.77-1.698.61.253.45.604 1.07 4.679.82 1.898.45.671.48.43.49.153.66-.323 7.41-7.292 1.09-.546 4.85-.086 3.22.968.64.478.35.686.12.973.03 3.682.24 1.163.53.972.91.685 6.68 1.338.71.538.86 1.826 1.15 1.714 1.38 1.267 1.32.697 1.02.239.45.384 1.84 2.334.55.385 1.34.32 4.5 3.897 1.69-1.272 1.8-.732 10.39-.976 1.6-.84.69-.652.57-.821.44-.996.54-2.272.49-.794.66-.572 12.03-5.738.68-.87.24-1.124.18-2.465.24-1.073.35-.881.47-.628.61-.309 12.3 3.976zM1349.5 726.706l2.54 2.058 1.08 3.382.59.394.62.141.61-.131.61-.404 3.41-4.153 5.54-.508 10.39 1.842 2.69-.705 2-1.636 3.45-4.785.64-1.486.3-1.241.76-.49 1.97.734.65.612 2.14 2.896.29.413.06.489-.09.545-.26.573-1.26 3.402-.23 1.664.26 1.832 1.23 1.221 1.81 3.362-1.09 2.75-2.35 2.046-4.95 2.974-3.1 1.219-5.61.216-1.28.647-.85 1.828.24 1.322 5.65 7.168 1.81.825 1.18-.216.98-.571 1.24-.29 1.53.412 3.16 1.573 1.63.346.05.177.02.169-.02.141-.05.13-1.08.927-.37.993.36 1.038 1.09 1.095 1.29 1.545.79 2.002.65 2.236.91 2.16 1.31 1.814 7.53 7.514 4.23.896 4.23-1.289 3.43-3.064 2.11-.552 4.66-.14 3.79-1.131.59-.794-.21-1.805-.81-1.253-1-.028-.93.29-.61-.261-.52-4.097 1.94.484 1.65.413 6.78 4.452-.75 3.337 1.51 1.757 7.43 1.411 1.76.98 3.67 3.166 1.36.616 2.73.57 1.38 1.027.5.99.8 2.799.65 1.223 2.31 1.894 1.68-.336 3.26-2.845-.14-.308-.15-.205-.21-.103h-.25l4.69-.579 4.49 1.605 8.64 4.785 2.7-.01 4.58-2.938 1.72 1.045.72 3.274-.29 2.769.51 2.209 3.08 1.668-3.19 3.716.05 4.832 2.01 5.471 2.74 5.654 1.17 5.232.73 1.347 1.55 1.087 3.58.315 1.66.501 1.51 1.245 2.29 2.702 1.46.882 1.7-.139 1.81-.789 1.81-.316 1.75 1.3.48 1.401.78 6.179.54 1.725 1.37 3.133.52 1.622 1.66 7.642.34 3.703-.49 2.989-4.76.129-2.17.833-4.77 4.403-3.26.185-3.36-1.036-3.81-1.924-.81-.166-.8.166-3.32 1.757-5.14-.749-2.39 1.517-.6 1.47-.29 3.328-.59 1.571-.96.979-3.82 2.06-4.95 6.075-2.61 1.717-3.39-.766-.07 2.165-1.28-.03-.67-.276-.64-.489-.56-.753-.42-1.077-.92-5.109-.35-1.141-.51-1.008-.72-.833-2-1.269-.78-.884-2.42-5.199-.58-.647-2-.764-8.83.141-.79-.291-3.5-2.493-1.09-.448-18.13 1.797-.97-.206-.82-.427-.64-.653-.46-.892-.48-2.214-.33-.757-.4-.488-.47-.275-5.12-.085-1.74-2.015-1.49-1.165-3.31-.851-.22-2.268-.51-1.985-.44-.957-1.24-1.593-3.11-2.701-3.66-1.712-.77-.813-3.56-7.477-.65-.689-.66-.152-.67.226-2.13 1.373-.76.161-.8-.246-.64-.681-.35-.971-.1-1.178.66-5.927-.19-.784-.52-.816-2.7-2.323-3.35-1.608-4.22 1.399-2.97-.234-4.25-2.871-.68-.043-.62.288-2.7 2.102-5.9-.324-1.71-.861-8.94-9.678-.82-.313-.81.131-3.27 1.794-.82-.025-9.95-5.068-.47-.483-.25-.578-.32-1.829-.28-.483-.5-.341-5.03-.665-1.51-.687-.52-.571-.28-.687-.1-.798.54-6.563.22-1.018.35-.895 3.34-4.377.21-.608-.06-.546-.27-.512-3.25-3.191-.47-.917-.25-.978-.06-1.01.13-1.012.3-.98.45-.915 6.92-9.729.38-.782.14-.814-.04-.863-1.32-5.344.08-.82.27-.647 1.18-1.922.28-.982.25-2.76.38-1.261.56-1.102 1.54-1.79 9.42-5.267 2.68-3.938.59-.529.65-.257.7.091 1.62 1.02.83.016.81-.367.74-.654.64-.845.5-.942.32-.943.12-.846-1.85-10.735z" stroke="#767676" stroke-width=".5" stroke-linecap="round" stroke-linejoin="round"/><path d="M1298 1025.02l-4.01-4.68-1.61-11.65-2.75-3.88-1.91-.14-4.47 1.59-2.24.27-2.13-.8-4.21-2.79-1.78-.61-4.42.18-1.85-.33-1.52-1.07-.85-2.088-.43-2.533-.91-2.125-2.22-.903-2.16-.254-6.94-2.025-1.98-1.277-1.07-.365-1.07.145-2.1.895-1.2.054-3.36-.493-2.01 1.35-5.9 10.139-1.28 1.19-1.82.54-.65-.21-1.54-1.26-2.42.36-.13.12-16.25-2.41-10.75.65-6.16-2.682-11.69-8.534-.17-.875v-1.222l-.61-.758-1.97.511-.12-1.862-.86-.793-1.31-.055-1.47.347 1.19-1.579-.97.063-.87-.393-1.27-.931-2.23-.165-.79-.338-.57-.904-.47-2.173-.68-.512-3.55.01-1.01.246-4.13 2.192-1.96.62h-2.68l-2.61-.62-9.02-5.106-6.93-2.698.01-.044.29-1.673.49-1.061.43-1.417 1.77-4.481.56-1.851v-.728l.33-.807.53-.491.69-.179.79.134.85.442.85.745 2.19 3.48.68.385.66-.142.61-.5.94-1.391.36-.768.81-.98 1.22-.965.73-.296.79-.046.82.296 3.49 3.04.67.227.72-.099 8.41-7.652 3.27-1.496 4.03.39.75-.39.57-.764.6-2.488.45-.839.56-.497.62-.23 1.09.019.49.147 3-3.736.86-.474.77.073.6.81.51 1.068.56.749.61.486 1.39.392 3.48-.147.72-.292 2.07-1.558.52-.137 8.02 1.321 1.2-.425.97-.791 2.41-3.592.47-.431 8.18-2.639 2.54-3.116.8-1.742.19-.856.01-.825-.21-.777-.94-2.283-.15-.799.01-.83.22-.866.49-.916 1.62-1.967.52-.973.25-.926-.01-.856-.23-.762-.43-.645-.6-.504-1.45-.738-.48-.656-.29-.858-.11-1.009.16-2.241.54-2.179.42-.827.56-.539 2.46-.982.35-.383.14-.609-.08-.667-.19-.544-.82-1.503-.2-.667-.09-.856.07-1.108.26-1.219.43-1.142 1.22-1.984 1.46-1.483 10.14-6.209.47-.871.12-1.075-.14-1.232-2.19-6.868-.23-1.286-.26-8.153-.68-2.395.05-.833.32-.596.53-.4 3.48-.625.46-.561.33-.827.2-1.007.05-1.104-.1-1.111-.25-1.031-.41-.868-3.2-3.188-.3-.779.02-.937 1.45-3.574.54-2.075.26-1.986 2.8.251 13.78-1.344 1.03-.852.37-.732.22-1.173.15-1.506.59-.785 1.01-.422 6.21-.023.88.228 1.45.704 1.06.127 3.92-.284 2.9.27 2.72.954 5.82 2.957 1.27-.278-.47 2.179-.55 1.352-.63.69-.7.193-3.7-.887-.82.264-.33.713.1 1.044.44 1.257 1.58 2.677 4.96 4.945.27.574.01.488-.31.381-1.31.646-.25.736.06 1.007.3 1.203 2.89 7.391.15 1.013-.01.967-.18.92-.36.872-.55.825-.75.777-.51.798.09.868.57.914 6.32 4.918.99-.047 1.03-.458 1.03-.774 1.88-2.08 1.35-2.128.35-1.005.09-1.099-.12-1.147-.28-1.147-.82-2.107-2.12-3.553-.18-.621-.07-.763.21-2.139.43-1.074.75-.625.98-.248 1.15.06 4.53 1.887.83.74 1.42 2.26 1.04 2.704.78 4.169.39.911.58.958 5.4 5.269.39.651.28.769.16.903-.18 3.487.36.992.66.804 1.93 1.137 4.35 1.357 2.37 2.284 2.18 3.253 1.38 3.223.2 1.296-.04 1.018-.13.838-.09.316-.11.392-1.91 3.448-.28 1.152.11 1.493 1.02 3.489 1.58 3.3 1.49 2.08 3.05 1.813.49.508.41.707.3.973.07 1.035-.23.864-.48.711-1.45 1.038-3.15 1.172-.57.546-3.01 4.316-1.77 1.6-.22.835.26.835.62.788.88.695 2.12.92 2.02.028 5.67-1.95.87.058.66.449.32.884.08 1.202-.31 5.508.23.939.47.682.64.565 4.78 2.243 7.19 1.496.56.378.44.689.6 1.861.36 2.553 4.12 1.752 2.08 1.68 1.26 1.928.75.445.86.096.91-.173 3.69-2.008 3.43.463 2.67 1.074.44.44.76 1.275.58 1.649.36 1.835.35.783.75.539 6.3 1.874 1.1.783.9 1.119.77 1.406 1.11 3.13.86 3.991-12.9 5.089-4.25-.666-3.56-3.768-1.69-.821-2.76.812-2.14 1.402-2.26 1.491-2.02.383-13.26-6.745-5.59-1.461-5.2 1.114-6.25 4.564-1.06 1.643-.68 3.33-1.67 2.126-4 3.473-2.86 4.885-5.88 16.987-1.33 2.45-1.84 2.25-.29 3.34z" stroke="#767676" stroke-width=".5" stroke-linecap="round" stroke-linejoin="round"/><path d="M1462.68 896.457l-4.3 3.378-15.65 6.116-3.42 3.25-2.8 4.564-2.17 5.427-1.48 5.836-.42 4.767.02 1.07.15 7.935-.77 3.898-2.42 4.098-3.42 3.198-3.86 1.777-6.24-.485-2.81.439-2.44 1.576-1.53 3.095-.72 2.626-.91 5.481-.94 2.424-2.14 2.093-2.23.129-2.45-.421-2.86.494-1.87 1.564-4.01 6.926-2.06 1.708-9.44 3.727-.86-3.99-1.11-3.131-.76-1.406-.91-1.118-1.1-.783-6.3-1.875-.75-.538-.35-.783-.36-1.836-.58-1.648-.76-1.276-.44-.439-2.67-1.074-3.43-.463-3.69 2.007-.91.173-.86-.095-.75-.445-1.26-1.928-2.08-1.681-4.12-1.751-.36-2.553-.6-1.861-.44-.69-.56-.378-7.19-1.495-4.78-2.244-.64-.565-.47-.682-.22-.939.3-5.508-.07-1.201-.33-.885-.65-.448-.88-.059-5.66 1.951-2.02-.028-2.13-.921-.88-.695-.62-.788-.25-.835.21-.834 1.77-1.6 3.01-4.317.57-.546 3.15-1.171 1.45-1.039.48-.71.23-.864-.07-1.036-.3-.973-.41-.707-.49-.508-3.05-1.813-1.49-2.079-1.57-3.301-1.03-3.489-.11-1.492.28-1.153 1.91-3.447.11-.392.12.287.51.924.38.432.45.304.51.092.58-.202.49-.567.3-.873.51-3.277.31-.92.53-.638.81-.239 7.57-.186.47.093.38-.028.52-.258.38-.423.56-.875.63-.803 3.97-3.839.4-.501 1.04-2.149-1.01-1.258-.94-3.05.19-3.055.48-2.868 2.18.284.72.084 1.79.674 2.87 2.461 2.46 1.341 1.02.204 4.99 2.256 1.2.236.69-.241.72-.635.57-.989.54-1.189.56-.996.49-.611.59-.493 1.52-.863 2-.832.9-.225 8.28.167.83-.126.71-.291.5-.502.38-.546.24-.738v-.796l-.29-1.145-.76-1.804-.17-.722.22-.522.43-.37 1.41-.56 1.32-.171 1.77.075 10.21 2.072 3.13-1.397-.33-1.929-.04-1.748.12-.88.25-.809.36-.613.43-.393 1.44-.802.47-.455.42-.708.75-2.157.48-.806.55-.521.6-.254.62-.005.61.234.59.455 1.09 1.267.67.346 1.44.138 1.69-.42 1.74-4.699 5.12.085.47.275.4.487.33.758.48 2.214.46.891.64.653.81.427.98.207 18.13-1.798 1.09.449 3.5 2.492.79.291 8.83-.141 2 .765.58.647 2.42 5.199.78.884 2 1.269.72.833.51 1.008.34 1.141.93 5.108.42 1.077.56.754.64.488.67.276 1.28.031-.21 6.312-2.74 2.149zM1233.71 848.683l-.26 1.986-.54 2.074-1.45 3.575-.02.936.3.78 3.2 3.188.41.867.25 1.032.1 1.111-.05 1.103-.2 1.007-.33.828-.46.561-3.48.625-.53.399-.32.596-.05.834.68 2.394.26 8.153.23 1.287 2.19 6.867.14 1.233-.12 1.074-.47.871-10.14 6.21-1.46 1.483-1.22 1.984-.43 1.141-.26 1.22-.07 1.108.09.856.2.667.82 1.503.19.544.08.667-.14.608-.35.384-2.46.982-.56.539-.42.827-.53 2.179-.17 2.241.11 1.009.29.858.48.655 1.45.739.6.504.43.645.23.761.01.856-.25.927-.52.973-1.62 1.967-.49.915-.22.867-.01.829.15.799.94 2.284.21.776-.01.826-.19.856-.8 1.742-2.54 3.116-8.18 2.638-.47.432-2.41 3.592-.97.791-1.2.425-8.02-1.321-.52.137-2.07 1.558-.72.292-3.48.147-1.39-.392-.61-.486-.56-.75-.51-1.067-.6-.811-.77-.072-.86.474-3 3.736-.49-.147-1.09-.019-.61.229-.57.497-.45.839-.59 2.489-.58.764-.75.39-4.03-.39-3.27 1.495-8.41 7.653-.72.099-.67-.227-3.49-3.04-.82-.297-.79.047-.73.295-1.22.966-.8.98-.37.768-.94 1.391-.61.5-.66.142-.68-.385-2.19-3.48-.85-.746-.85-.442-.79-.133-.69.179-.53.491-.33.807-.11-.627-.57-.91-.53-.503-.55-.356-1.36-.294-1.84-.146-.81-.183-.72-.5-.43-.79-.51-1.201-.36-.435-.4-.166h-.36l-.22-.077-.15-.448-.1-.725.25-1.419.22-.687.49-.705 3.78-4.48.58-1.184.25-.865.13-1.272.13-.779.27-.71.3-.301.62-.115 2.56-.166.79-.196.6-.316.49-.376.3-.421.02-.478-.22-.635-.73-.981-5.53-5.462-.43-.293-.39-.027-.49.109-4.51 1.809-1.66.119-5.48-1.005-.53.023-1.94.35-.55-.112-.43-.247-5.52-5.261-.58-.764-.37-1.203-.29-1.581-.24-2.893-.46-1.503-.65-.924-1-.395-5.66-.663-1.32-.367-.49-.323-6.11-3.205-.72-.042-.65.199-.58.419-2.04 3.101-.49.35-.51.021-4.67-3.05-3.06-4.093-3.34-2.23-2.6-2.548-1.88-1.089-1-.098-1.01.357-2 1.851-1.04.339-1.06-.146-2.21-1.345-4.36-4.085-.61-.926-.33-.898-.12-.881.27-3.679-.08-.86-.21-.624-.33-.468-1.92-1.873-.51-.859-.3-1.094.03-1.258 2.45-9.703.09-3.288-.31-2.913-1.73-6.255.3-.709.67-.456 4.1-1.196.8-.614.42-.797v-.844l-.29-.845-.48-.798-1.65-1.774.94-.4 1.36-1.222.5-.874.32-.829.18-.602.38-.676.33-.352 2.23-1.19.33-.384.1-.493-.25-1.046-.07-.427.05-.473.2-.408.33-.306.54-.138.96.069 4.57 2.033 1.28.065 1.6-.203 2.74-.806 3.37.083 1.93.797 3.32-.52 9.11-4.403.29-2.171-.31-1.961-.59-1.563-.6-.978-.66-.748-5.24-3.934-.54-.734-.2-.78.34-1.294.56-.989 2.65-3.057.98-1.393.29-.721.17-.719.15-.783.25-.76.38-.632.49-.599.49-.443.14-.076.8-.25.36.02.27.092.43.335 1.01.604.63.131.54.004.41-.11 4.77-2.833 4.04-1.593 4.15-3.699.7-.399.44-.01.63.177 1.91.27 1.57-.284.99-.482.66-.61.44-.671.27-.755.45-2.885.19-.755.23-.726.2-.428.36-.63.41-.614.87-.919.37-.259 1.21-.437.44-.49.16-.909-.04-1.903.09-1.49 5.04 3.345 2.23 2.648 3 4.9 1.23 1.371.68.362 8.86-.716 2.03.562 5.3 4.155 3.12.744 1.61 1.012.63.696.42.822.25 1.815.28.62.45.447 3.01 1.47 1.89 1.516 1.59 2.152 1.83 3.721 2.95.788.83-.423 1.01-.092 1.58.687 1.28.357 1.09-.014 1.13-.715 1.79-2.04.56-.312 1.3-.472.54-.409.41-.707.56-1.45.27-.464.49-.446.7.009.79.326 1.63 1.114 1.57.795 1.73.614 2.67.57 1.3.715.83.841.34.92.38.793.87.623 1.26.288 2.51-.247 2.99.141 2.35.708 3.42 1.727 4.37 2.907 1.51 1.28 1.05 1.308.74 1.335.82 1.183 1.24.891 4.09 1.497 4.77 3.082 2.27.698z" stroke="#767676" stroke-width=".5" stroke-linecap="round" stroke-linejoin="round"/><path d="M1128.28 798.63l-.09 1.49.03 1.902-.16.909-.43.49-1.21.438-.38.259-.86.919-.42.614-.36.629-.2.428-.23.727-.19.754-.44 2.886-.28.754-.43.671-.67.61-.99.482-1.57.285-1.91-.271-.63-.176-.44.009-.7.4-4.14 3.698-4.05 1.593-4.76 2.833-.42.111-.54-.005-.63-.13-1.01-.605-.43-.334-.27-.093-.36-.02-.79.251-.15.075-.48.443-.5.599-.37.632-.26.761-.14.782-.18.72-.29.721-.97 1.392-2.65 3.057-.56.989-.34 1.295.2.779.54.734 5.24 3.935.66.747.59.979.59 1.562.31 1.962-.29 2.171-9.11 4.402-3.32.521-1.92-.798-3.38-.083-2.74.807-1.59.202-1.28-.064-4.58-2.033-.96-.069-.54.138-.32.306-.2.407-.06.473.08.427.25 1.046-.11.493-.32.385-2.24 1.189-.32.353-.38.675-.18.603-.33.828-.5.874-1.36 1.223-.94.399-.75.111-.54-.213-.53-.332-.54-.482-.59-.658-.49-.733-.36-.8-.36-1.136-.28-.583-.77-.5-1.41-.501-2.23.408-1.17-.11-.6-.372-.05-1.158-.07-.481-.4-.678-.64-.546-3.44-1.055-.61-.353-.38-.39-.83-1.138-.64-.678-.45-.101-.56.195-1.42 1.233-.36.425-.49.724-.72 1.474-.11.51-.07.555-.29 4.697-.73 1.11-1.63 1.294-3.77.809-.79.37-1.7 1.759-2.78 1.749-1.26.37-1.24.167-2.77-.445-.19-.203-.06-.455.04-.499.1-.538-1.42-.383-12.91.524-2.18-.288-1.94-1.075-1.55-.388-1.44.065-.96.212-5.445 3.068-1.188.14-.884-.079-.523-.184-.342-.181-.289-.222-.258-.249-.56-.819-.233-.418-.487-.579-.414-.291-.56-.212-.449-.075-.324-.129-.253-.268-.235-.468-.431-1.172-.378-.397-.613-.328-1.387-.36-1.862-.014-1.39.263-.556.18-.488.334-2.096 2.111-2.307.944-6.782.893-3.084-.115-1.502-.527-2.161-.171-.685-.226-1.426-1.131-1.169-.639-.889-.1-.831.148-1.298.702-.756.63-.56 1.221-.631 2.064-.288.342-.379.297-5.611 1.757-.881.455-.631.48-2.08 1.083-1.209.138-.973-.115-2.107-1.215-.656-.483-.649-.24-.775-.175-2.434-.088-.649-.219-1.351-.942-.547-.14-.667.083-6.746 3.968-.018-1.632.145-.623.222-.499.504-1.564.342-1.741v-1.045l-.258-1.249-.792-1.212-1.118-1.372-.396-.823-.289-1.075-.16-1.843.107-4.438-.217-1.001-.449-.889-1.027-1.21-.777-.553-.578-.287-.52-.176-.582-.4-.47-.649-.27-1.382.109-.639.306-.463.685-.594.204-.474-.071-.442-.289-.467-1.502-.919-.018-.241.702-.594.938-.548.186-.524-.151-.645-1.767-1.597-.468-.742.307-.849.631-.851 1.375-1.333 1.314-.831 1.462-.612 3.405-.849.891-.446.899-.838 2.884-3.238.378-.791-.018-.547-.289-.615-.828-.482-1.136-.456-.289-.26-.161-.466.036-1.067.199-.912 1.153-3.983.071-.906-.125-.768-.271-1.07-.071-.633v-.503l1.461-3.678.126-.493.107-.699.036-.81-.071-1.557.036-.779.253-.6.252-.266.342-.089 1.124-.11.631-.193.486-.228.288-.186.126-.321.056-.48-.127-.877-1.135-3.86-.199-.914-.037-.766.072-.784.181-.635-.487-.863-1.032-1.095-6.096-3.117-.253-.818-.111-.704-.485-.663-.738-.477-3.875-1.185-.656-.366-.792-.681-3.045-3.362-1.011-.674-1.26-.584-2.189-.616-1.152-.085-.938.08-1.569.369-1.622.155-2.08-.262-1.027-.646-5.645-5.459-2.02-.983-1.916-.447-1.533-.598-.667-.02-.595.187-2.36 1.32-1.262.317-.582.029-.649-.086-.578-.242-.431-.561-.018-.777.488-1.301.467-.953.342-.889.054-.973-.054-.786-1.387-3.624 1.205-1.732 1.466-.759 1.804-.496 1.152-.591 2.98-2.998 1.351-.919 1.119-1.405 1.116-2.686 1.551-2.469.649-.732 1.356-.78 6.802-2.828 4.973-3.253 1.088-1.144.396-.338.846-.518.991-.327 1.28.018.722.188.72.357.485.159h.578l2.044-.545 11.078-5.784.991-.086.938.406.756.563.884.329.809-.132 1.298-1.028.667-.691.728-.998.702-.799 6.889-4.332 1.1-.442 1.569.104.973-.093.899-.368.692-1.071.235-.678.036-.61-.151-1.158.024-.772.127-1.006.271-.79.485-.781.902-.423 1.405-.331 4.856-.16 2.846.56 2.728.992 2.342.292 9.162-1.571 3.791 1.42.594-.142.846-.415 2.511-2.103.973-.634.902-.264 3.279-.272 2.044.14.902-.192.916-.505.92-1.383.399-.914.25-.763.2-.422.56-.84.107-.443v-.678l-.164-.611-.431-1.296-.143-.589.018-.624.125-1.168-.054-.715-.182-.698-.538-1.613-.164-.736.11-.726.431-.359.938.17 1.54.704.61.165.61.056.69-.293 1.01-.594 3.38-2.834.95-.504.74-.547.18-.363.18-.458.39-1.416.15-1.487v-1.117l.13-.835.16-.628.34-.708.43-.65.79-.558 1.27-.367 5.18-.125 2.2.359 1.78-.122.82.122.52.266.23.447.22.534.09.444.07.524.05.59.15.52.27.426.32.235 1.01.135 2.03-.174 10.42-2.723 4.71-3.155 4.26-2.026 1.03-.784 1.36-1.361.89-.615 1.93-1.049.97-.87.84-1.031 1.22-2.449.47-.713.74-.836 2.39-2.035.68-.837 1.35-2.201.43-.529.56-.266.67.039 1.13.472.96.029 1.32-.606.85-.217.81.123 1.12.938.95.454 2.78-.199.6.171.61.416 2.21 2.64.71.671.86.322.78.171 3.01-.804 1.03 5.37 1.23 2.261 4.13 3.723.23.699-.03.681-.36.647-.38.58-.09.094-.4.95-.07 1.445.31 1.09.79 1.443.38.845.23.788 1.06 7.372.1 1.788-.19 1.497-.39 1.028-.99 1.829-1.01 1.374-.31.882-.38 1.466-.16 2.683.16 1.205.25.679.31.226 5.76 2.486.72.477.72.698.99 1.613.43 1.436.33 2.087.39.967.63.696.67.26.85.08.82-.066 2.14-.48 1.06.084 3.18.762 4.76-.62.85.06.78.333.95.876.53 1.056.34 1.03.43 3.11.02 2.46.27 1.493.5 1.934 1.79 5.162.23 1.013-.07.451-.15.413-.14.357-.49.722-1.89 1.97-.18.542-.03.939.28.573.33.42 1.85 1.294.89.883 1.12 1.353 1.53 2.282.45 1.134.07.748-.34.51-1.91 1.86-.27.533-.13.606v.954l.13.913.43 2.05.04.627-.06.636-.21 1.862-1.04-.046-2.36.599-2.15 1.046-.57.881 1.34 2.141.84.861 2.73 1.766 3.95 1.289.81.533 4.24 4.091.94.673 1.53.439.81.42.85.701 1.08 1.298.17.891-.26.905-.3.649-.15.528-.07.779-.07 3.61-.13.99-.27 1.053-.58 1.711-.47 1.862-.15 1.447zm-104.27-21.578l4.23-.206 2.59-.664.69-1.298.14-.403.04-.457-.04-.397-.21-.585-.26-.547-.23-.645-.09-.463.16-1.617-.07-.595-.13-.501-.54-1.094-.12-.351.01-.294.15-.366.36-.52 3.23-3.195.97-1.291.27-.657.06-.575-.16-.909-.51-.872-.67-.565-2.43-.796-.8-.444-.4-.367-.41-.548-.4-.787-.77-1.119-.43-.367-.44-.253-2.72-.725-.87-.423-.5-.759-.4-1.162-.5-.686-1.45-1.04-1.85-1.949-.61-.441-.73-.309-1.27-.246-5.73.666-15.297 4.464-.486.346-.271.488-.089.601.107.703.182.646.053.553-.163.45-.468.538-.649.375-.667.165-.577-.109-2.889-1.185-.685-.089-.702.089-5.504 2.029-2.2 1.289-.267.298-.128.281-.036.243-.023.282.187.337.36.422 2.143 1.305.667.59.307.342.182.36-.054.421-.146.431-.324.724-.16.46-.11.44v.495l.128.412.36.539 2.866 3.596.311.524.524 1.15.612 2.16.251.626.253.47.289.422 3.136 3.631.307.699.126.646-.072 1.261-.071.55-.074 1.215.109 1.046.161.288.204.206.301.224.384.163 1.28.22 4.873-1.999 8.349-1.485 5.2-1.658.7-.405 1.71-1.616 1.87-1.393 1.14-.336.78-.113.31.038.23.103.34.205 1.64.439 2.02.21z" stroke="#767676" stroke-width=".5" stroke-linecap="round" stroke-linejoin="round"/><path d="M1024.01 777.052l-2.02-.206-1.64-.439-.34-.205-.24-.103-.3-.038-.78.113-1.14.336-1.87 1.392-1.71 1.617-.71.405-5.19 1.658-8.35 1.485-4.873 1.999-1.28-.22-.383-.163-.302-.224-.204-.206-.16-.288-.11-1.046.075-1.215.071-.55.071-1.261-.125-.646-.307-.699-3.137-3.631-.289-.422-.253-.47-.25-.626-.613-2.16-.524-1.15-.311-.524-2.866-3.596-.36-.539-.127-.413v-.494l.109-.44.161-.46.324-.725.145-.43.054-.421-.181-.36-.307-.342-.667-.59-2.144-1.305-.36-.422-.187-.337.024-.282.036-.243.127-.281.268-.298 2.199-1.289 5.505-2.03.702-.088.685.088 2.889 1.186.577.109.667-.165.649-.375.467-.538.163-.45-.053-.554-.181-.645-.108-.704.09-.6.271-.488.485-.346 15.298-4.464 5.73-.666 1.27.246.73.309.61.441 1.85 1.949 1.44 1.04.51.686.4 1.162.5.759.87.423 2.72.725.44.253.43.367.77 1.119.4.787.41.548.4.367.79.444 2.44.796.67.565.5.872.17.908-.06.576-.27.657-.97 1.291-3.23 3.195-.36.519-.15.367-.01.294.12.351.54 1.094.13.501.07.595-.16 1.616.09.463.23.646.25.547.22.584.04.398-.04.456-.14.404-.69 1.298-2.59.664-4.23.202z" stroke="#767676" stroke-width=".5" stroke-linecap="round" stroke-linejoin="round"/></svg>