<svg width="2232" height="1674" viewBox="0 0 2232 1674" fill="none" xmlns="http://www.w3.org/2000/svg"><path d="M1128.57 761.67c5.97 4.055 18.43 14.227 20.47 22.485 2.54 10.323 18.3 28.311 35.47 31.479 17.16 3.169 25.94 2.76 35.34 2.044M1050.32 729.503c4.02-4.984 15.32-14.059 28.36-10.49 16.3 4.461 20.66 4.943 28.49-1.447 7.83-6.39 16.3-4.099 17.07-3.617.77.482 6.29 4.823 14.76-.965 7.83-5.62 22.8-21.76 20-41.36-3.5-24.5 20.5-39.5 42-39.5 16.62 0 16.5-1 50.5 15s126.5-4 162.5-38 115-39.5 149-22.5M872.959 753.846c2.843 3.709 8.553 13.636 8.655 23.676.127 12.549 19.228 15.353 19.984 15.525 10.819 2.458 18.456.776 22.656 4.269M1011.2 845.133c-.13 1.409-6.74 14.214-17.546 19.336-10.804 5.122-19.702-3.329-25.55-3.969-5.847-.641-18.939-2.049-22.372 11.14-2.745 10.552-8.431 14.811-10.931 15.622-11.084 8.298-15.127 19.422-15.762 23.946.653 17.305-4.039 55.415-28.039 69.415-30 17.5-116.5 15.5-126.5 72.997-3 9.17-6 33.1 6 55.5 15 28 68.5 71 62.5 155M1009.46 768.721c3.23-.986 13.53 5.247 28.85 38.069 15.33 32.822 38.57 49.259 48.27 53.374 12 4.673 39.84 17.749 55.16 32.668C1160.9 911.48 1181.89 910.37 1193 915M1193 915c17 6.5 44.42 7.867 55.53 5.66 40.08-8.442 89.41-31.808 126.83-1.526 21.34 17.275 49.19 20.142 57.56 16.982 13.25-5.003 47.61-10.381 79.08 8.138 39.34 23.148 52.92 76.816 56.13 84.686 3.21 7.87 10.66 47.85 84.41 39.35" stroke="#33266B" stroke-width="1.73"/><path d="M1008.93 767.756c6.27 6.585 17.3 24.96 8.63 43.738-8.66 18.778-6.7 37.154-4.64 43.994 2.88 10.903 4.88 34.554-10.18 41.942-15.06 7.388-21.919 25.054-23.466 32.964-.344 4.404-.593 14.904 1.16 21.676.855 17.851 13.965 59.75 59.566 84.55 57 31 42.5 111 40 121.5s-29 109.5-83.501 161.5M1008.59 767.927c-19.666-3.156-26.193 1.061-36.576 10.097-9.856 7.052-14.534 4.827-16.628 5.391-3.376.304-11.384 2.082-16.409 6.768-5.025 4.685-11.495 6.377-14.101 6.638-5.983.13-18.794 1.484-22.178 5.857-3.384 4.373-16.964 9.544-23.331 11.583-25.844 6.769-30.867 2.862-34.867 23.862-7.5 28-12.7 44.5-49.5 48.5-46 5-104.5-9.5-138.5-48.5s-162.5-36.5-190.5-2" stroke="#33266B" stroke-width="1.73"/><path d="M681 860.123c-8.167 2-26.7 9.9-35.5 25.5s-37.333 16.5-50.5 15c-11.833-2-37.2-.1-44 23.5M819.926 732.98c3.08 3.232 16.724-.185 22.045-3.763 9.14-6.144 22.505-5.27 29.336 2.306 3.072 3.407 8.02 8.458 29.316 11.04 11.422 1.385 10.267-.252 14.631 0 7.059.408 7.238-2.493 12.577-1.385 5.339 1.108 11.123.462 13.348 0 1.754-.545 6.058-.755 9.24 2.77 3.183 3.526 7.915 3.484 9.883 3.022 2.096.126 6.134 1.435 5.518 5.666-.616 4.23 13.262 5.12 20.278 5.036 4.963-.923 16.582-.025 23.362 10.954M1172.04 779.059c-5.36-1.1-16.93-4.197-20.29-7.786-4.22-4.486-9.19-12.536-21.44-10.161-2.77.792-9.37 2.851-13.66 4.751-4.29 1.9-22.03 1.759-30.37 1.451-5.91-.44-20.06-1.689-29.35-3.167-9.29-1.478-12.86-3.035-15.19-4.354-9.31-5.279-22.79-5.622-32.28 8.841" stroke="#33266B" stroke-width="1.73"/><path d="M1060.91 664.297c5.81 2.285 16.3 11.197 11.79 28.563-1.16 3.173-5.13 11.145-11.79 17.645-2.05 2.454-6.58 8.759-8.32 14.344-1.8 5.163-8.43 16.554-20.62 20.819-4.06 1.608-14.32 8.277-22.93 22.088-.39-6.728-2.82-24.627-9.991-32.878-5.739-6.601-7.771-14.514-8.07-17.645.103-5.992-6.959-10.029-10.503-11.298-3.415-2.328-10.426-8.505-11.143-14.599-.717-6.093-8.326-12.779-12.04-15.36-7.431-16.784-39.094-54.553-106.294-71.353-84-21-102.5-30-124.5-59s-66.999-65-135.999-62.5M1248 921c17.33 6.5 56 30.5 37.5 75.5-16.17 34.67-28.96 103.25 0 145 38.5 55.5 89.5 57 110 65" stroke="#33266B" stroke-width="1.73"/><path d="M1249 920.5c-6.17 26.667-34.84 78.789-87 102.5-44 20-40.17 71.17-26.5 95.5M1324 842c6.5 2.833 26.9 6.8 56.5 0 37-8.5 59.5-.5 65.5 5 3.33 2.5 11.7 6 18.5 0 8.5-7.5 9.5-13.5 28-13.5s26-4 34.5-9.5 18.5-7 30.5-6.5 21.5-6 26.5-22 17-58 75-66M1324 842c-2.67-3-9-9.5-13-11.5-5-2.5-5-3.5-4.5-6.5s-1-8.5-9-12-30-4-31-27.5c-.33-3.333-.5-11.5 1.5-17.5" stroke="#33266B" stroke-width="1.73"/><path d="M1324.5 841.5c-3.5 3.667-15.5 10.9-35.5 10.5-3.83-.333-12.2-.3-15 2.5-3.5 3.5-14 3-19.5-1M1324.5 843c-1.33 4.167-3.6 13-2 15 2 2.5 3 7.5 0 9s-3.5 7.39-17.5 12c-13.67 4.5-44 19.1-56 41.5M1248.5 920c-4.5-5.667-15.4-17.6-23-20-9.5-3-7.5-10.5-12.5-14s-34-12-36-26.5" stroke="#33266B" stroke-width="1.73"/><path d="M1323.5 842.5c10.83-10.5 35.6-31.4 48-31 12.4.4 19.17-2.833 21-4.5 0-2.333 1.4-6.3 7-3.5 7 3.5 12.5.5 16.5-3 3.2-2.8 7-7.5 8.5-9.5" stroke="#33266B" stroke-width="1.73"/></svg>