<svg width="15" height="14" viewBox="0 0 15 14" fill="none" xmlns="http://www.w3.org/2000/svg"><path fill-rule="evenodd" clip-rule="evenodd" d="M3.256 1.536c0 .837-.647 1.514-1.658 1.514C.627 3.05-.02 2.373 0 1.536-.02.658.627 0 1.618 0c.991 0 1.618.658 1.638 1.536zM.082 13.999V4.247h3.073v9.751H.082zM5.618 7.359c0-1.216-.04-2.253-.08-3.11h2.668l.142 1.335h.061c.404-.618 1.415-1.555 3.053-1.555C13.484 4.03 15 5.346 15 8.216V14h-3.073V8.596c0-1.257-.444-2.114-1.556-2.114-.85 0-1.355.578-1.557 1.136-.081.2-.121.478-.121.758V14H5.62V7.359h-.002z" fill="#3A3A3A"/></svg>