<svg width="22" height="3" viewBox="0 0 22 3" fill="none" xmlns="http://www.w3.org/2000/svg"><g clip-path="url(#clip0_634_99)" fill="#D89A26"><path d="M22 1.53a1.545 1.545 0 00-.1-.589 1.497 1.497 0 00-.315-.501 1.429 1.429 0 00-.479-.331A1.38 1.38 0 0020.541 0H5.758a1.38 1.38 0 00-.562.104 1.427 1.427 0 00-.478.325 1.402 1.402 0 00-.316.477 1.45 1.45 0 00-.103.57c-.004.2.032.4.103.586.072.186.18.355.316.497.136.142.299.254.477.329.18.075.37.111.563.107h14.783a1.426 1.426 0 001.358-.891c.072-.182.107-.377.101-.573zM1.44 3c.795 0 1.44-.672 1.44-1.5S2.235 0 1.44 0C.645 0 0 .672 0 1.5S.645 3 1.44 3z"/></g><defs><clipPath id="clip0_634_99"><path fill="#fff" d="M0 0h22v3H0z"/></clipPath></defs></svg>