<svg width="115" height="54" viewBox="0 0 115 54" fill="none" xmlns="http://www.w3.org/2000/svg"><g clip-path="url(#clip0_329_559)"><path fill-rule="evenodd" clip-rule="evenodd" d="M3.78 50.224c.408-1.486.585-4.61.71-6.365.286-4.51-.402-6.333-1.458-8.308C.305 30.463-.826 25.012.652 20.587c4.497-13.435 27.24-13.793 31.772.422.606 1.887-.22 3.394.847 4.66.794.943 2.22 2.893 2.62 3.276.834.787 1.27 1.55.802 2.627-.387.901-.93.56-1.741.873-.748.354-.504.975-.323 1.606.263.94-.241 1.39-.51 1.418l-1.607.17c-1.11.121-.797 1.227-.287 1.543.475.293.969.553 1.479.78.897.355.613 1.294.471 1.88-.13.468.04.861.103 1.368.323 2.55-1.177 2.613-3.411 2.801-3.525.295-7.35-1.248-7.907 2.922l-.44 3.287-18.74.004z" fill="#D89A26"/><path clip-rule="evenodd" d="M91.775 50.107l-.44-3.284c-.56-4.173-4.386-2.627-7.91-2.925-2.231-.184-3.735-.248-3.412-2.801.064-.507.234-.901.106-1.37-.141-.584-.429-1.506.468-1.878a11.532 11.532 0 001.48-.777c.51-.316.825-1.418-.285-1.542l-1.606-.174c-.27-.029-.776-.479-.51-1.419.177-.63.422-1.269-.327-1.606-.808-.312-1.35.029-1.74-.872-.469-1.064-.03-1.84.8-2.628.401-.383 1.827-2.336 2.621-3.28 1.064-1.262.245-2.769.848-4.659 4.535-14.212 27.278-13.857 31.771-.418 1.478 4.421.354 9.875-2.369 14.96-1.064 1.979-1.745 3.797-1.454 8.308.11 1.773.291 4.883.709 6.383l-18.75-.018z" stroke="#fff" stroke-width="1.42" stroke-miterlimit="10"/><path d="M51.71 27.399v19.073M47.188 31.441v10.99M42.667 34.328v5.22" stroke="#D89A26" stroke-width="1.31" stroke-miterlimit="10"/><path d="M62.858 46.472V27.4M67.379 42.43V31.441M71.9 39.547v-5.22" stroke="#fff" stroke-width="1.22" stroke-miterlimit="10"/><path d="M56.982 20.144v33.583" stroke="#D89A26" stroke-width="1.31" stroke-miterlimit="10"/><path d="M75.825 9.563h-35.33M43.572 1.567v8.007h-4.376V5.939a4.373 4.373 0 014.376-4.372v0z" stroke="#fff" stroke-width="1.42" stroke-miterlimit="10"/><path d="M75.158 0h-29.66v7.63h29.66V0z" fill="#D89A26"/><path d="M41.239 11.538a1.014 1.014 0 100-2.028 1.014 1.014 0 000 2.028zM49.246 11.538a1.014 1.014 0 100-2.028 1.014 1.014 0 000 2.028zM51.461 11.538a1.014 1.014 0 100-2.028 1.014 1.014 0 000 2.028zM53.677 11.538a1.014 1.014 0 100-2.028 1.014 1.014 0 000 2.028zM69.871 11.538a1.014 1.014 0 100-2.028 1.014 1.014 0 000 2.028zM72.091 11.538a1.014 1.014 0 100-2.028 1.014 1.014 0 000 2.028z" fill="#fff"/><path d="M39.111 5.29h2.351" stroke="#fff" stroke-width="1.42" stroke-miterlimit="10"/></g><defs><clipPath id="clip0_329_559"><path fill="#fff" d="M0 0h115v53.73H0z"/></clipPath></defs></svg>