<svg width="168" height="80" viewBox="0 0 168 80" fill="none" xmlns="http://www.w3.org/2000/svg"><g clip-path="url(#clip0_329_610)" fill="#D89926"><path d="M.526 38.264c0-3.001.075-6.007-.016-9.003-.147-4.837 4.25-9.597 9.677-9.582 2.517 0 5.04-.02 7.554 0a9.788 9.788 0 016.845 2.857 9.814 9.814 0 012.883 6.842c.038 6.284 0 12.565.031 18.848 0 .886-.3 1.069-1.097 1.03-1.238-.062-2.48.03-3.716-.033-.802-.041-1.128.194-1.186 1.033-.298 4.349-.648 8.693-.979 13.04-.405 5.3-.823 10.603-1.2 15.908-.045.652-.297.784-.88.781a437.934 437.934 0 00-8.879 0c-.76.012-.96-.295-1.003-.96-.248-3.47-.506-6.94-.775-10.407-.48-6.22-.96-12.44-1.425-18.66-.043-.574-.24-.75-.8-.74-1.32.029-2.639-.055-3.956.031C.666 49.33.5 48.973.5 48.108c.048-3.28.02-6.562.02-9.851l.006.007zM22.69 8.763a8.775 8.775 0 01-1.474 4.874 8.744 8.744 0 01-13.478 1.325A8.771 8.771 0 015.85 5.4 8.765 8.765 0 019.084 1.47 8.748 8.748 0 0113.954 0a8.689 8.689 0 016.194 2.556 8.71 8.71 0 012.543 6.207z"/></g><g clip-path="url(#clip1_329_610)" fill="#D89926"><path d="M70.526 38.264c0-3.001.075-6.007-.016-9.003-.147-4.837 4.25-9.597 9.677-9.582 2.517 0 5.04-.02 7.554 0a9.788 9.788 0 016.845 2.857 9.814 9.814 0 012.883 6.842c.038 6.284 0 12.565.031 18.848 0 .886-.3 1.069-1.097 1.03-1.238-.062-2.48.03-3.717-.033-.801-.041-1.127.194-1.185 1.033-.297 4.349-.648 8.693-.979 13.04-.406 5.3-.823 10.603-1.2 15.908-.045.652-.297.784-.88.781a437.933 437.933 0 00-8.879 0c-.76.012-.96-.295-1.003-.96-.248-3.47-.506-6.94-.775-10.407-.48-6.22-.96-12.44-1.425-18.66-.043-.574-.24-.75-.8-.74-1.32.029-2.639-.055-3.956.031-.938.08-1.104-.276-1.104-1.141.048-3.28.02-6.562.02-9.851l.006.007zM92.69 8.763a8.775 8.775 0 01-1.474 4.874 8.744 8.744 0 01-13.478 1.325A8.77 8.77 0 0175.85 5.4a8.765 8.765 0 013.234-3.931A8.748 8.748 0 0183.954 0a8.689 8.689 0 016.194 2.556 8.71 8.71 0 012.543 6.207z"/></g><g clip-path="url(#clip2_329_610)" fill="#D89926"><path d="M35.526 38.264c0-3.001.075-6.007-.016-9.003-.147-4.837 4.25-9.597 9.677-9.582 2.517 0 5.04-.02 7.554 0a9.788 9.788 0 016.845 2.857 9.814 9.814 0 012.883 6.842c.038 6.284 0 12.565.031 18.848 0 .886-.3 1.069-1.097 1.03-1.238-.062-2.48.03-3.716-.033-.802-.041-1.128.194-1.186 1.033-.297 4.349-.648 8.693-.979 13.04-.405 5.3-.823 10.603-1.2 15.908-.045.652-.297.784-.88.781a437.933 437.933 0 00-8.879 0c-.76.012-.96-.295-1.003-.96-.248-3.47-.506-6.94-.775-10.407-.48-6.22-.96-12.44-1.425-18.66-.043-.574-.24-.75-.8-.74-1.32.029-2.639-.055-3.956.031-.938.08-1.104-.276-1.104-1.141.048-3.28.02-6.562.02-9.851l.006.007zM57.69 8.763a8.775 8.775 0 01-1.474 4.874 8.744 8.744 0 01-13.478 1.325A8.77 8.77 0 0140.85 5.4a8.765 8.765 0 013.234-3.931A8.748 8.748 0 0148.954 0a8.689 8.689 0 016.194 2.556 8.71 8.71 0 012.543 6.207z"/></g><g clip-path="url(#clip3_329_610)" fill="#E0E0E1"><path d="M105.526 38.264c0-3.001.075-6.007-.016-9.003-.147-4.837 4.249-9.597 9.677-9.582 2.517 0 5.039-.02 7.554 0a9.788 9.788 0 016.845 2.857 9.815 9.815 0 012.883 6.842c.038 6.284 0 12.565.031 18.848 0 .886-.3 1.069-1.097 1.03-1.238-.062-2.481.03-3.717-.033-.801-.041-1.127.194-1.185 1.033-.297 4.349-.648 8.693-.979 13.04-.405 5.3-.823 10.603-1.2 15.908-.045.652-.297.784-.88.781a437.992 437.992 0 00-8.879 0c-.76.012-.96-.295-1.003-.96-.248-3.47-.506-6.94-.775-10.407-.48-6.22-.96-12.44-1.425-18.66-.043-.574-.24-.75-.799-.74-1.32.029-2.64-.055-3.957.031-.938.08-1.104-.276-1.104-1.141.048-3.28.019-6.562.019-9.851l.007.007zM127.691 8.763a8.771 8.771 0 01-5.407 8.106 8.744 8.744 0 01-9.546-1.907A8.772 8.772 0 01110.85 5.4a8.767 8.767 0 013.234-3.931A8.745 8.745 0 01118.954 0a8.688 8.688 0 016.194 2.556 8.71 8.71 0 012.543 6.207z"/></g><g clip-path="url(#clip4_329_610)" fill="#E0E0E1"><path d="M140.526 38.264c0-3.001.075-6.007-.016-9.003-.147-4.837 4.249-9.597 9.677-9.582 2.517 0 5.039-.02 7.554 0a9.788 9.788 0 016.845 2.857 9.815 9.815 0 012.883 6.842c.038 6.284 0 12.565.031 18.848 0 .886-.3 1.069-1.097 1.03-1.238-.062-2.481.03-3.717-.033-.801-.041-1.127.194-1.185 1.033-.297 4.349-.648 8.693-.979 13.04-.405 5.3-.823 10.603-1.2 15.908-.045.652-.297.784-.88.781a437.992 437.992 0 00-8.879 0c-.76.012-.96-.295-1.003-.96-.248-3.47-.506-6.94-.775-10.407-.48-6.22-.96-12.44-1.425-18.66-.043-.574-.24-.75-.799-.74-1.32.029-2.64-.055-3.957.031-.938.08-1.104-.276-1.104-1.141.048-3.28.019-6.562.019-9.851l.007.007zM162.691 8.763a8.771 8.771 0 01-5.407 8.106 8.744 8.744 0 01-9.546-1.907A8.772 8.772 0 01145.85 5.4a8.767 8.767 0 013.234-3.931A8.745 8.745 0 01153.954 0a8.688 8.688 0 016.194 2.556 8.71 8.71 0 012.543 6.207z"/></g><defs><clipPath id="clip0_329_610"><path fill="#fff" transform="translate(.5)" d="M0 0h27v80H0z"/></clipPath><clipPath id="clip1_329_610"><path fill="#fff" transform="translate(70.5)" d="M0 0h27v80H0z"/></clipPath><clipPath id="clip2_329_610"><path fill="#fff" transform="translate(35.5)" d="M0 0h27v80H0z"/></clipPath><clipPath id="clip3_329_610"><path fill="#fff" transform="translate(105.5)" d="M0 0h27v80H0z"/></clipPath><clipPath id="clip4_329_610"><path fill="#fff" transform="translate(140.5)" d="M0 0h27v80H0z"/></clipPath></defs></svg>