<svg width="130" height="27" viewBox="0 0 130 27" fill="none" xmlns="http://www.w3.org/2000/svg"><g clip-path="url(#clip0_329_471)"><path d="M10.65 2.221a1.747 1.747 0 00-.627-.843 1.723 1.723 0 00-.994-.326 1.5 1.5 0 00-1.026.264 1.858 1.858 0 00-.707.905L.09 19.651c-.06.182-.09.372-.09.563a1.6 1.6 0 00.38 1.08 1.442 1.442 0 001.153.438c.33 0 .65-.106.914-.304.284-.215.5-.508.624-.843l1.5-3.565h8.626l1.505 3.531c.137.346.362.648.652.877.268.21.597.323.936.32.442-.012.86-.201 1.164-.525.304-.323.468-.755.458-1.2a1.907 1.907 0 00-.145-.703L10.65 2.22zM5.986 13.664l2.881-6.832 2.904 6.832H5.986zM32.613 0a1.659 1.659 0 00-1.243.512 1.756 1.756 0 00-.496 1.271v5.735a6.326 6.326 0 00-.557-.483 6.902 6.902 0 00-1.806-.962 6.662 6.662 0 00-2.29-.376 6.312 6.312 0 00-3.528 1.034 7.322 7.322 0 00-2.53 2.862 9.845 9.845 0 000 8.434 7.253 7.253 0 002.558 2.862 6.566 6.566 0 003.617 1.035 5.486 5.486 0 002.04-.366 6.798 6.798 0 001.638-.888c.314-.238.604-.507.864-.804a1.75 1.75 0 00.496 1.253 1.77 1.77 0 002.485 0 1.734 1.734 0 00.49-1.265V1.784a1.752 1.752 0 00-.49-1.288A1.7 1.7 0 0032.613 0zm-2.129 16.306a4.314 4.314 0 01-1.488 1.755 3.909 3.909 0 01-2.229.64 3.876 3.876 0 01-2.23-.64 4.313 4.313 0 01-1.487-1.755 5.613 5.613 0 01-.557-2.48c-.008-.869.183-1.729.557-2.512a4.335 4.335 0 011.488-1.749 3.876 3.876 0 012.229-.641 3.909 3.909 0 012.23.641 4.336 4.336 0 011.487 1.749c.374.783.564 1.643.557 2.513a5.614 5.614 0 01-.557 2.463v.017z" fill="#D99A27"/><path d="M56.499 5.965a1.544 1.544 0 00-1.04.254c-.307.205-.53.514-.632.87l-3.104 8.395-2.23-6.089a2.019 2.019 0 00-.557-.804 1.478 1.478 0 00-.97-.275 1.606 1.606 0 00-.973.275 1.628 1.628 0 00-.62.804l-2.285 6.253-3.099-8.558a1.416 1.416 0 00-.607-.85 1.876 1.876 0 00-.987-.263 1.554 1.554 0 00-1.27.562c-.3.348-.464.793-.463 1.254-.001.23.039.458.117.674l4.425 12.027c.126.38.388.697.736.889.332.208.729.286 1.114.219.329-.02.644-.137.907-.337s.461-.474.57-.788l2.33-7.18 2.474 7.18c.11.314.307.588.57.788.263.2.578.317.907.337a1.66 1.66 0 001.112-.23c.333-.206.584-.522.71-.895L58.06 8.451c.039-.1.069-.204.09-.31.018-.12.027-.243.027-.365a1.8 1.8 0 00-.49-1.299 1.578 1.578 0 00-1.187-.512zM72.622 6.595a4.856 4.856 0 00-3.171-.9A4.976 4.976 0 0067.69 6a5.863 5.863 0 00-1.477.804 6.478 6.478 0 00-1.115 1.063c-.106.135-.195.264-.29.388V1.782a1.768 1.768 0 00-.49-1.27 1.775 1.775 0 00-2.491 0 1.779 1.779 0 00-.49 1.27v18.043a1.767 1.767 0 00.49 1.265 1.775 1.775 0 002.491 0 1.734 1.734 0 00.49-1.265v-7.478a3.864 3.864 0 01.39-1.737 3.007 3.007 0 011.176-1.237 3.558 3.558 0 011.879-.467 2.768 2.768 0 011.738.467c.404.31.697.744.836 1.237.163.564.242 1.15.234 1.737v7.478a1.745 1.745 0 00.49 1.265 1.775 1.775 0 002.492 0 1.756 1.756 0 00.49-1.265v-7.478a12.686 12.686 0 00-.407-3.34 4.605 4.605 0 00-1.504-2.412zM89.686 7.983a7.615 7.615 0 00-2.33-1.686 6.527 6.527 0 00-2.786-.613 7.052 7.052 0 00-3.617.99 7.504 7.504 0 00-2.787 2.844 8.948 8.948 0 00-1.058 4.498 8.285 8.285 0 00.97 4.032 7.12 7.12 0 002.786 2.811 8.417 8.417 0 004.268 1.035c.95 0 1.892-.161 2.787-.478a6.79 6.79 0 002.112-1.125 1.82 1.82 0 00.814-1.433 1.405 1.405 0 00-.424-1.018 1.399 1.399 0 00-1.053-.439 2.213 2.213 0 00-.986.259c-.212.118-.446.259-.708.427-.32.188-.666.33-1.026.422a6.63 6.63 0 01-1.71.174 4.428 4.428 0 01-2.23-.602 4.479 4.479 0 01-1.633-1.647 4.6 4.6 0 01-.557-1.445h9.547c.444.006.875-.15 1.215-.438a1.487 1.487 0 00.557-1.125 7.559 7.559 0 00-.591-2.98 8.25 8.25 0 00-1.56-2.463zm-8.048 1.918a3.176 3.176 0 011.304-.788 5.57 5.57 0 011.622-.23c.58 0 1.152.135 1.672.394.514.251.967.614 1.326 1.062.35.431.56.962.597 1.518v.208h-7.58c.04-.229.098-.454.173-.674a3.88 3.88 0 01.886-1.49zM106.326 7.983a7.61 7.61 0 00-2.329-1.686 6.529 6.529 0 00-2.787-.613 7.052 7.052 0 00-3.617.99 7.541 7.541 0 00-2.786 2.844 8.947 8.947 0 00-1.059 4.498 8.286 8.286 0 00.97 4.032 7.122 7.122 0 002.786 2.811 8.417 8.417 0 004.269 1.035c.949 0 1.891-.161 2.787-.478a6.794 6.794 0 002.112-1.125 1.822 1.822 0 00.813-1.433 1.397 1.397 0 00-.423-1.018 1.394 1.394 0 00-1.053-.439 2.215 2.215 0 00-.987.259c-.212.118-.446.259-.708.427-.32.188-.665.33-1.025.422a6.597 6.597 0 01-1.705.174 4.429 4.429 0 01-2.233-.6 4.48 4.48 0 01-2.159-3.094h9.541c.444.007.876-.149 1.215-.438a1.49 1.49 0 00.557-1.125 7.56 7.56 0 00-.59-2.98 8.24 8.24 0 00-1.589-2.463zm-8.047 1.918a3.177 3.177 0 011.304-.788 5.57 5.57 0 011.622-.23c.579 0 1.151.135 1.672.394.514.251.966.614 1.326 1.062.35.431.559.962.596 1.518v.208H97.22c.042-.228.1-.454.173-.674.18-.558.483-1.068.886-1.49zM113.477.151a1.707 1.707 0 00-1.257.509 1.732 1.732 0 00-.504 1.268v18.043a1.745 1.745 0 00.49 1.271 1.615 1.615 0 001.215.512 1.716 1.716 0 001.259-.512 1.758 1.758 0 00.508-1.27V1.927a1.796 1.796 0 00-.115-.68 1.756 1.756 0 00-.365-.585 1.603 1.603 0 00-1.231-.512zM129.537 15.107a3.921 3.921 0 00-1.215-1.355 6.847 6.847 0 00-1.672-.85c-.596-.213-1.187-.399-1.766-.562a36.963 36.963 0 01-1.577-.478 3.33 3.33 0 01-1.171-.646 1.602 1.602 0 01-.055-2.131c.25-.221.554-.37.88-.433a4.88 4.88 0 01.942-.107 4.493 4.493 0 011.895.382c.515.227.967.579 1.315 1.024.263.237.6.377.953.393a1.38 1.38 0 001.014-.309 1.258 1.258 0 00.558-1.125 2.095 2.095 0 00-.379-1.05 4.608 4.608 0 00-1.505-1.272 7.289 7.289 0 00-1.878-.702 8.997 8.997 0 00-1.884-.214 6.837 6.837 0 00-2.703.562c-.82.34-1.543.884-2.101 1.58a3.894 3.894 0 00-.808 2.48 4.179 4.179 0 00.491 2.13c.312.548.75 1.013 1.276 1.356.536.35 1.115.63 1.722.832.624.214 1.237.41 1.833.562.597.152 1.115.32 1.577.495.418.146.806.365 1.148.647a1.285 1.285 0 01.43 1.017 1.46 1.46 0 01-.39 1.125 1.767 1.767 0 01-.909.466c-.316.066-.636.111-.958.135a5.135 5.135 0 01-2.313-.466 6.876 6.876 0 01-1.767-1.316 1.624 1.624 0 00-1.009-.562 1.582 1.582 0 00-.986.247 1.397 1.397 0 00-.752 1.125c-.035.37.058.741.262 1.051a5.908 5.908 0 002.836 2.12c1.096.39 2.249.593 3.411.596a6.904 6.904 0 002.664-.562 5.433 5.433 0 002.168-1.592 3.855 3.855 0 00.869-2.541 4.35 4.35 0 00-.446-2.052zM113.448 27.004c.964 0 1.745-.788 1.745-1.76s-.781-1.76-1.745-1.76c-.963 0-1.744.788-1.744 1.76s.781 1.76 1.744 1.76z" fill="#fff"/></g><defs><clipPath id="clip0_329_471"><path fill="#fff" d="M0 0h130v27H0z"/></clipPath></defs></svg>