<svg width="130" height="27" viewBox="0 0 130 27" fill="none" xmlns="http://www.w3.org/2000/svg"><g clip-path="url(#clip0_329_750)"><path d="M10.65 2.22a1.747 1.747 0 00-.627-.843 1.723 1.723 0 00-.994-.326 1.5 1.5 0 00-1.026.265 1.858 1.858 0 00-.707.905L.09 19.65c-.06.181-.09.371-.09.562a1.6 1.6 0 00.38 1.08 1.442 1.442 0 001.153.439c.33 0 .65-.107.914-.304.284-.215.5-.508.624-.844l1.5-3.564h8.626l1.505 3.53c.137.346.362.649.652.878.268.21.597.322.936.32.442-.013.86-.202 1.164-.525.304-.324.468-.755.458-1.2a1.906 1.906 0 00-.145-.704L10.65 2.221zM5.986 13.664l2.881-6.832 2.904 6.832H5.986zM32.613 0a1.659 1.659 0 00-1.243.512 1.756 1.756 0 00-.496 1.27v5.735a6.326 6.326 0 00-.557-.483 6.903 6.903 0 00-1.806-.962 6.662 6.662 0 00-2.29-.376 6.312 6.312 0 00-3.528 1.034 7.322 7.322 0 00-2.53 2.862 9.845 9.845 0 000 8.434 7.253 7.253 0 002.558 2.862 6.566 6.566 0 003.617 1.035 5.486 5.486 0 002.04-.366 6.798 6.798 0 001.638-.888c.314-.238.604-.507.864-.804a1.75 1.75 0 00.496 1.254 1.77 1.77 0 002.485 0 1.735 1.735 0 00.49-1.265V1.782a1.752 1.752 0 00-.49-1.287A1.7 1.7 0 0032.613 0zm-2.129 16.306a4.313 4.313 0 01-1.488 1.754 3.909 3.909 0 01-2.229.64 3.875 3.875 0 01-2.23-.64 4.313 4.313 0 01-1.487-1.754 5.614 5.614 0 01-.557-2.48c-.008-.87.183-1.73.557-2.513a4.336 4.336 0 011.488-1.749 3.876 3.876 0 012.229-.641 3.909 3.909 0 012.23.641 4.337 4.337 0 011.487 1.749c.374.783.564 1.643.557 2.513a5.614 5.614 0 01-.557 2.463v.017z" fill="#D99A27"/><path d="M56.499 5.965a1.544 1.544 0 00-1.04.254c-.307.205-.53.514-.632.87l-3.104 8.395-2.23-6.089a2.019 2.019 0 00-.557-.804 1.478 1.478 0 00-.97-.275 1.606 1.606 0 00-.973.275 1.628 1.628 0 00-.62.804l-2.285 6.253-3.099-8.558a1.416 1.416 0 00-.607-.85 1.876 1.876 0 00-.987-.263 1.554 1.554 0 00-1.27.562c-.3.348-.464.793-.463 1.254-.001.23.039.458.117.674l4.425 12.027c.126.38.388.697.736.889.332.208.729.286 1.114.219.329-.02.644-.137.907-.337s.461-.474.57-.788l2.33-7.18 2.474 7.18c.11.314.307.588.57.788.263.2.578.317.907.337a1.66 1.66 0 001.112-.23c.333-.206.584-.522.71-.895L58.06 8.451c.039-.1.069-.204.09-.31.018-.12.027-.243.027-.365a1.8 1.8 0 00-.49-1.299 1.578 1.578 0 00-1.187-.512zM72.62 6.595a4.856 4.856 0 00-3.17-.9A4.976 4.976 0 0067.689 6a5.865 5.865 0 00-1.477.804 6.478 6.478 0 00-1.115 1.063c-.106.135-.195.264-.29.388V1.782a1.768 1.768 0 00-.49-1.27 1.775 1.775 0 00-2.491 0 1.777 1.777 0 00-.49 1.27v18.043a1.769 1.769 0 00.49 1.265 1.775 1.775 0 002.491 0 1.734 1.734 0 00.49-1.265v-7.478a3.864 3.864 0 01.39-1.737 3.008 3.008 0 011.176-1.237 3.558 3.558 0 011.878-.467 2.768 2.768 0 011.74.467c.403.31.696.744.835 1.237.163.564.242 1.15.234 1.737v7.478a1.745 1.745 0 00.49 1.265 1.775 1.775 0 002.492 0 1.756 1.756 0 00.49-1.265v-7.478a12.681 12.681 0 00-.407-3.34 4.605 4.605 0 00-1.504-2.412zM89.686 7.984a7.615 7.615 0 00-2.33-1.687 6.527 6.527 0 00-2.786-.612 7.052 7.052 0 00-3.617.99 7.503 7.503 0 00-2.787 2.844 8.948 8.948 0 00-1.058 4.498 8.284 8.284 0 00.97 4.032 7.12 7.12 0 002.786 2.811 8.416 8.416 0 004.268 1.035c.95 0 1.892-.161 2.787-.478a6.79 6.79 0 002.112-1.125 1.82 1.82 0 00.814-1.434 1.405 1.405 0 00-.424-1.017 1.399 1.399 0 00-1.053-.439 2.213 2.213 0 00-.986.259c-.212.118-.446.258-.708.427-.32.188-.666.33-1.026.422-.56.132-1.135.19-1.71.174a4.428 4.428 0 01-2.23-.602 4.479 4.479 0 01-1.633-1.647 4.598 4.598 0 01-.557-1.445h9.547c.444.006.875-.15 1.215-.438a1.488 1.488 0 00.557-1.125 7.559 7.559 0 00-.591-2.98 8.25 8.25 0 00-1.56-2.463zm-8.048 1.918a3.176 3.176 0 011.304-.788 5.57 5.57 0 011.622-.23c.58 0 1.152.135 1.672.393.514.252.967.615 1.326 1.063.35.431.56.962.597 1.518v.208h-7.58c.04-.229.098-.455.173-.674a3.88 3.88 0 01.886-1.49zM106.326 7.984a7.61 7.61 0 00-2.329-1.687 6.529 6.529 0 00-2.787-.612 7.052 7.052 0 00-3.617.99 7.541 7.541 0 00-2.786 2.844 8.947 8.947 0 00-1.059 4.498 8.285 8.285 0 00.97 4.032 7.121 7.121 0 002.786 2.811 8.416 8.416 0 004.269 1.035 8.33 8.33 0 002.787-.478 6.794 6.794 0 002.112-1.125 1.822 1.822 0 00.813-1.434 1.397 1.397 0 00-.423-1.017 1.394 1.394 0 00-1.053-.439 2.215 2.215 0 00-.987.259c-.212.118-.446.258-.708.427-.32.188-.665.33-1.025.422a6.601 6.601 0 01-1.705.174 4.428 4.428 0 01-2.233-.6 4.478 4.478 0 01-2.159-3.094h9.541c.444.007.876-.149 1.215-.438a1.492 1.492 0 00.557-1.125 7.56 7.56 0 00-.59-2.98 8.24 8.24 0 00-1.589-2.463zm-8.047 1.918a3.177 3.177 0 011.304-.788 5.57 5.57 0 011.622-.23c.579 0 1.151.135 1.672.393.514.252.966.615 1.326 1.063.35.431.559.962.596 1.518v.208H97.22c.042-.228.1-.454.173-.674.18-.558.483-1.068.886-1.49zM113.477.152a1.707 1.707 0 00-1.257.508 1.732 1.732 0 00-.504 1.268v18.044a1.745 1.745 0 00.49 1.27 1.616 1.616 0 001.215.512 1.718 1.718 0 001.259-.512 1.758 1.758 0 00.508-1.27V1.929a1.796 1.796 0 00-.115-.681 1.756 1.756 0 00-.365-.584 1.603 1.603 0 00-1.231-.512zM129.537 15.108a3.921 3.921 0 00-1.215-1.355 6.844 6.844 0 00-1.672-.849c-.596-.214-1.187-.4-1.766-.562a37.108 37.108 0 01-1.577-.478 3.33 3.33 0 01-1.171-.647 1.602 1.602 0 01-.055-2.13c.25-.222.554-.371.88-.434a4.88 4.88 0 01.942-.106 4.493 4.493 0 011.895.382c.515.227.967.578 1.315 1.023.263.238.6.377.953.394.365.036.73-.075 1.014-.31a1.258 1.258 0 00.558-1.125 2.095 2.095 0 00-.379-1.05 4.608 4.608 0 00-1.505-1.271 7.289 7.289 0 00-1.878-.703 8.998 8.998 0 00-1.884-.214 6.837 6.837 0 00-2.703.563c-.82.34-1.543.883-2.101 1.58a3.894 3.894 0 00-.808 2.48 4.179 4.179 0 00.491 2.13c.312.548.75 1.012 1.276 1.355.536.351 1.115.63 1.722.832.624.214 1.237.41 1.833.563.597.151 1.115.32 1.577.494.418.147.806.365 1.148.647a1.286 1.286 0 01.43 1.018 1.461 1.461 0 01-.39 1.124 1.767 1.767 0 01-.909.467c-.316.066-.636.11-.958.135a5.137 5.137 0 01-2.313-.467 6.878 6.878 0 01-1.767-1.316 1.624 1.624 0 00-1.009-.562 1.583 1.583 0 00-.986.248 1.397 1.397 0 00-.752 1.125c-.035.37.058.74.262 1.05a5.907 5.907 0 002.836 2.12c1.096.391 2.249.593 3.411.596a6.904 6.904 0 002.664-.562 5.433 5.433 0 002.168-1.591 3.855 3.855 0 00.869-2.542 4.349 4.349 0 00-.446-2.052zM113.448 27.006c.964 0 1.745-.788 1.745-1.76s-.781-1.76-1.745-1.76c-.963 0-1.744.788-1.744 1.76s.781 1.76 1.744 1.76z" fill="#3A3A3A"/></g><defs><clipPath id="clip0_329_750"><path fill="#fff" d="M0 0h130v27H0z"/></clipPath></defs></svg>