<svg width="133" height="40" viewBox="0 0 133 40" fill="none" xmlns="http://www.w3.org/2000/svg"><g clip-path="url(#clip0_329_524)"><path d="M64.391 33.932a4.02 4.02 0 100-8.041 4.02 4.02 0 000 8.041z" stroke="#fff" stroke-width="1.35" stroke-miterlimit="10"/><path d="M64.391 31.569a1.657 1.657 0 100-3.315 1.657 1.657 0 000 3.314z" stroke="#fff" stroke-width="1.35" stroke-miterlimit="10"/><path d="M35.705 28.454v1.93H13.754" stroke="#fff" stroke-width="1.13" stroke-miterlimit="10"/><path d="M24.2 24h4.257M9.13 20.097c4.78 0 8.171-3.865 8.171-8.633h-6.888" stroke="#fff" stroke-width="1.35" stroke-miterlimit="10"/><path d="M24.396 2.706v27.679H9.26V17.849A15.137 15.137 0 0124.396 2.706v0zM18.722 17.612v5.204" stroke="#fff" stroke-width="1.35" stroke-miterlimit="10"/><path d="M16.12 33.932a4.02 4.02 0 100-8.041 4.02 4.02 0 000 8.041z" fill="#33266B" stroke="#fff" stroke-width="1.35" stroke-miterlimit="10"/><path d="M16.12 31.569a1.657 1.657 0 100-3.315 1.657 1.657 0 000 3.314z" fill="#33266B" stroke="#fff" stroke-width="1.35" stroke-miterlimit="10"/><path d="M131.012 0H28.363v26.404h102.649V0z" fill="#D89A26"/><path d="M0 34.849h133M43.435 33.932a4.02 4.02 0 100-8.041 4.02 4.02 0 000 8.041z" stroke="#fff" stroke-width="1.35" stroke-miterlimit="10"/><path d="M43.434 31.569a1.657 1.657 0 100-3.315 1.657 1.657 0 000 3.314zM53.909 33.932a4.02 4.02 0 100-8.041 4.02 4.02 0 000 8.041z" stroke="#fff" stroke-width="1.35" stroke-miterlimit="10"/><path d="M53.908 31.569a1.657 1.657 0 100-3.315 1.657 1.657 0 000 3.314z" stroke="#fff" stroke-width="1.35" stroke-miterlimit="10"/><path d="M72.311 24H33.097v4.258H72.31V24z" fill="#fff" stroke="#33266B" stroke-miterlimit="10"/><path d="M128.391 24h-4.021v6.385h4.021V24z" stroke="#fff" stroke-miterlimit="10"/><path d="M107.038 33.932a4.02 4.02 0 100-8.041 4.02 4.02 0 000 8.041z" stroke="#fff" stroke-width="1.35" stroke-miterlimit="10"/><path d="M107.039 31.569a1.657 1.657 0 100-3.315 1.657 1.657 0 000 3.314zM117.512 33.932a4.02 4.02 0 100-8.041 4.02 4.02 0 000 8.041z" stroke="#fff" stroke-width="1.35" stroke-miterlimit="10"/><path d="M117.512 31.569a1.657 1.657 0 100-3.315 1.657 1.657 0 000 3.314z" stroke="#fff" stroke-width="1.35" stroke-miterlimit="10"/><path d="M128.391 24h-28.285v4.258h28.285V24z" fill="#fff" stroke="#33266B" stroke-miterlimit="10"/><path d="M3.5 34.156a.057.057 0 01-.017.07.057.057 0 01-.023.01l-.166.025-.737.104h-.129a.304.304 0 01-.257-.111c-.027-.024 0-.054 0-.075a.584.584 0 01.088-.064.164.164 0 01.058-.02c.064 0 .104-.064.148-.105.057-.055.109-.113.156-.176a.635.635 0 00.057-.095.389.389 0 01.115-.142c.055-.033.058-.06.038-.125-.02-.064-.04-.155-.065-.233a.717.717 0 01.017-.369.487.487 0 00-.017-.22.784.784 0 01-.023-.199v-.48-.338a.988.988 0 01.03-.17c0-.064.024-.131.034-.196.02-.118.044-.236.06-.355a.84.84 0 000-.131 5.354 5.354 0 01-.05-.572 1.975 1.975 0 000-.2c0-.338 0-.656-.024-.984 0-.155 0-.31-.023-.466a3.527 3.527 0 010-.535c.017-.186.02-.375.034-.561a.855.855 0 01.088-.267.917.917 0 00.108-.338c0-.027 0-.054.017-.082a.044.044 0 00-.024-.03.183.183 0 01-.122-.169.314.314 0 00-.017-.081h-.027a.338.338 0 01-.277 0l-.118-.037a.175.175 0 01-.129-.166.162.162 0 00-.034-.098.366.366 0 01-.047-.291.152.152 0 000-.037.159.159 0 01.05-.119.071.071 0 000-.09.112.112 0 010-.146.108.108 0 00.095-.081.338.338 0 01.04-.27.196.196 0 00.018-.18.43.43 0 01-.017-.227c.007-.122.02-.244.04-.365.019-.088.044-.175.075-.26a1.28 1.28 0 01.047-.163.545.545 0 01.081-.115.442.442 0 01.082-.077h.02l.338-.126c.085-.037.166-.077.244-.118.077-.04.142-.078.213-.118 0 0 .03-.027.03-.04a.237.237 0 01.129-.183.068.068 0 00.033-.051.42.42 0 00-.027-.156.822.822 0 01-.023-.186c0-.027 0-.054-.038-.067a.063.063 0 01-.03-.041l-.04-.23v-.115c0-.037.02-.068.067-.06v-.096a.869.869 0 01.064-.338.403.403 0 01.2-.216 1.2 1.2 0 01.257-.101c.094 0 .196-.031.277.026.109.06.205.14.28.237.031.054.092.091.102.16a.406.406 0 010 .067.818.818 0 01-.04.338.047.047 0 00.02.058.135.135 0 01.02.182.677.677 0 00-.03.075.385.385 0 01-.112.179c-.02 0-.054 0-.06.047-.007.047-.024.081-.034.122-.01.04 0 .044 0 .064a.19.19 0 00.033.139c.033.055.06.113.085.172a.197.197 0 00.074.075c.115.06.223.131.338.196a.653.653 0 00.176.067.257.257 0 01.15.109c.023.03.05.058.077.084.024.027.044.054.068.078.113.131.21.277.287.433.027.052.038.11.03.169a.45.45 0 00.061.26.48.48 0 01.044.17c.024.148.034.3.061.45.018.062.03.127.034.192a.565.565 0 01-.024.04c0 .048.02.082.034.119l.03.108a.971.971 0 01-.017.206c-.016.064-.043.125-.06.19a.338.338 0 01-.139.213.276.276 0 01-.149.037.247.247 0 00-.128.047c-.054.04-.058.044-.115 0a.21.21 0 00-.152-.047c-.02 0-.034 0-.034.03a.304.304 0 010 .055.075.075 0 01-.058.064c-.047.02-.047.02-.04.074.006.054 0 .115 0 .17 0 .053.023.08.03.12.024.102.044.207.068.312.023.105.04.18.057.27a.867.867 0 010 .133l.03.294a1.21 1.21 0 010 .155v.74c0 .248-.02.454-.026.677v.426c0 .142 0 .338-.017.521a.92.92 0 00.01.159c0 .081.03.162.04.243.01.082.02.126.028.19.006.064.016.155.02.233 0 .18 0 .359.02.538v.223c-.001.08-.008.16-.02.24-.027.19-.058.379-.081.568v.224c-.003.1-.028.2-.071.29a.216.216 0 000 .203c.044.078.077.163.125.237.04.063.087.121.142.172.028.032.05.07.06.112 0 .024 0 .05.028.088-.057.013-.115.02-.173.024l-.487-.048-.253-.037c-.02 0-.034 0-.034-.03a1.962 1.962 0 01-.02-.393v-.111a.237.237 0 000-.119.675.675 0 01-.034-.142 1.22 1.22 0 010-.456c.021-.131.036-.263.044-.396a.61.61 0 00-.01-.128 1.085 1.085 0 01-.03-.207v-.808-.23a.213.213 0 00-.048-.142.338.338 0 01-.064-.169c-.017-.098-.03-.196-.048-.294v-.135c0-.044-.034-.176-.044-.264-.01-.088-.02-.19-.034-.28-.013-.092-.03-.13-.047-.194l-.04-.203c-.024-.118-.041-.236-.068-.338-.027-.101-.058-.223-.095-.338a2.15 2.15 0 00-.078-.206.68.68 0 01-.037-.095c0 .03-.027.05-.034.071l-.02.16-.04.216c0 .06-.028.121-.044.182l-.071.301c0 .054-.024.112-.034.17-.024.118-.051.236-.071.358-.02.122-.024.216-.04.338a2.605 2.605 0 01-.102.538.869.869 0 00-.034.416c.018.2.012.402-.02.602-.02.138-.038.277-.061.412-.021.101-.03.205-.027.308v.365c0 .122-.02.233-.034.338a.338.338 0 00-.034.237c0 .044 0 .088.024.132a.338.338 0 010 .152l.03.22v.023l.01.02z" fill="#fff"/><path d="M11.464 38.382h25.6" stroke="#fff" stroke-width="1.35" stroke-miterlimit="10"/></g><defs><clipPath id="clip0_329_524"><path fill="#fff" d="M0 0h133v39.06H0z"/></clipPath></defs></svg>