<svg width="113" height="39" viewBox="0 0 113 39" fill="none" xmlns="http://www.w3.org/2000/svg"><g opacity=".8" clip-path="url(#clip0_329_497)"><path d="M17.102 2.458C7.843 2.458.338 9.964.338 19.222c0 9.259 7.505 16.764 16.764 16.764 9.26 0 16.764-7.505 16.764-16.764 0-9.258-7.505-16.763-16.764-16.763v-.001zm7.688 24.178c-.3.493-.945.649-1.438.347-3.936-2.405-8.89-2.949-14.726-1.616a1.045 1.045 0 01-.465-2.038c6.386-1.459 11.864-.83 16.282 1.87.493.302.649.945.347 1.437zm2.052-4.564a1.307 1.307 0 01-1.798.43c-4.506-2.77-11.375-3.571-16.705-1.953a1.309 1.309 0 01-1.631-.871 1.309 1.309 0 01.871-1.63c6.089-1.848 13.657-.953 18.832 2.227.615.379.809 1.183.43 1.797zm.176-4.753c-5.403-3.21-14.318-3.505-19.476-1.939a1.568 1.568 0 11-.91-3c5.921-1.799 15.766-1.451 21.986 2.242a1.567 1.567 0 11-1.6 2.697zm18.93.614c-2.895-.69-3.41-1.174-3.41-2.192 0-.962.905-1.609 2.252-1.609 1.305 0 2.599.492 3.956 1.503.04.03.092.043.142.035a.187.187 0 00.126-.077l1.413-1.992a.19.19 0 00-.036-.258c-1.615-1.296-3.433-1.926-5.559-1.926-3.125 0-5.309 1.875-5.309 4.559 0 2.878 1.884 3.896 5.14 4.683 2.768.638 3.236 1.172 3.236 2.128 0 1.059-.945 1.717-2.466 1.717-1.69 0-3.069-.57-4.61-1.903a.196.196 0 00-.139-.046.187.187 0 00-.13.066l-1.585 1.885a.19.19 0 00.018.265c1.794 1.601 4 2.446 6.382 2.446 3.367 0 5.543-1.84 5.543-4.688.006-2.404-1.433-3.735-4.959-4.593l-.006-.003zM58.53 15.08c-1.46 0-2.657.575-3.645 1.753v-1.326a.19.19 0 00-.189-.19h-2.592a.19.19 0 00-.188.19V30.24c0 .104.084.19.188.19h2.592a.19.19 0 00.189-.19v-4.65c.988 1.106 2.186 1.649 3.645 1.649 2.712 0 5.459-2.088 5.459-6.08.004-3.992-2.742-6.08-5.457-6.08h-.002zm2.444 6.08c0 2.032-1.251 3.451-3.045 3.451-1.771 0-3.108-1.483-3.108-3.45 0-1.968 1.337-3.451 3.108-3.451 1.764 0 3.045 1.45 3.045 3.45zm10.051-6.08c-3.493 0-6.23 2.69-6.23 6.124 0 3.398 2.72 6.058 6.188 6.058 3.506 0 6.25-2.68 6.25-6.101 0-3.41-2.726-6.08-6.207-6.08v-.001zm0 9.552c-1.857 0-3.258-1.494-3.258-3.473 0-1.987 1.353-3.43 3.216-3.43 1.87 0 3.28 1.493 3.28 3.474 0 1.987-1.362 3.428-3.237 3.428zm13.667-9.315h-2.852V12.4a.189.189 0 00-.189-.19H79.06a.19.19 0 00-.19.19v2.916h-1.245a.19.19 0 00-.189.19v2.227c0 .105.084.19.189.19h1.245v5.765c0 2.328 1.159 3.509 3.447 3.509.929 0 1.7-.192 2.426-.605a.185.185 0 00.096-.164v-2.122a.189.189 0 00-.09-.16.184.184 0 00-.184-.008c-.498.25-.98.366-1.521.366-.831 0-1.203-.378-1.203-1.223v-5.357h2.852a.19.19 0 00.188-.19v-2.227a.184.184 0 00-.186-.19l-.002-.001zm9.937.011v-.358c0-1.053.405-1.523 1.31-1.523.54 0 .975.107 1.46.27.061.018.123.009.171-.027a.188.188 0 00.078-.154V11.35a.188.188 0 00-.134-.182 7.098 7.098 0 00-2.154-.31c-2.392 0-3.66 1.348-3.66 3.897v.549h-1.244a.19.19 0 00-.19.19v2.238c0 .105.085.19.19.19h1.245v8.89c0 .106.086.19.19.19h2.59c.106 0 .19-.084.19-.19v-8.89h2.42l3.708 8.89c-.42.932-.835 1.119-1.4 1.119-.456 0-.938-.136-1.428-.407a.207.207 0 00-.15-.014.188.188 0 00-.113.102l-.879 1.928a.19.19 0 00.082.246c.917.497 1.744.709 2.767.709 1.914 0 2.973-.893 3.904-3.291l4.496-11.618a.185.185 0 00-.02-.177.185.185 0 00-.154-.082h-2.699a.19.19 0 00-.18.127l-2.765 7.894-3.026-7.899a.189.189 0 00-.177-.122H94.63zm-5.761-.011h-2.592a.19.19 0 00-.19.19v11.307c0 .106.085.19.19.19h2.592a.19.19 0 00.19-.19V15.507a.19.19 0 00-.19-.19v-.001zm-1.281-5.149a1.859 1.859 0 10-.003 3.717 1.859 1.859 0 00.003-3.717zm22.705 8.784a1.817 1.817 0 01-1.824-1.824c0-1 .809-1.833 1.834-1.833s1.824.823 1.824 1.823-.809 1.834-1.834 1.834zm.01-3.476c-.935 0-1.642.743-1.642 1.652 0 .91.703 1.642 1.632 1.642a1.63 1.63 0 001.641-1.652c0-.91-.702-1.642-1.631-1.642zm.404 1.83l.517.722h-.437l-.464-.663h-.398v.663h-.365v-1.915h.853c.446 0 .739.228.739.611.002.314-.181.506-.443.582h-.002zm-.308-.864h-.474v.605h.474c.236 0 .378-.116.378-.303 0-.197-.142-.302-.378-.302z" fill="#3A3A3A"/></g><defs><clipPath id="clip0_329_497"><path fill="#fff" transform="translate(.28)" d="M0 0h111.76v38.32H0z"/></clipPath></defs></svg>