<svg width="2232" height="1674" viewBox="0 0 2232 1674" fill="none" xmlns="http://www.w3.org/2000/svg"><path fill="#fff" d="M0 0h2232v1674H0z"/><path d="M1563.5 586.624c-34-17-113-11.5-149 22.5s-128.5 54-162.5 38-33.88-15-50.5-15c-21.5 0-45.5 15-42 39.5 2.8 19.6-12.17 35.74-20 41.36-8.47 5.788-13.99 1.447-14.76.965-.77-.482-9.24-2.773-17.07 3.617-7.83 6.39-12.19 5.908-28.49 1.447-13.04-3.569-22.18-1.013-28.36 10.49-2.94 4.499-5.32 9.497-14.32 13.997-4.94 2.47-21.5 9.5-26.5 24" stroke="#33266B" stroke-width="1.73"/><path d="M1010 767.5c5-14.5 21.56-21.53 26.5-24 9-4.5 11.38-9.498 14.32-13.997 4.68-9.003 3.55-15.147 8.18-20.503 9.5-11 16.5-14 14.5-27s-9-16-12-17.5M1009.46 768.721c3.23-.986 13.53 5.247 28.85 38.069 15.33 32.822 38.57 49.259 48.27 53.374 12 4.673 39.84 17.749 55.16 32.668C1160.9 911.48 1181.89 910.37 1193 915M1193 915c17 6.5 44.42 7.867 55.53 5.66 40.08-8.442 89.41-31.808 126.83-1.526 21.34 17.275 49.19 20.142 57.56 16.982 13.25-5.003 47.61-10.381 79.08 8.138 39.34 23.148 52.92 76.816 56.13 84.686 3.21 7.87 10.66 47.85 84.41 39.35" stroke="#33266B" stroke-width="1.73"/><path d="M1008.93 767.756c6.27 6.585 17.3 24.96 8.63 43.738-8.66 18.778-6.7 37.154-4.64 43.994 2.88 10.903 4.88 34.554-10.18 41.942-15.06 7.388-21.919 25.054-23.466 32.964-.344 4.404-.593 14.904 1.16 21.676.855 17.851 13.965 59.75 59.566 84.55 57 31 42.5 111 40 121.5s-29 109.5-83.501 161.5" stroke="#33266B" stroke-width="1.73"/><path d="M1008.93 767.756c6.27 6.585 17.3 24.96 8.63 43.738-8.66 18.778-6.7 37.154-4.64 43.994-3.14 5.671-11.62 17.312-20.42 18.512-11 1.5-16.5-2.5-19-3s-19-9-22 9c-2 4.667-8 14.3-16 15.5-8 1.2-10.667 20.167-11 29.5-.667 18.833-9.1 58.3-37.5 65.5-35.5 9-91 18-111.5 51.5-16.4 26.8-10.001 52 2 68.5 32.516 44.7 70 91.8 60 153M1008.59 767.927c-19.666-3.156-26.193 1.061-36.576 10.097-9.856 7.052-14.534 4.827-16.628 5.391-3.376.304-11.384 2.082-16.409 6.768-5.025 4.685-11.495 6.377-14.101 6.638-5.983.13-18.794 1.484-22.178 5.857-3.384 4.373-16.964 9.544-23.331 11.583-25.844 6.769-30.867 2.862-34.867 23.862-7.5 28-12.7 44.5-49.5 48.5-46 5-104.5-9.5-138.5-48.5s-162.5-36.5-190.5-2" stroke="#33266B" stroke-width="1.73"/><path d="M1008.59 767.927c-19.666-3.156-26.193 1.061-36.576 10.097-9.856 7.052-14.534 4.827-16.628 5.391-3.376.304-11.384 2.082-16.409 6.768-5.025 4.685-11.495 6.377-14.101 6.638-5.983.13-18.794 1.484-22.178 5.857-3.384 4.373-16.964 9.544-23.331 11.583-25.844 6.769-30.867 2.862-34.867 23.862-7.5 28-12.7 44.5-49.5 48.5-46 5-93.5-9.623-122.5-33.123-11 2.167-15.282 7.949-42 29-16.5 13-22 2.5-55.5 4.123-13 1.792-39.5 11.577-41.5 36.377" stroke="#33266B" stroke-width="1.73"/><path d="M1008.59 767.927c-19.667-3.156-26.193 1.061-36.577 10.097-9.856 7.052-14.534 4.827-16.628 5.391-3.375.304-11.383 2.082-16.409 6.768-5.025 4.685-11.494 6.377-14.101 6.638-.625-.107-2.275-.521-3.875-1.321-8-4-7 .5-19-2-1.095-.228-16-5-18.5-12-.167-.167-.5-1.7-.5-6.5 0-6-4.5-19-8-22M1009.54 767.756c-.39-6.728-2.82-24.627-9.991-32.878-5.739-6.601-7.771-14.514-8.07-17.645.103-5.992-6.959-10.029-10.503-11.298-3.415-2.328-10.426-8.505-11.143-14.599-.717-6.093-8.326-12.779-12.04-15.36-7.431-16.784-39.094-54.553-106.294-71.353-84-21-102.5-30-124.5-59s-66.999-65-135.999-62.5M1248 921c17.33 6.5 56 30.5 37.5 75.5-16.17 34.67-28.96 103.25 0 145 38.5 55.5 89.5 57 110 65" stroke="#33266B" stroke-width="1.73"/><path d="M1249 920.5c-6.17 26.667-34.84 78.789-87 102.5-44 20-40.17 71.17-26.5 95.5M1324 842c6.5 2.833 26.9 6.8 56.5 0 37-8.5 59.5-.5 65.5 5 3.33 2.5 11.7 6 18.5 0 8.5-7.5 9.5-13.5 28-13.5s26-4 34.5-9.5 18.5-7 30.5-6.5 21.5-6 26.5-22 17-58 75-66M1324 842c-2.67-3-9-9.5-13-11.5-5-2.5-5-3.5-4.5-6.5s-1-8.5-9-12-30-4-31-27.5c-.33-3.333-.5-11.5 1.5-17.5" stroke="#33266B" stroke-width="1.73"/><path d="M1324.5 841.5c-3.5 3.667-15.5 10.9-35.5 10.5-3.83-.333-12.2-.3-15 2.5-3.5 3.5-14 3-19.5-1M1324.5 843c-1.33 4.167-3.6 13-2 15 2 2.5 3 7.5 0 9s-3.5 7.39-17.5 12c-13.67 4.5-44 19.1-56 41.5M1248.5 920c-4.5-5.667-15.4-17.6-23-20-9.5-3-7.5-10.5-12.5-14s-34-12-36-26.5" stroke="#33266B" stroke-width="1.73"/><path d="M1323.5 842.5c10.83-10.5 35.6-31.4 48-31 12.4.4 19.17-2.833 21-4.5 0-2.333 1.4-6.3 7-3.5 7 3.5 12.5.5 16.5-3 3.2-2.8 7-7.5 8.5-9.5M1010 769c-2.17-5-10.6-14.5-27-12.5-3.5 0-10.9-.6-12.5-3-2-3-1.5-9-9.5-8.5-6.4.4-6-2.5-10.5-4.5-2.5-1-4-1-9.5 0-7.5 2-10.699-1.116-13-1.5-3-.5-4-.5-6.5 0-4.218.844-12.5 4.5-15.5 2.5-7-4.666-19 0-25.5-6.5-4.031-4.031-13.5-13.5-28-12.5-9.718.671-14 4-16 7-3.333 5-8.2 3-15 1M1009.5 767.281c5-5.166 17.9-14.1 29.5-8.5 11.6 5.6 28.5 8 35.5 8.5 10.83.5 18.7 4.086 37.5 0 11.5-2.5 10-6.5 21.5-6.5 4 0 8.5.475 18 9.5 3.57 3.392 16 10 21.5 9.5" stroke="#33266B" stroke-width="1.73"/><path d="M1009.5 767.281c5-5.166 17.9-14.1 29.5-8.5 11.6 5.6 28.5 8 35.5 8.5 10.83.5 18.7 4.086 37.5 0 11.5-2.5 10-6.5 21.5-6.5 5.17 2.74 16.3 11.019 19.5 22.219 4 14 20.5 34.5 64 29.5" stroke="#33266B" stroke-width="1.73"/></svg>